<?xml version="1.0" encoding="UTF-8"?><svg xmlns="http://www.w3.org/2000/svg" xmlns:xlink="http://www.w3.org/1999/xlink" fill-opacity="1" color-rendering="auto" color-interpolation="auto" text-rendering="auto" stroke="black" stroke-linecap="square" width="771" stroke-miterlimit="10" shape-rendering="auto" stroke-opacity="1" fill="black" stroke-dasharray="none" font-weight="normal" stroke-width="1" height="858" font-family="'Dialog'" font-style="normal" stroke-linejoin="miter" font-size="12px" stroke-dashoffset="0" image-rendering="auto">
  <!--Generated by ySVG 2.5-->
  <defs id="genericDefs"/>
  <g>
    <defs id="defs1">
      <clipPath clipPathUnits="userSpaceOnUse" id="clipPath1">
        <path d="M0 0 L771 0 L771 858 L0 858 L0 0 Z"/>
      </clipPath>
      <clipPath clipPathUnits="userSpaceOnUse" id="clipPath2">
        <path d="M14 -5 L785 -5 L785 853 L14 853 L14 -5 Z"/>
      </clipPath>
    </defs>
    <g fill="rgb(0,140,255)" text-rendering="geometricPrecision" shape-rendering="geometricPrecision" transform="matrix(1,0,0,1,-14,5)" stroke="rgb(0,140,255)">
      <circle r="30" clip-path="url(#clipPath2)" cx="639.92" cy="477.7809" stroke="none"/>
    </g>
    <g text-rendering="geometricPrecision" stroke-miterlimit="1.45" shape-rendering="geometricPrecision" font-family="'Monaco'" transform="matrix(1,0,0,1,-14,5)" stroke-linecap="butt">
      <text x="632.7189" xml:space="preserve" y="482.2809" clip-path="url(#clipPath2)" stroke="none">N4</text>
    </g>
    <g fill="rgb(0,140,255)" text-rendering="geometricPrecision" shape-rendering="geometricPrecision" transform="matrix(1,0,0,1,-14,5)" stroke="rgb(0,140,255)">
      <circle r="30" clip-path="url(#clipPath2)" cx="632.92" cy="749.7809" stroke="none"/>
    </g>
    <g text-rendering="geometricPrecision" stroke-miterlimit="1.45" shape-rendering="geometricPrecision" font-family="'Monaco'" transform="matrix(1,0,0,1,-14,5)" stroke-linecap="butt">
      <text x="625.7189" xml:space="preserve" y="754.2809" clip-path="url(#clipPath2)" stroke="none">N7</text>
    </g>
    <g fill="rgb(0,140,255)" text-rendering="geometricPrecision" shape-rendering="geometricPrecision" transform="matrix(1,0,0,1,-14,5)" stroke="rgb(0,140,255)">
      <circle r="30" clip-path="url(#clipPath2)" cx="715.92" cy="684.7809" stroke="none"/>
    </g>
    <g text-rendering="geometricPrecision" stroke-miterlimit="1.45" shape-rendering="geometricPrecision" font-family="'Monaco'" transform="matrix(1,0,0,1,-14,5)" stroke-linecap="butt">
      <text x="708.7189" xml:space="preserve" y="689.2809" clip-path="url(#clipPath2)" stroke="none">N6</text>
    </g>
    <g fill="rgb(0,140,255)" text-rendering="geometricPrecision" shape-rendering="geometricPrecision" transform="matrix(1,0,0,1,-14,5)" stroke="rgb(0,140,255)">
      <circle r="30" clip-path="url(#clipPath2)" cx="739.92" cy="594.7809" stroke="none"/>
    </g>
    <g text-rendering="geometricPrecision" stroke-miterlimit="1.45" shape-rendering="geometricPrecision" font-family="'Monaco'" transform="matrix(1,0,0,1,-14,5)" stroke-linecap="butt">
      <text x="732.7189" xml:space="preserve" y="599.2809" clip-path="url(#clipPath2)" stroke="none">N5</text>
    </g>
    <g fill="rgb(0,140,255)" text-rendering="geometricPrecision" shape-rendering="geometricPrecision" transform="matrix(1,0,0,1,-14,5)" stroke="rgb(0,140,255)">
      <circle r="30" clip-path="url(#clipPath2)" cx="582.92" cy="644.7809" stroke="none"/>
    </g>
    <g text-rendering="geometricPrecision" stroke-miterlimit="1.45" shape-rendering="geometricPrecision" font-family="'Monaco'" transform="matrix(1,0,0,1,-14,5)" stroke-linecap="butt">
      <text x="575.7189" xml:space="preserve" y="649.2809" clip-path="url(#clipPath2)" stroke="none">N3</text>
    </g>
    <g fill="rgb(0,140,255)" text-rendering="geometricPrecision" shape-rendering="geometricPrecision" transform="matrix(1,0,0,1,-14,5)" stroke="rgb(0,140,255)">
      <circle r="30" clip-path="url(#clipPath2)" cx="571.92" cy="549.7809" stroke="none"/>
    </g>
    <g text-rendering="geometricPrecision" stroke-miterlimit="1.45" shape-rendering="geometricPrecision" font-family="'Monaco'" transform="matrix(1,0,0,1,-14,5)" stroke-linecap="butt">
      <text x="564.7189" xml:space="preserve" y="554.2809" clip-path="url(#clipPath2)" stroke="none">N2</text>
    </g>
    <g fill="rgb(51,204,255)" text-rendering="geometricPrecision" shape-rendering="geometricPrecision" transform="matrix(1,0,0,1,-14,5)" stroke="rgb(51,204,255)">
      <circle r="30" clip-path="url(#clipPath2)" cx="465.92" cy="566.7809" stroke="none"/>
    </g>
    <g text-rendering="geometricPrecision" stroke-miterlimit="1.45" shape-rendering="geometricPrecision" font-family="'Monaco'" transform="matrix(1,0,0,1,-14,5)" stroke-linecap="butt">
      <text x="458.7189" xml:space="preserve" y="571.2809" clip-path="url(#clipPath2)" stroke="none">N1</text>
    </g>
    <g fill="rgb(0,140,255)" text-rendering="geometricPrecision" shape-rendering="geometricPrecision" transform="matrix(1,0,0,1,-14,5)" stroke="rgb(0,140,255)">
      <circle r="30" clip-path="url(#clipPath2)" cx="636.6082" cy="55.6157" stroke="none"/>
    </g>
    <g text-rendering="geometricPrecision" stroke-miterlimit="1.45" shape-rendering="geometricPrecision" font-family="'Monaco'" transform="matrix(1,0,0,1,-14,5)" stroke-linecap="butt">
      <text x="629.407" xml:space="preserve" y="60.1157" clip-path="url(#clipPath2)" stroke="none">N4</text>
    </g>
    <g fill="rgb(0,140,255)" text-rendering="geometricPrecision" shape-rendering="geometricPrecision" transform="matrix(1,0,0,1,-14,5)" stroke="rgb(0,140,255)">
      <circle r="30" clip-path="url(#clipPath2)" cx="629.6082" cy="327.6157" stroke="none"/>
    </g>
    <g text-rendering="geometricPrecision" stroke-miterlimit="1.45" shape-rendering="geometricPrecision" font-family="'Monaco'" transform="matrix(1,0,0,1,-14,5)" stroke-linecap="butt">
      <text x="622.407" xml:space="preserve" y="332.1157" clip-path="url(#clipPath2)" stroke="none">N7</text>
    </g>
    <g fill="rgb(0,140,255)" text-rendering="geometricPrecision" shape-rendering="geometricPrecision" transform="matrix(1,0,0,1,-14,5)" stroke="rgb(0,140,255)">
      <circle r="30" clip-path="url(#clipPath2)" cx="712.6082" cy="262.6157" stroke="none"/>
    </g>
    <g text-rendering="geometricPrecision" stroke-miterlimit="1.45" shape-rendering="geometricPrecision" font-family="'Monaco'" transform="matrix(1,0,0,1,-14,5)" stroke-linecap="butt">
      <text x="705.407" xml:space="preserve" y="267.1157" clip-path="url(#clipPath2)" stroke="none">N6</text>
    </g>
    <g fill="rgb(0,140,255)" text-rendering="geometricPrecision" shape-rendering="geometricPrecision" transform="matrix(1,0,0,1,-14,5)" stroke="rgb(0,140,255)">
      <circle r="30" clip-path="url(#clipPath2)" cx="736.6082" cy="172.6157" stroke="none"/>
    </g>
    <g text-rendering="geometricPrecision" stroke-miterlimit="1.45" shape-rendering="geometricPrecision" font-family="'Monaco'" transform="matrix(1,0,0,1,-14,5)" stroke-linecap="butt">
      <text x="729.407" xml:space="preserve" y="177.1157" clip-path="url(#clipPath2)" stroke="none">N5</text>
    </g>
    <g fill="rgb(51,204,255)" text-rendering="geometricPrecision" shape-rendering="geometricPrecision" transform="matrix(1,0,0,1,-14,5)" stroke="rgb(51,204,255)">
      <circle r="30" clip-path="url(#clipPath2)" cx="579.6082" cy="222.6157" stroke="none"/>
    </g>
    <g text-rendering="geometricPrecision" stroke-miterlimit="1.45" shape-rendering="geometricPrecision" font-family="'Monaco'" transform="matrix(1,0,0,1,-14,5)" stroke-linecap="butt">
      <text x="572.407" xml:space="preserve" y="227.1157" clip-path="url(#clipPath2)" stroke="none">N3</text>
    </g>
    <g fill="rgb(0,140,255)" text-rendering="geometricPrecision" shape-rendering="geometricPrecision" transform="matrix(1,0,0,1,-14,5)" stroke="rgb(0,140,255)">
      <circle r="30" clip-path="url(#clipPath2)" cx="568.6082" cy="127.6157" stroke="none"/>
    </g>
    <g text-rendering="geometricPrecision" stroke-miterlimit="1.45" shape-rendering="geometricPrecision" font-family="'Monaco'" transform="matrix(1,0,0,1,-14,5)" stroke-linecap="butt">
      <text x="561.407" xml:space="preserve" y="132.1157" clip-path="url(#clipPath2)" stroke="none">N2</text>
    </g>
    <g fill="rgb(0,140,255)" text-rendering="geometricPrecision" shape-rendering="geometricPrecision" transform="matrix(1,0,0,1,-14,5)" stroke="rgb(0,140,255)">
      <circle r="30" clip-path="url(#clipPath2)" cx="462.6082" cy="144.6157" stroke="none"/>
    </g>
    <g text-rendering="geometricPrecision" stroke-miterlimit="1.45" shape-rendering="geometricPrecision" font-family="'Monaco'" transform="matrix(1,0,0,1,-14,5)" stroke-linecap="butt">
      <text x="455.407" xml:space="preserve" y="149.1157" clip-path="url(#clipPath2)" stroke="none">N1</text>
    </g>
    <g fill="rgb(0,140,255)" text-rendering="geometricPrecision" shape-rendering="geometricPrecision" transform="matrix(1,0,0,1,-14,5)" stroke="rgb(0,140,255)">
      <circle r="30" clip-path="url(#clipPath2)" cx="237.6871" cy="475.9973" stroke="none"/>
    </g>
    <g text-rendering="geometricPrecision" stroke-miterlimit="1.45" shape-rendering="geometricPrecision" font-family="'Monaco'" transform="matrix(1,0,0,1,-14,5)" stroke-linecap="butt">
      <text x="230.4859" xml:space="preserve" y="480.4973" clip-path="url(#clipPath2)" stroke="none">N4</text>
    </g>
    <g fill="rgb(0,140,255)" text-rendering="geometricPrecision" shape-rendering="geometricPrecision" transform="matrix(1,0,0,1,-14,5)" stroke="rgb(0,140,255)">
      <circle r="30" clip-path="url(#clipPath2)" cx="230.6871" cy="747.9973" stroke="none"/>
    </g>
    <g text-rendering="geometricPrecision" stroke-miterlimit="1.45" shape-rendering="geometricPrecision" font-family="'Monaco'" transform="matrix(1,0,0,1,-14,5)" stroke-linecap="butt">
      <text x="223.4859" xml:space="preserve" y="752.4973" clip-path="url(#clipPath2)" stroke="none">N7</text>
    </g>
    <g fill="rgb(51,204,255)" text-rendering="geometricPrecision" shape-rendering="geometricPrecision" transform="matrix(1,0,0,1,-14,5)" stroke="rgb(51,204,255)">
      <circle r="30" clip-path="url(#clipPath2)" cx="313.6871" cy="682.9973" stroke="none"/>
    </g>
    <g text-rendering="geometricPrecision" stroke-miterlimit="1.45" shape-rendering="geometricPrecision" font-family="'Monaco'" transform="matrix(1,0,0,1,-14,5)" stroke-linecap="butt">
      <text x="306.4859" xml:space="preserve" y="687.4973" clip-path="url(#clipPath2)" stroke="none">N6</text>
    </g>
    <g fill="rgb(0,140,255)" text-rendering="geometricPrecision" shape-rendering="geometricPrecision" transform="matrix(1,0,0,1,-14,5)" stroke="rgb(0,140,255)">
      <circle r="30" clip-path="url(#clipPath2)" cx="337.6871" cy="592.9973" stroke="none"/>
    </g>
    <g text-rendering="geometricPrecision" stroke-miterlimit="1.45" shape-rendering="geometricPrecision" font-family="'Monaco'" transform="matrix(1,0,0,1,-14,5)" stroke-linecap="butt">
      <text x="330.4859" xml:space="preserve" y="597.4973" clip-path="url(#clipPath2)" stroke="none">N5</text>
    </g>
    <g fill="rgb(0,140,255)" text-rendering="geometricPrecision" shape-rendering="geometricPrecision" transform="matrix(1,0,0,1,-14,5)" stroke="rgb(0,140,255)">
      <circle r="30" clip-path="url(#clipPath2)" cx="180.6871" cy="642.9973" stroke="none"/>
    </g>
    <g text-rendering="geometricPrecision" stroke-miterlimit="1.45" shape-rendering="geometricPrecision" font-family="'Monaco'" transform="matrix(1,0,0,1,-14,5)" stroke-linecap="butt">
      <text x="173.4859" xml:space="preserve" y="647.4973" clip-path="url(#clipPath2)" stroke="none">N3</text>
    </g>
    <g fill="rgb(0,140,255)" text-rendering="geometricPrecision" shape-rendering="geometricPrecision" transform="matrix(1,0,0,1,-14,5)" stroke="rgb(0,140,255)">
      <circle r="30" clip-path="url(#clipPath2)" cx="169.6871" cy="547.9973" stroke="none"/>
    </g>
    <g text-rendering="geometricPrecision" stroke-miterlimit="1.45" shape-rendering="geometricPrecision" font-family="'Monaco'" transform="matrix(1,0,0,1,-14,5)" stroke-linecap="butt">
      <text x="162.4859" xml:space="preserve" y="552.4973" clip-path="url(#clipPath2)" stroke="none">N2</text>
    </g>
    <g fill="rgb(0,140,255)" text-rendering="geometricPrecision" shape-rendering="geometricPrecision" transform="matrix(1,0,0,1,-14,5)" stroke="rgb(0,140,255)">
      <circle r="30" clip-path="url(#clipPath2)" cx="63.6871" cy="564.9973" stroke="none"/>
    </g>
    <g text-rendering="geometricPrecision" stroke-miterlimit="1.45" shape-rendering="geometricPrecision" font-family="'Monaco'" transform="matrix(1,0,0,1,-14,5)" stroke-linecap="butt">
      <text x="56.4859" xml:space="preserve" y="569.4973" clip-path="url(#clipPath2)" stroke="none">N1</text>
    </g>
    <g fill="rgb(0,140,255)" text-rendering="geometricPrecision" shape-rendering="geometricPrecision" transform="matrix(1,0,0,1,-14,5)" stroke="rgb(0,140,255)">
      <circle r="30" clip-path="url(#clipPath2)" cx="233" cy="40" stroke="none"/>
    </g>
    <g text-rendering="geometricPrecision" stroke-miterlimit="1.45" shape-rendering="geometricPrecision" font-family="'Monaco'" transform="matrix(1,0,0,1,-14,5)" stroke-linecap="butt">
      <text x="225.7988" xml:space="preserve" y="44.5" clip-path="url(#clipPath2)" stroke="none">N4</text>
    </g>
    <g fill="rgb(0,140,255)" text-rendering="geometricPrecision" shape-rendering="geometricPrecision" transform="matrix(1,0,0,1,-14,5)" stroke="rgb(0,140,255)">
      <circle r="30" clip-path="url(#clipPath2)" cx="226" cy="312" stroke="none"/>
    </g>
    <g text-rendering="geometricPrecision" stroke-miterlimit="1.45" shape-rendering="geometricPrecision" font-family="'Monaco'" transform="matrix(1,0,0,1,-14,5)" stroke-linecap="butt">
      <text x="218.7988" xml:space="preserve" y="316.5" clip-path="url(#clipPath2)" stroke="none">N7</text>
    </g>
    <g fill="rgb(0,140,255)" text-rendering="geometricPrecision" shape-rendering="geometricPrecision" transform="matrix(1,0,0,1,-14,5)" stroke="rgb(0,140,255)">
      <circle r="30" clip-path="url(#clipPath2)" cx="309" cy="247" stroke="none"/>
    </g>
    <g text-rendering="geometricPrecision" stroke-miterlimit="1.45" shape-rendering="geometricPrecision" font-family="'Monaco'" transform="matrix(1,0,0,1,-14,5)" stroke-linecap="butt">
      <text x="301.7988" xml:space="preserve" y="251.5" clip-path="url(#clipPath2)" stroke="none">N6</text>
    </g>
    <g fill="rgb(0,140,255)" text-rendering="geometricPrecision" shape-rendering="geometricPrecision" transform="matrix(1,0,0,1,-14,5)" stroke="rgb(0,140,255)">
      <circle r="30" clip-path="url(#clipPath2)" cx="333" cy="157" stroke="none"/>
    </g>
    <g text-rendering="geometricPrecision" stroke-miterlimit="1.45" shape-rendering="geometricPrecision" font-family="'Monaco'" transform="matrix(1,0,0,1,-14,5)" stroke-linecap="butt">
      <text x="325.7988" xml:space="preserve" y="161.5" clip-path="url(#clipPath2)" stroke="none">N5</text>
    </g>
    <g fill="rgb(0,140,255)" text-rendering="geometricPrecision" shape-rendering="geometricPrecision" transform="matrix(1,0,0,1,-14,5)" stroke="rgb(0,140,255)">
      <circle r="30" clip-path="url(#clipPath2)" cx="176" cy="207" stroke="none"/>
    </g>
    <g text-rendering="geometricPrecision" stroke-miterlimit="1.45" shape-rendering="geometricPrecision" font-family="'Monaco'" transform="matrix(1,0,0,1,-14,5)" stroke-linecap="butt">
      <text x="168.7988" xml:space="preserve" y="211.5" clip-path="url(#clipPath2)" stroke="none">N3</text>
    </g>
    <g fill="rgb(0,140,255)" text-rendering="geometricPrecision" shape-rendering="geometricPrecision" transform="matrix(1,0,0,1,-14,5)" stroke="rgb(0,140,255)">
      <circle r="30" clip-path="url(#clipPath2)" cx="165" cy="112" stroke="none"/>
    </g>
    <g text-rendering="geometricPrecision" stroke-miterlimit="1.45" shape-rendering="geometricPrecision" font-family="'Monaco'" transform="matrix(1,0,0,1,-14,5)" stroke-linecap="butt">
      <text x="157.7988" xml:space="preserve" y="116.5" clip-path="url(#clipPath2)" stroke="none">N2</text>
    </g>
    <g fill="rgb(0,140,255)" text-rendering="geometricPrecision" shape-rendering="geometricPrecision" transform="matrix(1,0,0,1,-14,5)" stroke="rgb(0,140,255)">
      <circle r="30" clip-path="url(#clipPath2)" cx="59" cy="129" stroke="none"/>
    </g>
    <g text-rendering="geometricPrecision" stroke-miterlimit="1.45" shape-rendering="geometricPrecision" font-family="'Monaco'" transform="matrix(1,0,0,1,-14,5)" stroke-linecap="butt">
      <text x="51.7988" xml:space="preserve" y="133.5" clip-path="url(#clipPath2)" stroke="none">N1</text>
      <text x="172.9912" xml:space="preserve" y="387.5" clip-path="url(#clipPath2)" stroke="none">Grafo d'esempio</text>
      <text x="585.793" xml:space="preserve" y="387.5" clip-path="url(#clipPath2)" stroke="none">Grado N3 = 3</text>
      <text x="187.4801" xml:space="preserve" y="812.4973" clip-path="url(#clipPath2)" stroke="none">Grado N6 = 5</text>
      <text x="589.713" xml:space="preserve" y="812.4973" clip-path="url(#clipPath2)" stroke="none">Grado N1 = 2</text>
      <path fill="none" d="M705.5804 656.6191 L650.2596 505.9428" stroke-width="2" clip-path="url(#clipPath2)"/>
      <path fill="none" d="M692.3009 703.2779 L656.5392 731.284" stroke-width="2" clip-path="url(#clipPath2)"/>
      <path fill="none" d="M723.6499 655.7939 L732.1902 623.768" stroke-width="2" clip-path="url(#clipPath2)"/>
      <path fill="none" d="M687.1912 676.1407 L611.6489 653.4212" stroke-width="2" clip-path="url(#clipPath2)"/>
      <path fill="none" d="M611.5054 635.6773 L711.3347 603.8846" stroke-width="2" clip-path="url(#clipPath2)"/>
      <path fill="none" d="M593.8062 570.2992 L694.0339 664.2627" stroke-width="2" clip-path="url(#clipPath2)"/>
      <path fill="none" d="M592.5187 527.9706 L619.3214 499.5913" stroke-width="2" clip-path="url(#clipPath2)"/>
    </g>
    <g stroke-linecap="butt" transform="matrix(1,0,0,1,-14,5)" fill="rgb(51,204,255)" text-rendering="geometricPrecision" shape-rendering="geometricPrecision" stroke="rgb(51,204,255)" stroke-width="2" stroke-miterlimit="1.45">
      <path fill="none" d="M490.8816 583.4219 L557.9586 628.14" clip-path="url(#clipPath2)"/>
      <path fill="none" d="M495.5415 562.0303 L542.2986 554.5316" clip-path="url(#clipPath2)"/>
      <path fill="none" d="M702.2686 234.4538 L646.9478 83.7776" clip-path="url(#clipPath2)" stroke="black"/>
      <path fill="none" d="M688.989 281.1126 L653.2274 309.1187" clip-path="url(#clipPath2)" stroke="black"/>
      <path fill="none" d="M720.3381 233.6286 L728.8783 201.6027" clip-path="url(#clipPath2)" stroke="black"/>
      <path fill="none" d="M683.8793 253.9754 L608.337 231.2559" clip-path="url(#clipPath2)"/>
      <path fill="none" d="M608.1935 213.512 L708.0228 181.7193" clip-path="url(#clipPath2)"/>
      <path fill="none" d="M590.4943 148.1339 L690.722 242.0974" clip-path="url(#clipPath2)" stroke="black"/>
      <path fill="none" d="M589.2069 105.8053 L616.0095 77.4261" clip-path="url(#clipPath2)" stroke="black"/>
      <path fill="none" d="M487.5697 161.2567 L554.6467 205.9747" clip-path="url(#clipPath2)"/>
      <path fill="none" d="M492.2297 139.8651 L538.9867 132.3663" clip-path="url(#clipPath2)" stroke="black"/>
      <path fill="none" d="M303.3474 654.8354 L248.0267 504.1592" clip-path="url(#clipPath2)"/>
      <path fill="none" d="M290.0679 701.4943 L254.3062 729.5004" clip-path="url(#clipPath2)"/>
      <path fill="none" d="M321.417 654.0103 L329.9572 621.9844" clip-path="url(#clipPath2)"/>
      <path fill="none" d="M284.9583 674.3571 L209.4159 651.6376" clip-path="url(#clipPath2)"/>
      <path fill="none" d="M209.2725 633.8937 L309.1017 602.101" clip-path="url(#clipPath2)" stroke="black"/>
      <path fill="none" d="M191.5732 568.5156 L291.801 662.4791" clip-path="url(#clipPath2)"/>
      <path fill="none" d="M190.2858 526.187 L217.0884 497.8077" clip-path="url(#clipPath2)" stroke="black"/>
      <path fill="none" d="M88.6486 581.6383 L155.7256 626.3563" clip-path="url(#clipPath2)" stroke="black"/>
      <path fill="none" d="M93.3086 560.2467 L140.0656 552.7479" clip-path="url(#clipPath2)" stroke="black"/>
      <path fill="none" d="M298.6604 218.8381 L243.3396 68.1619" clip-path="url(#clipPath2)" stroke="black"/>
      <path fill="none" d="M285.3809 265.4969 L249.6191 293.5031" clip-path="url(#clipPath2)" stroke="black"/>
      <path fill="none" d="M316.7299 218.013 L325.2701 185.987" clip-path="url(#clipPath2)" stroke="black"/>
      <path fill="none" d="M280.2711 238.3597 L204.7288 215.6403" clip-path="url(#clipPath2)" stroke="black"/>
      <path fill="none" d="M204.5854 197.8964 L304.4146 166.1036" clip-path="url(#clipPath2)" stroke="black"/>
      <path fill="none" d="M186.8861 132.5182 L287.1139 226.4818" clip-path="url(#clipPath2)" stroke="black"/>
      <path fill="none" d="M185.5987 90.1896 L212.4013 61.8104" clip-path="url(#clipPath2)" stroke="black"/>
      <path fill="none" d="M83.9615 145.641 L151.0385 190.359" clip-path="url(#clipPath2)" stroke="black"/>
      <path fill="none" d="M88.6215 124.2494 L135.3785 116.7506" clip-path="url(#clipPath2)" stroke="black"/>
    </g>
  </g>
</svg>
