<?xml version="1.0" encoding="UTF-8"?><svg xmlns="http://www.w3.org/2000/svg" xmlns:xlink="http://www.w3.org/1999/xlink" fill-opacity="1" color-rendering="auto" color-interpolation="auto" text-rendering="auto" stroke="black" stroke-linecap="square" width="622" stroke-miterlimit="10" shape-rendering="auto" stroke-opacity="1" fill="black" stroke-dasharray="none" font-weight="normal" stroke-width="1" height="232" font-family="'Dialog'" font-style="normal" stroke-linejoin="miter" font-size="12px" stroke-dashoffset="0" image-rendering="auto">
  <!--Generated by ySVG 2.5-->
  <defs id="genericDefs"/>
  <g>
    <defs id="defs1">
      <clipPath clipPathUnits="userSpaceOnUse" id="clipPath1">
        <path d="M0 0 L622 0 L622 232 L0 232 L0 0 Z"/>
      </clipPath>
      <clipPath clipPathUnits="userSpaceOnUse" id="clipPath2">
        <path d="M17 50 L639 50 L639 282 L17 282 L17 50 Z"/>
      </clipPath>
    </defs>
    <g fill="white" text-rendering="geometricPrecision" shape-rendering="geometricPrecision" transform="translate(-17,-50)" stroke="white">
      <rect x="17" width="622" height="232" y="50" clip-path="url(#clipPath2)" stroke="none"/>
    </g>
    <g fill="rgb(0,140,255)" text-rendering="geometricPrecision" shape-rendering="geometricPrecision" transform="matrix(1,0,0,1,-17,-50)" stroke="rgb(0,140,255)">
      <circle r="30" clip-path="url(#clipPath2)" cx="62.4968" cy="95.6818" stroke="none"/>
    </g>
    <g text-rendering="geometricPrecision" stroke-miterlimit="1.45" shape-rendering="geometricPrecision" font-family="'Monaco'" transform="matrix(1,0,0,1,-17,-50)" stroke-linecap="butt">
      <text x="55.2957" xml:space="preserve" y="100.1818" clip-path="url(#clipPath2)" stroke="none">N1</text>
    </g>
    <g fill="rgb(0,140,255)" text-rendering="geometricPrecision" shape-rendering="geometricPrecision" transform="matrix(1,0,0,1,-17,-50)" stroke="rgb(0,140,255)">
      <circle r="30" clip-path="url(#clipPath2)" cx="201.769" cy="134.6818" stroke="none"/>
    </g>
    <g text-rendering="geometricPrecision" stroke-miterlimit="1.45" shape-rendering="geometricPrecision" font-family="'Monaco'" transform="matrix(1,0,0,1,-17,-50)" stroke-linecap="butt">
      <text x="194.5679" xml:space="preserve" y="139.1818" clip-path="url(#clipPath2)" stroke="none">N2</text>
    </g>
    <g fill="rgb(0,140,255)" text-rendering="geometricPrecision" shape-rendering="geometricPrecision" transform="matrix(1,0,0,1,-17,-50)" stroke="rgb(0,140,255)">
      <circle r="30" clip-path="url(#clipPath2)" cx="62.4968" cy="185.6818" stroke="none"/>
    </g>
    <g text-rendering="geometricPrecision" stroke-miterlimit="1.45" shape-rendering="geometricPrecision" font-family="'Monaco'" transform="matrix(1,0,0,1,-17,-50)" stroke-linecap="butt">
      <text x="55.2957" xml:space="preserve" y="190.1818" clip-path="url(#clipPath2)" stroke="none">N2</text>
    </g>
    <g fill="rgb(0,140,255)" text-rendering="geometricPrecision" shape-rendering="geometricPrecision" transform="matrix(1,0,0,1,-17,-50)" stroke="rgb(0,140,255)">
      <circle r="30" clip-path="url(#clipPath2)" cx="326.3071" cy="134.6818" stroke="none"/>
    </g>
    <g text-rendering="geometricPrecision" stroke-miterlimit="1.45" shape-rendering="geometricPrecision" font-family="'Monaco'" transform="matrix(1,0,0,1,-17,-50)" stroke-linecap="butt">
      <text x="319.1059" xml:space="preserve" y="139.1818" clip-path="url(#clipPath2)" stroke="none">N2</text>
    </g>
    <g fill="rgb(0,140,255)" text-rendering="geometricPrecision" shape-rendering="geometricPrecision" transform="matrix(1,0,0,1,-17,-50)" stroke="rgb(0,140,255)">
      <rect x="551" width="30" height="66" y="134.6818" clip-path="url(#clipPath2)" stroke="none"/>
      <rect x="508" width="30" height="36" y="164.6818" clip-path="url(#clipPath2)" stroke="none"/>
      <rect x="594" width="30" height="36" y="164.6818" clip-path="url(#clipPath2)" stroke="none"/>
    </g>
    <g text-rendering="geometricPrecision" stroke-miterlimit="1.45" stroke-width="2" shape-rendering="geometricPrecision" transform="matrix(1,0,0,1,-17,-50)" stroke-linecap="butt">
      <path fill="none" d="M91.3856 103.7714 L172.8803 126.5921" clip-path="url(#clipPath2)"/>
      <path fill="none" d="M62.4968 125.6818 L62.4968 155.6818" clip-path="url(#clipPath2)"/>
      <path fill="none" d="M90.6675 175.366 L173.5984 144.9976" clip-path="url(#clipPath2)"/>
      <path fill="none" d="M231.769 134.6818 L296.3071 134.6818" clip-path="url(#clipPath2)"/>
      <text x="519.2061" y="219.2833" clip-path="url(#clipPath2)" font-family="sans-serif" stroke="none" stroke-width="1" xml:space="preserve">1</text>
      <text x="562.2061" y="220.2169" clip-path="url(#clipPath2)" font-family="sans-serif" stroke="none" stroke-width="1" xml:space="preserve">2</text>
      <text x="605.2061" y="220.2169" clip-path="url(#clipPath2)" font-family="sans-serif" stroke="none" stroke-width="1" xml:space="preserve">3</text>
    </g>
  </g>
</svg>
