<?xml version="1.0" encoding="UTF-8"?><svg xmlns="http://www.w3.org/2000/svg" xmlns:xlink="http://www.w3.org/1999/xlink" fill-opacity="1" color-rendering="auto" color-interpolation="auto" text-rendering="auto" stroke="black" stroke-linecap="square" width="621" stroke-miterlimit="10" shape-rendering="auto" stroke-opacity="1" fill="black" stroke-dasharray="none" font-weight="normal" stroke-width="1" height="426" font-family="'Dialog'" font-style="normal" stroke-linejoin="miter" font-size="12px" stroke-dashoffset="0" image-rendering="auto">
  <!--Generated by ySVG 2.5-->
  <defs id="genericDefs"/>
  <g>
    <defs id="defs1">
      <clipPath clipPathUnits="userSpaceOnUse" id="clipPath1">
        <path d="M0 0 L621 0 L621 426 L0 426 L0 0 Z"/>
      </clipPath>
      <clipPath clipPathUnits="userSpaceOnUse" id="clipPath2">
        <path d="M70 24 L691 24 L691 450 L70 450 L70 24 Z"/>
      </clipPath>
    </defs>
    <g fill="rgb(179,211,19)" text-rendering="geometricPrecision" shape-rendering="geometricPrecision" transform="matrix(1,0,0,1,-70,-24)" stroke="rgb(179,211,19)">
      <circle r="30" clip-path="url(#clipPath2)" cx="646" cy="239" stroke="none"/>
    </g>
    <g text-rendering="geometricPrecision" stroke-miterlimit="1.45" shape-rendering="geometricPrecision" font-family="'Monaco'" transform="matrix(1,0,0,1,-70,-24)" stroke-linecap="butt">
      <text x="638.7988" xml:space="preserve" y="243.5" clip-path="url(#clipPath2)" stroke="none">N9</text>
    </g>
    <g fill="rgb(179,211,19)" text-rendering="geometricPrecision" shape-rendering="geometricPrecision" transform="matrix(1,0,0,1,-70,-24)" stroke="rgb(179,211,19)">
      <circle r="30" clip-path="url(#clipPath2)" cx="552.5" cy="96" stroke="none"/>
    </g>
    <g text-rendering="geometricPrecision" stroke-miterlimit="1.45" shape-rendering="geometricPrecision" font-family="'Monaco'" transform="matrix(1,0,0,1,-70,-24)" stroke-linecap="butt">
      <text x="545.2988" xml:space="preserve" y="100.5" clip-path="url(#clipPath2)" stroke="none">N8</text>
    </g>
    <g fill="rgb(179,211,19)" text-rendering="geometricPrecision" shape-rendering="geometricPrecision" transform="matrix(1,0,0,1,-70,-24)" stroke="rgb(179,211,19)">
      <circle r="30" clip-path="url(#clipPath2)" cx="425" cy="345" stroke="none"/>
    </g>
    <g text-rendering="geometricPrecision" stroke-miterlimit="1.45" shape-rendering="geometricPrecision" font-family="'Monaco'" transform="matrix(1,0,0,1,-70,-24)" stroke-linecap="butt">
      <text x="414.1982" xml:space="preserve" y="349.5" clip-path="url(#clipPath2)" stroke="none">N11</text>
    </g>
    <g fill="rgb(179,211,19)" text-rendering="geometricPrecision" shape-rendering="geometricPrecision" transform="matrix(1,0,0,1,-70,-24)" stroke="rgb(179,211,19)">
      <circle r="30" clip-path="url(#clipPath2)" cx="521" cy="405" stroke="none"/>
    </g>
    <g text-rendering="geometricPrecision" stroke-miterlimit="1.45" shape-rendering="geometricPrecision" font-family="'Monaco'" transform="matrix(1,0,0,1,-70,-24)" stroke-linecap="butt">
      <text x="510.1982" xml:space="preserve" y="409.5" clip-path="url(#clipPath2)" stroke="none">N10</text>
    </g>
    <g fill="rgb(179,211,19)" text-rendering="geometricPrecision" shape-rendering="geometricPrecision" transform="matrix(1,0,0,1,-70,-24)" stroke="rgb(179,211,19)">
      <circle r="30" clip-path="url(#clipPath2)" cx="488" cy="217" stroke="none"/>
    </g>
    <g text-rendering="geometricPrecision" stroke-miterlimit="1.45" shape-rendering="geometricPrecision" font-family="'Monaco'" transform="matrix(1,0,0,1,-70,-24)" stroke-linecap="butt">
      <text x="480.7988" xml:space="preserve" y="221.5" clip-path="url(#clipPath2)" stroke="none">N7</text>
    </g>
    <g fill="rgb(179,211,19)" text-rendering="geometricPrecision" shape-rendering="geometricPrecision" transform="matrix(1,0,0,1,-70,-24)" stroke="rgb(179,211,19)">
      <circle r="30" clip-path="url(#clipPath2)" cx="293" cy="207" stroke="none"/>
    </g>
    <g text-rendering="geometricPrecision" stroke-miterlimit="1.45" shape-rendering="geometricPrecision" font-family="'Monaco'" transform="matrix(1,0,0,1,-70,-24)" stroke-linecap="butt">
      <text x="285.7988" xml:space="preserve" y="211.5" clip-path="url(#clipPath2)" stroke="none">N1</text>
    </g>
    <g fill="rgb(179,211,19)" text-rendering="geometricPrecision" shape-rendering="geometricPrecision" transform="matrix(1,0,0,1,-70,-24)" stroke="rgb(179,211,19)">
      <circle r="30" clip-path="url(#clipPath2)" cx="267" cy="69" stroke="none"/>
    </g>
    <g text-rendering="geometricPrecision" stroke-miterlimit="1.45" shape-rendering="geometricPrecision" font-family="'Monaco'" transform="matrix(1,0,0,1,-70,-24)" stroke-linecap="butt">
      <text x="259.7988" xml:space="preserve" y="73.5" clip-path="url(#clipPath2)" stroke="none">N2</text>
    </g>
    <g fill="rgb(179,211,19)" text-rendering="geometricPrecision" shape-rendering="geometricPrecision" transform="matrix(1,0,0,1,-70,-24)" stroke="rgb(179,211,19)">
      <circle r="30" clip-path="url(#clipPath2)" cx="393" cy="157" stroke="none"/>
    </g>
    <g text-rendering="geometricPrecision" stroke-miterlimit="1.45" shape-rendering="geometricPrecision" font-family="'Monaco'" transform="matrix(1,0,0,1,-70,-24)" stroke-linecap="butt">
      <text x="385.7988" xml:space="preserve" y="161.5" clip-path="url(#clipPath2)" stroke="none">N3</text>
    </g>
    <g fill="rgb(179,211,19)" text-rendering="geometricPrecision" shape-rendering="geometricPrecision" transform="matrix(1,0,0,1,-70,-24)" stroke="rgb(179,211,19)">
      <circle r="30" clip-path="url(#clipPath2)" cx="312" cy="326" stroke="none"/>
    </g>
    <g text-rendering="geometricPrecision" stroke-miterlimit="1.45" shape-rendering="geometricPrecision" font-family="'Monaco'" transform="matrix(1,0,0,1,-70,-24)" stroke-linecap="butt">
      <text x="304.7988" xml:space="preserve" y="330.5" clip-path="url(#clipPath2)" stroke="none">N4</text>
    </g>
    <g fill="rgb(179,211,19)" text-rendering="geometricPrecision" shape-rendering="geometricPrecision" transform="matrix(1,0,0,1,-70,-24)" stroke="rgb(179,211,19)">
      <circle r="30" clip-path="url(#clipPath2)" cx="115" cy="113" stroke="none"/>
    </g>
    <g text-rendering="geometricPrecision" stroke-miterlimit="1.45" shape-rendering="geometricPrecision" font-family="'Monaco'" transform="matrix(1,0,0,1,-70,-24)" stroke-linecap="butt">
      <text x="107.7988" xml:space="preserve" y="117.5" clip-path="url(#clipPath2)" stroke="none">N5</text>
    </g>
    <g fill="rgb(179,211,19)" text-rendering="geometricPrecision" shape-rendering="geometricPrecision" transform="matrix(1,0,0,1,-70,-24)" stroke="rgb(179,211,19)">
      <circle r="30" clip-path="url(#clipPath2)" cx="155" cy="222" stroke="none"/>
    </g>
    <g text-rendering="geometricPrecision" stroke-miterlimit="1.45" shape-rendering="geometricPrecision" font-family="'Monaco'" transform="matrix(1,0,0,1,-70,-24)" stroke-linecap="butt">
      <text x="147.7988" xml:space="preserve" y="226.5" clip-path="url(#clipPath2)" stroke="none">N6</text>
      <path fill="none" d="M568.9175 121.1091 L629.5825 213.8909" stroke-width="2" clip-path="url(#clipPath2)"/>
      <path fill="none" d="M450.4399 360.9 L495.5601 389.1" stroke-width="2" clip-path="url(#clipPath2)"/>
      <path fill="none" d="M517.7133 221.1373 L616.2867 234.8627" stroke-width="2" clip-path="url(#clipPath2)"/>
      <path fill="none" d="M502.112 190.5264 L538.3881 122.4736" stroke-width="2" clip-path="url(#clipPath2)"/>
      <path fill="none" d="M287.4456 177.5187 L272.5544 98.4813" stroke-width="2" clip-path="url(#clipPath2)"/>
      <path fill="none" d="M319.8328 193.5836 L366.1672 170.4164" stroke-width="2" clip-path="url(#clipPath2)"/>
      <path fill="none" d="M380.0337 184.0532 L324.9663 298.9468" stroke-width="2" clip-path="url(#clipPath2)"/>
      <path fill="none" d="M238.1831 77.3417 L143.8169 104.6583" stroke-width="2" clip-path="url(#clipPath2)"/>
      <path fill="none" d="M249.2797 93.2072 L172.7203 197.7928" stroke-width="2" clip-path="url(#clipPath2)"/>
      <path fill="none" d="M125.3352 141.1635 L144.6648 193.8365" stroke-width="2" clip-path="url(#clipPath2)"/>
    </g>
  </g>
</svg>
