<?xml version="1.0" encoding="UTF-8"?><svg xmlns="http://www.w3.org/2000/svg" xmlns:xlink="http://www.w3.org/1999/xlink" fill-opacity="1" color-rendering="auto" color-interpolation="auto" text-rendering="auto" stroke="black" stroke-linecap="square" width="543" stroke-miterlimit="10" shape-rendering="auto" stroke-opacity="1" fill="black" stroke-dasharray="none" font-weight="normal" stroke-width="1" height="446" font-family="'Dialog'" font-style="normal" stroke-linejoin="miter" font-size="12px" stroke-dashoffset="0" image-rendering="auto">
  <!--Generated by ySVG 2.5-->
  <defs id="genericDefs"/>
  <g>
    <defs id="defs1">
      <clipPath clipPathUnits="userSpaceOnUse" id="clipPath1">
        <path d="M0 0 L543 0 L543 446 L0 446 L0 0 Z"/>
      </clipPath>
      <clipPath clipPathUnits="userSpaceOnUse" id="clipPath2">
        <path d="M122 156 L665 156 L665 602 L122 602 L122 156 Z"/>
      </clipPath>
    </defs>
    <g fill="rgb(179,211,19)" text-rendering="geometricPrecision" shape-rendering="geometricPrecision" transform="matrix(1,0,0,1,-122,-156)" stroke="rgb(179,211,19)">
      <circle r="30" clip-path="url(#clipPath2)" cx="401" cy="236" stroke="none"/>
    </g>
    <g text-rendering="geometricPrecision" stroke-miterlimit="1.45" shape-rendering="geometricPrecision" font-family="'Monaco'" transform="matrix(1,0,0,1,-122,-156)" stroke-linecap="butt">
      <text x="379.3965" xml:space="preserve" y="240.5" clip-path="url(#clipPath2)" stroke="none">Milano</text>
    </g>
    <g fill="rgb(179,211,19)" text-rendering="geometricPrecision" shape-rendering="geometricPrecision" transform="matrix(1,0,0,1,-122,-156)" stroke="rgb(179,211,19)">
      <circle r="30" clip-path="url(#clipPath2)" cx="620" cy="230" stroke="none"/>
    </g>
    <g text-rendering="geometricPrecision" stroke-miterlimit="1.45" shape-rendering="geometricPrecision" font-family="'Monaco'" transform="matrix(1,0,0,1,-122,-156)" stroke-linecap="butt">
      <text x="594.7959" xml:space="preserve" y="234.5" clip-path="url(#clipPath2)" stroke="none">Venezia</text>
    </g>
    <g fill="rgb(179,211,19)" text-rendering="geometricPrecision" shape-rendering="geometricPrecision" transform="matrix(1,0,0,1,-122,-156)" stroke="rgb(179,211,19)">
      <circle r="30" clip-path="url(#clipPath2)" cx="512" cy="557" stroke="none"/>
    </g>
    <g text-rendering="geometricPrecision" stroke-miterlimit="1.45" shape-rendering="geometricPrecision" font-family="'Monaco'" transform="matrix(1,0,0,1,-122,-156)" stroke-linecap="butt">
      <text x="486.7959" xml:space="preserve" y="561.5" clip-path="url(#clipPath2)" stroke="none">Palermo</text>
    </g>
    <g fill="rgb(179,211,19)" text-rendering="geometricPrecision" shape-rendering="geometricPrecision" transform="matrix(1,0,0,1,-122,-156)" stroke="rgb(179,211,19)">
      <circle r="30" clip-path="url(#clipPath2)" cx="279" cy="446" stroke="none"/>
    </g>
    <g text-rendering="geometricPrecision" stroke-miterlimit="1.45" shape-rendering="geometricPrecision" font-family="'Monaco'" transform="matrix(1,0,0,1,-122,-156)" stroke-linecap="butt">
      <text x="264.5977" xml:space="preserve" y="450.5" clip-path="url(#clipPath2)" stroke="none">Roma</text>
    </g>
    <g fill="rgb(179,211,19)" text-rendering="geometricPrecision" shape-rendering="geometricPrecision" transform="matrix(1,0,0,1,-122,-156)" stroke="rgb(179,211,19)">
      <circle r="30" clip-path="url(#clipPath2)" cx="447" cy="407" stroke="none"/>
    </g>
    <g text-rendering="geometricPrecision" stroke-miterlimit="1.45" shape-rendering="geometricPrecision" font-family="'Monaco'" transform="matrix(1,0,0,1,-122,-156)" stroke-linecap="butt">
      <text x="421.7959" xml:space="preserve" y="411.5" clip-path="url(#clipPath2)" stroke="none">Bologna</text>
    </g>
    <g fill="rgb(179,211,19)" text-rendering="geometricPrecision" shape-rendering="geometricPrecision" transform="matrix(1,0,0,1,-122,-156)" stroke="rgb(179,211,19)">
      <circle r="30" clip-path="url(#clipPath2)" cx="167" cy="201" stroke="none"/>
    </g>
    <g text-rendering="geometricPrecision" stroke-miterlimit="1.45" shape-rendering="geometricPrecision" font-family="'Monaco'" transform="matrix(1,0,0,1,-122,-156)" stroke-linecap="butt">
      <text x="145.3965" xml:space="preserve" y="205.5" clip-path="url(#clipPath2)" stroke="none">Torino</text>
      <path fill="none" d="M430.9887 235.1784 L590.0112 230.8216" stroke-width="3" clip-path="url(#clipPath2)"/>
      <text x="499.6982" xml:space="preserve" y="207.4887" clip-path="url(#clipPath2)" stroke="none">279</text>
      <path fill="none" d="M610.6633 258.5101 L564 401 L521.4868 528.5395" stroke-width="3" clip-path="url(#clipPath2)"/>
      <text x="584.309" xml:space="preserve" y="416.8675" clip-path="url(#clipPath2)" stroke="none">1423</text>
      <path fill="none" d="M484.9163 544.0975 L306.0837 458.9025" stroke-width="3" clip-path="url(#clipPath2)"/>
      <text x="372.6254" xml:space="preserve" y="533.4789" clip-path="url(#clipPath2)" stroke="none">924</text>
      <path fill="none" d="M294.07 420.0598 L385.93 261.9402" stroke-width="3" clip-path="url(#clipPath2)"/>
      <text x="293.0809" xml:space="preserve" y="347.9479" clip-path="url(#clipPath2)" stroke="none">571</text>
      <path fill="none" d="M599.0306 251.4542 L467.9694 385.5457" stroke-width="3" clip-path="url(#clipPath2)"/>
      <text x="501.244" xml:space="preserve" y="302.0306" clip-path="url(#clipPath2)" stroke="none">154</text>
      <path fill="none" d="M500.0718 529.4733 L458.9282 434.5267" stroke-width="3" clip-path="url(#clipPath2)"/>
      <text x="432.6904" xml:space="preserve" y="487.1653" clip-path="url(#clipPath2)" stroke="none">1270</text>
      <path fill="none" d="M196.67 205.4378 L371.33 231.5622" stroke-width="3" clip-path="url(#clipPath2)"/>
      <text x="273.1982" xml:space="preserve" y="192.6663" clip-path="url(#clipPath2)" stroke="none">141</text>
    </g>
  </g>
</svg>
