<?xml version="1.0" encoding="UTF-8"?><svg xmlns="http://www.w3.org/2000/svg" xmlns:xlink="http://www.w3.org/1999/xlink" fill-opacity="1" color-rendering="auto" color-interpolation="auto" text-rendering="auto" stroke="black" stroke-linecap="square" width="467" stroke-miterlimit="10" shape-rendering="auto" stroke-opacity="1" fill="black" stroke-dasharray="none" font-weight="normal" stroke-width="1" height="337" font-family="'Dialog'" font-style="normal" stroke-linejoin="miter" font-size="12px" stroke-dashoffset="0" image-rendering="auto">
  <!--Generated by ySVG 2.5-->
  <defs id="genericDefs"/>
  <g>
    <defs id="defs1">
      <clipPath clipPathUnits="userSpaceOnUse" id="clipPath1">
        <path d="M0 0 L467 0 L467 337 L0 337 L0 0 Z"/>
      </clipPath>
      <clipPath clipPathUnits="userSpaceOnUse" id="clipPath2">
        <path d="M122 156 L589 156 L589 493 L122 493 L122 156 Z"/>
      </clipPath>
    </defs>
    <g fill="rgb(179,211,19)" text-rendering="geometricPrecision" shape-rendering="geometricPrecision" transform="matrix(1,0,0,1,-122,-156)" stroke="rgb(179,211,19)">
      <circle r="30" clip-path="url(#clipPath2)" cx="257" cy="291" stroke="none"/>
    </g>
    <g text-rendering="geometricPrecision" stroke-miterlimit="1.45" shape-rendering="geometricPrecision" font-family="'Monaco'" transform="matrix(1,0,0,1,-122,-156)" stroke-linecap="butt">
      <text x="249.7988" xml:space="preserve" y="295.5" clip-path="url(#clipPath2)" stroke="none">N2</text>
    </g>
    <g fill="rgb(179,211,19)" text-rendering="geometricPrecision" shape-rendering="geometricPrecision" transform="matrix(1,0,0,1,-122,-156)" stroke="rgb(179,211,19)">
      <circle r="30" clip-path="url(#clipPath2)" cx="420" cy="246" stroke="none"/>
    </g>
    <g text-rendering="geometricPrecision" stroke-miterlimit="1.45" shape-rendering="geometricPrecision" font-family="'Monaco'" transform="matrix(1,0,0,1,-122,-156)" stroke-linecap="butt">
      <text x="412.7988" xml:space="preserve" y="250.5" clip-path="url(#clipPath2)" stroke="none">N5</text>
    </g>
    <g fill="rgb(179,211,19)" text-rendering="geometricPrecision" shape-rendering="geometricPrecision" transform="matrix(1,0,0,1,-122,-156)" stroke="rgb(179,211,19)">
      <circle r="30" clip-path="url(#clipPath2)" cx="452" cy="448" stroke="none"/>
    </g>
    <g text-rendering="geometricPrecision" stroke-miterlimit="1.45" shape-rendering="geometricPrecision" font-family="'Monaco'" transform="matrix(1,0,0,1,-122,-156)" stroke-linecap="butt">
      <text x="444.7988" xml:space="preserve" y="452.5" clip-path="url(#clipPath2)" stroke="none">N4</text>
    </g>
    <g fill="rgb(179,211,19)" text-rendering="geometricPrecision" shape-rendering="geometricPrecision" transform="matrix(1,0,0,1,-122,-156)" stroke="rgb(179,211,19)">
      <circle r="30" clip-path="url(#clipPath2)" cx="266" cy="427" stroke="none"/>
    </g>
    <g text-rendering="geometricPrecision" stroke-miterlimit="1.45" shape-rendering="geometricPrecision" font-family="'Monaco'" transform="matrix(1,0,0,1,-122,-156)" stroke-linecap="butt">
      <text x="258.7988" xml:space="preserve" y="431.5" clip-path="url(#clipPath2)" stroke="none">N3</text>
    </g>
    <g fill="rgb(179,211,19)" text-rendering="geometricPrecision" shape-rendering="geometricPrecision" transform="matrix(1,0,0,1,-122,-156)" stroke="rgb(179,211,19)">
      <circle r="30" clip-path="url(#clipPath2)" cx="544" cy="332" stroke="none"/>
    </g>
    <g text-rendering="geometricPrecision" stroke-miterlimit="1.45" shape-rendering="geometricPrecision" font-family="'Monaco'" transform="matrix(1,0,0,1,-122,-156)" stroke-linecap="butt">
      <text x="536.7988" xml:space="preserve" y="336.5" clip-path="url(#clipPath2)" stroke="none">N6</text>
    </g>
    <g fill="rgb(179,211,19)" text-rendering="geometricPrecision" shape-rendering="geometricPrecision" transform="matrix(1,0,0,1,-122,-156)" stroke="rgb(179,211,19)">
      <circle r="30" clip-path="url(#clipPath2)" cx="167" cy="201" stroke="none"/>
    </g>
    <g text-rendering="geometricPrecision" stroke-miterlimit="1.45" shape-rendering="geometricPrecision" font-family="'Monaco'" transform="matrix(1,0,0,1,-122,-156)" stroke-linecap="butt">
      <text x="159.7988" xml:space="preserve" y="205.5" clip-path="url(#clipPath2)" stroke="none">N1</text>
      <path fill="none" d="M285.9182 283.0164 L391.0818 253.9836" stroke-width="3" clip-path="url(#clipPath2)"/>
      <text x="331.2988" xml:space="preserve" y="304.1223" clip-path="url(#clipPath2)" stroke="none">A2</text>
      <path fill="none" d="M424.6939 275.6305 L447.3061 418.3695" stroke-width="3" clip-path="url(#clipPath2)"/>
      <text x="398.4247" xml:space="preserve" y="351.5" clip-path="url(#clipPath2)" stroke="none">A4</text>
      <path fill="none" d="M422.1894 444.6343 L295.8106 430.3657" stroke-width="3" clip-path="url(#clipPath2)"/>
      <text x="351.7988" xml:space="preserve" y="411.8094" clip-path="url(#clipPath2)" stroke="none">A6</text>
      <path fill="none" d="M264.019 397.0655 L258.981 320.9345" stroke-width="3" clip-path="url(#clipPath2)"/>
      <text x="284.3644" xml:space="preserve" y="363.5" clip-path="url(#clipPath2)" stroke="none">A7</text>
      <path fill="none" d="M444.6514 263.097 L519.3486 314.903" stroke-width="3" clip-path="url(#clipPath2)"/>
      <text x="457.7019" xml:space="preserve" y="318.1514" clip-path="url(#clipPath2)" stroke="none">A3</text>
      <path fill="none" d="M470.6418 424.4951 L525.3582 355.5049" stroke-width="3" clip-path="url(#clipPath2)"/>
      <text x="514.3038" xml:space="preserve" y="413.1418" clip-path="url(#clipPath2)" stroke="none">A5</text>
      <path fill="none" d="M188.2132 222.2132 L235.7868 269.7868" stroke-width="3" clip-path="url(#clipPath2)"/>
      <text x="183.5856" xml:space="preserve" y="271.7132" clip-path="url(#clipPath2)" stroke="none">A1</text>
    </g>
  </g>
</svg>
