<?xml version="1.0" encoding="UTF-8"?><svg xmlns="http://www.w3.org/2000/svg" xmlns:xlink="http://www.w3.org/1999/xlink" fill-opacity="1" color-rendering="auto" color-interpolation="auto" text-rendering="auto" stroke="black" stroke-linecap="square" width="389" stroke-miterlimit="10" shape-rendering="auto" stroke-opacity="1" fill="black" stroke-dasharray="none" font-weight="normal" stroke-width="1" height="246" font-family="'Dialog'" font-style="normal" stroke-linejoin="miter" font-size="12px" stroke-dashoffset="0" image-rendering="auto">
  <!--Generated by ySVG 2.5-->
  <defs id="genericDefs"/>
  <g>
    <defs id="defs1">
      <clipPath clipPathUnits="userSpaceOnUse" id="clipPath1">
        <path d="M0 0 L389 0 L389 246 L0 246 L0 0 Z"/>
      </clipPath>
      <clipPath clipPathUnits="userSpaceOnUse" id="clipPath2">
        <path d="M260 154 L649 154 L649 400 L260 400 L260 154 Z"/>
      </clipPath>
    </defs>
    <g fill="rgb(179,211,19)" text-rendering="geometricPrecision" shape-rendering="geometricPrecision" transform="matrix(1,0,0,1,-260,-154)" stroke="rgb(179,211,19)">
      <circle r="30" clip-path="url(#clipPath2)" cx="552" cy="212" stroke="none"/>
    </g>
    <g text-rendering="geometricPrecision" stroke-miterlimit="1.45" shape-rendering="geometricPrecision" font-family="'Monaco'" transform="matrix(1,0,0,1,-260,-154)" stroke-linecap="butt">
      <text x="544.7988" xml:space="preserve" y="216.5" clip-path="url(#clipPath2)" stroke="none">N2</text>
    </g>
    <g fill="rgb(179,211,19)" text-rendering="geometricPrecision" shape-rendering="geometricPrecision" transform="matrix(1,0,0,1,-260,-154)" stroke="rgb(179,211,19)">
      <circle r="30" clip-path="url(#clipPath2)" cx="341" cy="212" stroke="none"/>
    </g>
    <g text-rendering="geometricPrecision" stroke-miterlimit="1.45" shape-rendering="geometricPrecision" font-family="'Monaco'" transform="matrix(1,0,0,1,-260,-154)" stroke-linecap="butt">
      <text x="333.7988" xml:space="preserve" y="216.5" clip-path="url(#clipPath2)" stroke="none">N1</text>
    </g>
    <g fill="rgb(179,211,19)" text-rendering="geometricPrecision" shape-rendering="geometricPrecision" transform="matrix(1,0,0,1,-260,-154)" stroke="rgb(179,211,19)">
      <circle r="30" clip-path="url(#clipPath2)" cx="604" cy="343" stroke="none"/>
    </g>
    <g text-rendering="geometricPrecision" stroke-miterlimit="1.45" shape-rendering="geometricPrecision" font-family="'Monaco'" transform="matrix(1,0,0,1,-260,-154)" stroke-linecap="butt">
      <text x="596.7988" xml:space="preserve" y="347.5" clip-path="url(#clipPath2)" stroke="none">N2</text>
    </g>
    <g fill="rgb(179,211,19)" text-rendering="geometricPrecision" shape-rendering="geometricPrecision" transform="matrix(1,0,0,1,-260,-154)" stroke="rgb(179,211,19)">
      <circle r="30" clip-path="url(#clipPath2)" cx="305" cy="343" stroke="none"/>
    </g>
    <g text-rendering="geometricPrecision" stroke-miterlimit="1.45" shape-rendering="geometricPrecision" font-family="'Monaco'" transform="matrix(1,0,0,1,-260,-154)" stroke-linecap="butt">
      <text x="297.7988" xml:space="preserve" y="347.5" clip-path="url(#clipPath2)" stroke="none">N1</text>
      <path fill="none" d="M370.0633 219.438 L446.5 239 L522.9367 219.438" stroke-width="3" clip-path="url(#clipPath2)"/>
    </g>
    <g stroke-linecap="butt" transform="matrix(1,0,0,1,-260,-154)" fill="white" text-rendering="geometricPrecision" shape-rendering="geometricPrecision" stroke="white" stroke-width="3" stroke-miterlimit="1.45">
      <rect x="437.2988" width="18.4023" height="19" y="229.5" clip-path="url(#clipPath2)" stroke="none"/>
    </g>
    <g text-rendering="geometricPrecision" stroke-miterlimit="1.45" shape-rendering="geometricPrecision" font-family="'Monaco'" transform="matrix(1,0,0,1,-260,-154)" stroke-linecap="butt">
      <text x="439.2988" xml:space="preserve" y="243.5" clip-path="url(#clipPath2)" stroke="none">A2</text>
      <path fill="none" d="M369.6075 202.9661 L445.5 179 L523.3441 203.1207" stroke-width="3" clip-path="url(#clipPath2)"/>
    </g>
    <g stroke-linecap="butt" transform="matrix(1,0,0,1,-260,-154)" fill="white" text-rendering="geometricPrecision" shape-rendering="geometricPrecision" stroke="white" stroke-width="3" stroke-miterlimit="1.45">
      <rect x="436.2988" width="18.4023" height="19" y="169.5" clip-path="url(#clipPath2)" stroke="none"/>
    </g>
    <g text-rendering="geometricPrecision" stroke-miterlimit="1.45" shape-rendering="geometricPrecision" font-family="'Monaco'" transform="matrix(1,0,0,1,-260,-154)" stroke-linecap="butt">
      <text x="438.2988" xml:space="preserve" y="183.5" clip-path="url(#clipPath2)" stroke="none">A1</text>
      <path fill="none" d="M334.2997 349.4439 L450.5 375 L574.6314 349.1224" stroke-width="3" clip-path="url(#clipPath2)"/>
    </g>
    <g stroke-linecap="butt" transform="matrix(1,0,0,1,-260,-154)" fill="white" text-rendering="geometricPrecision" shape-rendering="geometricPrecision" stroke="white" stroke-width="3" stroke-miterlimit="1.45">
      <rect x="419.6953" width="61.6094" height="19" y="365.5" clip-path="url(#clipPath2)" stroke="none"/>
    </g>
    <g text-rendering="geometricPrecision" stroke-miterlimit="1.45" shape-rendering="geometricPrecision" font-family="'Monaco'" transform="matrix(1,0,0,1,-260,-154)" stroke-linecap="butt">
      <text x="421.6953" xml:space="preserve" y="379.5" clip-path="url(#clipPath2)" stroke="none">capacità</text>
      <path fill="none" d="M334.247 336.3207 L449.5 310 L574.6617 336.7336" stroke-width="3" clip-path="url(#clipPath2)"/>
    </g>
    <g stroke-linecap="butt" transform="matrix(1,0,0,1,-260,-154)" fill="white" text-rendering="geometricPrecision" shape-rendering="geometricPrecision" stroke="white" stroke-width="3" stroke-miterlimit="1.45">
      <rect x="418.6953" width="61.6094" height="19" y="300.5" clip-path="url(#clipPath2)" stroke="none"/>
    </g>
    <g text-rendering="geometricPrecision" stroke-miterlimit="1.45" shape-rendering="geometricPrecision" font-family="'Monaco'" transform="matrix(1,0,0,1,-260,-154)" stroke-linecap="butt">
      <text x="420.6953" xml:space="preserve" y="314.5" clip-path="url(#clipPath2)" stroke="none">distanza</text>
    </g>
  </g>
</svg>
