<?xml version="1.0" encoding="UTF-8"?><svg xmlns="http://www.w3.org/2000/svg" xmlns:xlink="http://www.w3.org/1999/xlink" fill-opacity="1" color-rendering="auto" color-interpolation="auto" text-rendering="auto" stroke="black" stroke-linecap="square" width="414" stroke-miterlimit="10" shape-rendering="auto" stroke-opacity="1" fill="black" stroke-dasharray="none" font-weight="normal" stroke-width="1" height="336" font-family="'Dialog'" font-style="normal" stroke-linejoin="miter" font-size="12px" stroke-dashoffset="0" image-rendering="auto">
  <!--Generated by ySVG 2.5-->
  <defs id="genericDefs"/>
  <g>
    <defs id="defs1">
      <clipPath clipPathUnits="userSpaceOnUse" id="clipPath1">
        <path d="M0 0 L414 0 L414 336 L0 336 L0 0 Z"/>
      </clipPath>
      <clipPath clipPathUnits="userSpaceOnUse" id="clipPath2">
        <path d="M236 135 L650 135 L650 471 L236 471 L236 135 Z"/>
      </clipPath>
    </defs>
    <g fill="rgb(179,211,19)" text-rendering="geometricPrecision" shape-rendering="geometricPrecision" transform="matrix(1,0,0,1,-236,-135)" stroke="rgb(179,211,19)">
      <circle r="30" clip-path="url(#clipPath2)" cx="317" cy="203" stroke="none"/>
    </g>
    <g text-rendering="geometricPrecision" stroke-miterlimit="1.45" shape-rendering="geometricPrecision" font-family="'Monaco'" transform="matrix(1,0,0,1,-236,-135)" stroke-linecap="butt">
      <text x="309.7988" xml:space="preserve" y="207.5" clip-path="url(#clipPath2)" stroke="none">N1</text>
    </g>
    <g fill="rgb(179,211,19)" text-rendering="geometricPrecision" shape-rendering="geometricPrecision" transform="matrix(1,0,0,1,-236,-135)" stroke="rgb(179,211,19)">
      <circle r="30" clip-path="url(#clipPath2)" cx="605" cy="310" stroke="none"/>
    </g>
    <g text-rendering="geometricPrecision" stroke-miterlimit="1.45" shape-rendering="geometricPrecision" font-family="'Monaco'" transform="matrix(1,0,0,1,-236,-135)" stroke-linecap="butt">
      <text x="597.7988" xml:space="preserve" y="314.5" clip-path="url(#clipPath2)" stroke="none">N3</text>
    </g>
    <g fill="rgb(179,211,19)" text-rendering="geometricPrecision" shape-rendering="geometricPrecision" transform="matrix(1,0,0,1,-236,-135)" stroke="rgb(179,211,19)">
      <circle r="30" clip-path="url(#clipPath2)" cx="376" cy="419" stroke="none"/>
    </g>
    <g text-rendering="geometricPrecision" stroke-miterlimit="1.45" shape-rendering="geometricPrecision" font-family="'Monaco'" transform="matrix(1,0,0,1,-236,-135)" stroke-linecap="butt">
      <text x="368.7988" xml:space="preserve" y="423.5" clip-path="url(#clipPath2)" stroke="none">N5</text>
    </g>
    <g fill="rgb(179,211,19)" text-rendering="geometricPrecision" shape-rendering="geometricPrecision" transform="matrix(1,0,0,1,-236,-135)" stroke="rgb(179,211,19)">
      <circle r="30" clip-path="url(#clipPath2)" cx="516" cy="180" stroke="none"/>
    </g>
    <g text-rendering="geometricPrecision" stroke-miterlimit="1.45" shape-rendering="geometricPrecision" font-family="'Monaco'" transform="matrix(1,0,0,1,-236,-135)" stroke-linecap="butt">
      <text x="508.7988" xml:space="preserve" y="184.5" clip-path="url(#clipPath2)" stroke="none">N2</text>
    </g>
    <g fill="rgb(179,211,19)" text-rendering="geometricPrecision" shape-rendering="geometricPrecision" transform="matrix(1,0,0,1,-236,-135)" stroke="rgb(179,211,19)">
      <circle r="30" clip-path="url(#clipPath2)" cx="516" cy="426" stroke="none"/>
    </g>
    <g text-rendering="geometricPrecision" stroke-miterlimit="1.45" shape-rendering="geometricPrecision" font-family="'Monaco'" transform="matrix(1,0,0,1,-236,-135)" stroke-linecap="butt">
      <text x="508.7988" xml:space="preserve" y="430.5" clip-path="url(#clipPath2)" stroke="none">N4</text>
    </g>
    <g fill="rgb(179,211,19)" text-rendering="geometricPrecision" shape-rendering="geometricPrecision" transform="matrix(1,0,0,1,-236,-135)" stroke="rgb(179,211,19)">
      <circle r="30" clip-path="url(#clipPath2)" cx="281" cy="293" stroke="none"/>
    </g>
    <g text-rendering="geometricPrecision" stroke-miterlimit="1.45" shape-rendering="geometricPrecision" font-family="'Monaco'" transform="matrix(1,0,0,1,-236,-135)" stroke-linecap="butt">
      <text x="273.7988" xml:space="preserve" y="297.5" clip-path="url(#clipPath2)" stroke="none">N6</text>
    </g>
    <g stroke-linecap="butt" transform="matrix(1,0,0,1,-236,-135)" fill="rgb(255,51,51)" text-rendering="geometricPrecision" shape-rendering="geometricPrecision" stroke="rgb(255,51,51)" stroke-width="3" stroke-miterlimit="1.45">
      <path fill="none" d="M358.011 218.2367 L576.8782 299.5519" clip-path="url(#clipPath2)"/>
      <path d="M345.1219 213.448 L356.5708 225.7025 L361.7948 211.6416 Z" clip-path="url(#clipPath2)" stroke="none"/>
      <path fill="none" d="M364.4721 376.7961 L324.9048 231.9398" clip-path="url(#clipPath2)" stroke="black"/>
      <path fill="black" d="M368.0952 390.0602 L371.3777 373.614 L356.9077 377.5665 Z" clip-path="url(#clipPath2)" stroke="none"/>
      <path fill="none" d="M346.8016 199.5556 L472.5393 185.0231" clip-path="url(#clipPath2)" stroke="rgb(255,153,0)"/>
      <path fill="rgb(255,153,0)" d="M486.1984 183.4444 L470.4365 177.7162 L472.1587 192.617 Z" clip-path="url(#clipPath2)" stroke="none"/>
    </g>
    <g text-rendering="geometricPrecision" stroke-miterlimit="1.45" shape-rendering="geometricPrecision" font-family="'Monaco'" transform="matrix(1,0,0,1,-236,-135)" stroke-linecap="butt">
      <text x="409.2988" xml:space="preserve" y="226.1997" clip-path="url(#clipPath2)" stroke="none">A1</text>
    </g>
    <g stroke-linecap="butt" transform="matrix(1,0,0,1,-236,-135)" fill="rgb(255,153,0)" text-rendering="geometricPrecision" shape-rendering="geometricPrecision" stroke="rgb(255,153,0)" stroke-width="3" stroke-miterlimit="1.45">
      <path fill="none" d="M532.9473 204.7545 L580.2851 273.8996" clip-path="url(#clipPath2)"/>
      <path d="M588.0527 285.2454 L585.7676 268.6313 L573.3903 277.105 Z" clip-path="url(#clipPath2)" stroke="none"/>
      <path fill="none" d="M500.8368 205.8858 L398.1131 381.2498" clip-path="url(#clipPath2)" stroke="black"/>
      <path fill="black" d="M391.1632 393.1142 L405.2163 383.9621 L392.2734 376.3804 Z" clip-path="url(#clipPath2)" stroke="none"/>
      <path fill="none" d="M586.7385 333.8016 L542.6315 391.2894" clip-path="url(#clipPath2)"/>
      <path d="M534.2615 402.1984 L549.3427 394.863 L537.442 385.7322 Z" clip-path="url(#clipPath2)" stroke="none"/>
      <path fill="none" d="M486.0374 424.5019 L419.6954 421.1848" clip-path="url(#clipPath2)"/>
      <path d="M405.9626 420.4981 L420.5693 428.7379 L421.3184 413.7566 Z" clip-path="url(#clipPath2)" stroke="none"/>
      <path fill="none" d="M516 396 L516 223.75" clip-path="url(#clipPath2)" stroke="black"/>
      <path fill="black" d="M516 210 L508.5 225 L523.5 225 Z" clip-path="url(#clipPath2)" stroke="none"/>
      <path fill="none" d="M357.9392 395.0457 L307.3386 327.9333" clip-path="url(#clipPath2)"/>
      <path d="M299.0608 316.9543 L302.1026 333.4466 L314.0797 324.4163 Z" clip-path="url(#clipPath2)" stroke="none"/>
      <path fill="none" d="M310.9588 294.5719 L561.3101 307.7076" clip-path="url(#clipPath2)"/>
      <path d="M575.0413 308.4281 L560.4548 300.1524 L559.6689 315.1318 Z" clip-path="url(#clipPath2)" stroke="none"/>
    </g>
  </g>
</svg>
