<?xml version="1.0" encoding="UTF-8"?><svg xmlns="http://www.w3.org/2000/svg" xmlns:xlink="http://www.w3.org/1999/xlink" fill-opacity="1" color-rendering="auto" color-interpolation="auto" text-rendering="auto" stroke="black" stroke-linecap="square" width="964" stroke-miterlimit="10" shape-rendering="auto" stroke-opacity="1" fill="black" stroke-dasharray="none" font-weight="normal" stroke-width="1" height="429" font-family="'Dialog'" font-style="normal" stroke-linejoin="miter" font-size="12px" stroke-dashoffset="0" image-rendering="auto">
  <!--Generated by ySVG 2.5-->
  <defs id="genericDefs"/>
  <g>
    <defs id="defs1">
      <clipPath clipPathUnits="userSpaceOnUse" id="clipPath1">
        <path d="M0 0 L964 0 L964 429 L0 429 L0 0 Z"/>
      </clipPath>
      <clipPath clipPathUnits="userSpaceOnUse" id="clipPath2">
        <path d="M-190 -457 L774 -457 L774 -28 L-190 -28 L-190 -457 Z"/>
      </clipPath>
    </defs>
    <g fill="white" text-rendering="geometricPrecision" shape-rendering="geometricPrecision" transform="translate(190,457)" stroke="white">
      <rect x="-190" width="964" height="429" y="-457" clip-path="url(#clipPath2)" stroke="none"/>
    </g>
    <g fill="rgb(153,204,0)" text-rendering="geometricPrecision" shape-rendering="geometricPrecision" transform="matrix(1,0,0,1,190,457)" stroke="rgb(153,204,0)">
      <circle r="25.003" clip-path="url(#clipPath2)" cx="-14.0322" cy="-243.532" stroke="none"/>
    </g>
    <g text-rendering="geometricPrecision" stroke-miterlimit="1.45" stroke-width="3" shape-rendering="geometricPrecision" transform="matrix(1,0,0,1,190,457)" stroke-linecap="butt">
      <circle fill="none" r="25.003" clip-path="url(#clipPath2)" cx="-14.0322" cy="-243.532"/>
      <text x="-34.4961" y="-238.9969" clip-path="url(#clipPath2)" font-family="sans-serif" stroke="none" stroke-width="1" xml:space="preserve">Oxford</text>
    </g>
    <g fill="white" text-rendering="geometricPrecision" shape-rendering="geometricPrecision" transform="matrix(1,0,0,1,190,457)" stroke="white">
      <circle r="25.003" clip-path="url(#clipPath2)" cx="-149.9534" cy="-243.532" stroke="none"/>
    </g>
    <g text-rendering="geometricPrecision" stroke-miterlimit="1.45" stroke-width="3" shape-rendering="geometricPrecision" transform="matrix(1,0,0,1,190,457)" stroke-linecap="butt">
      <circle fill="none" r="25.003" clip-path="url(#clipPath2)" cx="-149.9534" cy="-243.532"/>
    </g>
    <g font-size="14px" stroke-linecap="butt" transform="matrix(1,0,0,1,190,457)" text-rendering="geometricPrecision" font-family="'Monaco'" shape-rendering="geometricPrecision" font-weight="bold" stroke-miterlimit="1.45">
      <text x="-166.7561" xml:space="preserve" y="-238.282" clip-path="url(#clipPath2)" stroke="none">Bond</text>
    </g>
    <g fill="white" text-rendering="geometricPrecision" shape-rendering="geometricPrecision" transform="matrix(1,0,0,1,190,457)" stroke="white">
      <circle r="25.003" clip-path="url(#clipPath2)" cx="199.5501" cy="-243.532" stroke="none"/>
    </g>
    <g text-rendering="geometricPrecision" stroke-miterlimit="1.45" stroke-width="3" shape-rendering="geometricPrecision" transform="matrix(1,0,0,1,190,457)" stroke-linecap="butt">
      <circle fill="none" r="25.003" clip-path="url(#clipPath2)" cx="199.5501" cy="-243.532"/>
      <text x="184.2396" y="-238.9969" clip-path="url(#clipPath2)" font-family="sans-serif" stroke="none" stroke-width="1" xml:space="preserve">Totte</text>
    </g>
    <g fill="white" text-rendering="geometricPrecision" shape-rendering="geometricPrecision" transform="matrix(1,0,0,1,190,457)" stroke="white">
      <circle r="25.003" clip-path="url(#clipPath2)" cx="-113.4564" cy="-373.2541" stroke="none"/>
    </g>
    <g text-rendering="geometricPrecision" stroke-miterlimit="1.45" stroke-width="3" shape-rendering="geometricPrecision" transform="matrix(1,0,0,1,190,457)" stroke-linecap="butt">
      <circle fill="none" r="25.003" clip-path="url(#clipPath2)" cx="-113.4564" cy="-373.2541"/>
    </g>
    <g font-size="14px" stroke-linecap="butt" transform="matrix(1,0,0,1,190,457)" text-rendering="geometricPrecision" font-family="'Monaco'" shape-rendering="geometricPrecision" font-weight="bold" stroke-miterlimit="1.45">
      <text x="-130.2591" xml:space="preserve" y="-368.0041" clip-path="url(#clipPath2)" stroke="none">Rege</text>
    </g>
    <g fill="white" text-rendering="geometricPrecision" shape-rendering="geometricPrecision" transform="matrix(1,0,0,1,190,457)" stroke="white">
      <circle r="25.003" clip-path="url(#clipPath2)" cx="122.1976" cy="-385.2541" stroke="none"/>
    </g>
    <g text-rendering="geometricPrecision" stroke-miterlimit="1.45" stroke-width="3" shape-rendering="geometricPrecision" transform="matrix(1,0,0,1,190,457)" stroke-linecap="butt">
      <circle fill="none" r="25.003" clip-path="url(#clipPath2)" cx="122.1976" cy="-385.2541"/>
    </g>
    <g font-size="14px" stroke-linecap="butt" transform="matrix(1,0,0,1,190,457)" text-rendering="geometricPrecision" font-family="'Monaco'" shape-rendering="geometricPrecision" font-weight="bold" stroke-miterlimit="1.45">
      <text x="105.3949" xml:space="preserve" y="-380.0041" clip-path="url(#clipPath2)" stroke="none">Warr</text>
    </g>
    <g fill="white" text-rendering="geometricPrecision" shape-rendering="geometricPrecision" transform="matrix(1,0,0,1,190,457)" stroke="white">
      <circle r="25.003" clip-path="url(#clipPath2)" cx="88.5222" cy="-142.7294" stroke="none"/>
    </g>
    <g text-rendering="geometricPrecision" stroke-miterlimit="1.45" stroke-width="3" shape-rendering="geometricPrecision" transform="matrix(1,0,0,1,190,457)" stroke-linecap="butt">
      <circle fill="none" r="25.003" clip-path="url(#clipPath2)" cx="88.5222" cy="-142.7294"/>
    </g>
    <g font-size="14px" stroke-linecap="butt" transform="matrix(1,0,0,1,190,457)" text-rendering="geometricPrecision" font-family="'Monaco'" shape-rendering="geometricPrecision" font-weight="bold" stroke-miterlimit="1.45">
      <text x="71.7194" xml:space="preserve" y="-137.4794" clip-path="url(#clipPath2)" stroke="none">Picc</text>
    </g>
    <g fill="white" text-rendering="geometricPrecision" shape-rendering="geometricPrecision" transform="matrix(1,0,0,1,190,457)" stroke="white">
      <circle r="25.003" clip-path="url(#clipPath2)" cx="-64.2193" cy="-142.7294" stroke="none"/>
    </g>
    <g text-rendering="geometricPrecision" stroke-miterlimit="1.45" stroke-width="3" shape-rendering="geometricPrecision" transform="matrix(1,0,0,1,190,457)" stroke-linecap="butt">
      <circle fill="none" r="25.003" clip-path="url(#clipPath2)" cx="-64.2193" cy="-142.7294"/>
    </g>
    <g font-size="14px" stroke-linecap="butt" transform="matrix(1,0,0,1,190,457)" text-rendering="geometricPrecision" font-family="'Monaco'" shape-rendering="geometricPrecision" font-weight="bold" stroke-miterlimit="1.45">
      <text x="-81.022" xml:space="preserve" y="-137.4794" clip-path="url(#clipPath2)" stroke="none">Gree</text>
    </g>
    <g fill="rgb(153,204,0)" text-rendering="geometricPrecision" shape-rendering="geometricPrecision" transform="matrix(1,0,0,1,190,457)" stroke="rgb(153,204,0)">
      <circle r="25.003" clip-path="url(#clipPath2)" cx="549.0536" cy="-265.1797" stroke="none"/>
    </g>
    <g text-rendering="geometricPrecision" stroke-miterlimit="1.45" stroke-width="3" shape-rendering="geometricPrecision" transform="matrix(1,0,0,1,190,457)" stroke-linecap="butt">
      <circle fill="none" r="25.003" clip-path="url(#clipPath2)" cx="549.0536" cy="-265.1797"/>
      <text x="535.2167" y="-260.6446" clip-path="url(#clipPath2)" font-family="sans-serif" stroke="none" stroke-width="1" xml:space="preserve">Liver</text>
    </g>
    <g fill="white" text-rendering="geometricPrecision" shape-rendering="geometricPrecision" transform="matrix(1,0,0,1,190,457)" stroke="white">
      <circle r="25.003" clip-path="url(#clipPath2)" cx="413.1324" cy="-265.1797" stroke="none"/>
    </g>
    <g text-rendering="geometricPrecision" stroke-miterlimit="1.45" stroke-width="3" shape-rendering="geometricPrecision" transform="matrix(1,0,0,1,190,457)" stroke-linecap="butt">
      <circle fill="none" r="25.003" clip-path="url(#clipPath2)" cx="413.1324" cy="-265.1797"/>
    </g>
    <g font-size="14px" stroke-linecap="butt" transform="matrix(1,0,0,1,190,457)" text-rendering="geometricPrecision" font-family="'Monaco'" shape-rendering="geometricPrecision" font-weight="bold" stroke-miterlimit="1.45">
      <text x="396.3297" xml:space="preserve" y="-259.9297" clip-path="url(#clipPath2)" stroke="none">Moor</text>
    </g>
    <g fill="white" text-rendering="geometricPrecision" shape-rendering="geometricPrecision" transform="matrix(1,0,0,1,190,457)" stroke="white">
      <circle r="25.003" clip-path="url(#clipPath2)" cx="549.0536" cy="-416.3105" stroke="none"/>
    </g>
    <g text-rendering="geometricPrecision" stroke-miterlimit="1.45" stroke-width="3" shape-rendering="geometricPrecision" transform="matrix(1,0,0,1,190,457)" stroke-linecap="butt">
      <circle fill="none" r="25.003" clip-path="url(#clipPath2)" cx="549.0536" cy="-416.3105"/>
    </g>
    <g font-size="14px" stroke-linecap="butt" transform="matrix(1,0,0,1,190,457)" text-rendering="geometricPrecision" font-family="'Monaco'" shape-rendering="geometricPrecision" font-weight="bold" stroke-miterlimit="1.45">
      <text x="536.4515" xml:space="preserve" y="-411.0605" clip-path="url(#clipPath2)" stroke="none">Old</text>
    </g>
    <g fill="white" text-rendering="geometricPrecision" shape-rendering="geometricPrecision" transform="matrix(1,0,0,1,190,457)" stroke="white">
      <circle r="25.003" clip-path="url(#clipPath2)" cx="394.7749" cy="-113.1905" stroke="none"/>
    </g>
    <g text-rendering="geometricPrecision" stroke-miterlimit="1.45" stroke-width="3" shape-rendering="geometricPrecision" transform="matrix(1,0,0,1,190,457)" stroke-linecap="butt">
      <circle fill="none" r="25.003" clip-path="url(#clipPath2)" cx="394.7749" cy="-113.1905"/>
    </g>
    <g font-size="14px" stroke-linecap="butt" transform="matrix(1,0,0,1,190,457)" text-rendering="geometricPrecision" font-family="'Monaco'" shape-rendering="geometricPrecision" font-weight="bold" stroke-miterlimit="1.45">
      <text x="377.9721" xml:space="preserve" y="-107.9405" clip-path="url(#clipPath2)" stroke="none">Towe</text>
    </g>
    <g fill="white" text-rendering="geometricPrecision" shape-rendering="geometricPrecision" transform="matrix(1,0,0,1,190,457)" stroke="white">
      <circle r="25.003" clip-path="url(#clipPath2)" cx="733.1903" cy="-142.7294" stroke="none"/>
    </g>
    <g text-rendering="geometricPrecision" stroke-miterlimit="1.45" stroke-width="3" shape-rendering="geometricPrecision" transform="matrix(1,0,0,1,190,457)" stroke-linecap="butt">
      <circle fill="none" r="25.003" clip-path="url(#clipPath2)" cx="733.1903" cy="-142.7294"/>
      <text x="716.4911" y="-138.1943" clip-path="url(#clipPath2)" font-family="sans-serif" stroke="none" stroke-width="1" xml:space="preserve">Ald E.</text>
    </g>
    <g fill="white" text-rendering="geometricPrecision" shape-rendering="geometricPrecision" transform="matrix(1,0,0,1,190,457)" stroke="white">
      <circle r="25.003" clip-path="url(#clipPath2)" cx="585.417" cy="-68.1874" stroke="none"/>
    </g>
    <g text-rendering="geometricPrecision" stroke-miterlimit="1.45" stroke-width="3" shape-rendering="geometricPrecision" transform="matrix(1,0,0,1,190,457)" stroke-linecap="butt">
      <circle fill="none" r="25.003" clip-path="url(#clipPath2)" cx="585.417" cy="-68.1874"/>
    </g>
    <g font-size="14px" stroke-linecap="butt" transform="matrix(1,0,0,1,190,457)" text-rendering="geometricPrecision" font-family="'Monaco'" shape-rendering="geometricPrecision" font-weight="bold" stroke-miterlimit="1.45">
      <text x="572.8149" xml:space="preserve" y="-62.9375" clip-path="url(#clipPath2)" stroke="none">Ald</text>
    </g>
    <g stroke-linecap="butt" transform="matrix(1,0,0,1,190,457)" fill="rgb(255,0,51)" text-rendering="geometricPrecision" shape-rendering="geometricPrecision" stroke="rgb(255,0,51)" stroke-width="7" stroke-miterlimit="1.45">
      <path fill="none" d="M-124.9503 -243.532 L-39.0352 -243.532" clip-path="url(#clipPath2)"/>
      <path fill="none" d="M10.9708 -243.532 L174.5471 -243.532" clip-path="url(#clipPath2)"/>
      <path fill="none" d="M-88.4534 -373.2541 L-14.0322 -373.2541 L-14.0322 -268.535" clip-path="url(#clipPath2)" stroke="rgb(153,51,0)"/>
      <path fill="none" d="M3.2949 -261.5576 L104.8706 -367.2285" clip-path="url(#clipPath2)" stroke="rgb(0,204,255)"/>
      <path fill="none" d="M3.7992 -226.0052 L70.6907 -160.2563" clip-path="url(#clipPath2)" stroke="rgb(153,51,0)"/>
      <path fill="none" d="M-25.1758 -221.1496 L-53.0756 -165.1118" clip-path="url(#clipPath2)" stroke="rgb(0,204,255)"/>
      <path fill="none" d="M526.499 -276.0201 L435.6372 -276.0201" clip-path="url(#clipPath2)" stroke="rgb(255,153,204)"/>
      <path fill="none" d="M526.41 -254.6115 L435.7839 -254.6115" clip-path="url(#clipPath2)" stroke="yellow"/>
      <path fill="none" d="M438.1354 -265.1797 L524.0505 -265.1797" clip-path="url(#clipPath2)" stroke="rgb(153,0,153)"/>
      <path fill="none" d="M549.0536 -391.3074 L549.0536 -290.1827" clip-path="url(#clipPath2)" stroke="black"/>
      <path fill="none" d="M549.0536 -240.1614 L549.0536 -113.1905 L419.7779 -113.1905" clip-path="url(#clipPath2)" stroke="yellow"/>
      <path fill="none" d="M549.0536 -240.1767 L549.0536 -234.5672 L641.1219 -234.5672 L641.1219 -142.7294 L708.1873 -142.7294" clip-path="url(#clipPath2)" stroke="rgb(255,153,204)"/>
      <path fill="none" d="M574.0566 -265.1797 L585.417 -265.1797 L585.417 -93.1905" clip-path="url(#clipPath2)" stroke="rgb(153,0,153)"/>
    </g>
  </g>
</svg>
