<?xml version="1.0" encoding="UTF-8"?><svg xmlns="http://www.w3.org/2000/svg" xmlns:xlink="http://www.w3.org/1999/xlink" fill-opacity="1" color-rendering="auto" color-interpolation="auto" text-rendering="auto" stroke="black" stroke-linecap="square" width="1025" stroke-miterlimit="10" shape-rendering="auto" stroke-opacity="1" fill="black" stroke-dasharray="none" font-weight="normal" stroke-width="1" height="869" font-family="'Dialog'" font-style="normal" stroke-linejoin="miter" font-size="12px" stroke-dashoffset="0" image-rendering="auto">
  <!--Generated by ySVG 2.5-->
  <defs id="genericDefs"/>
  <g>
    <defs id="defs1">
      <clipPath clipPathUnits="userSpaceOnUse" id="clipPath1">
        <path d="M0 0 L1025 0 L1025 869 L0 869 L0 0 Z"/>
      </clipPath>
      <clipPath clipPathUnits="userSpaceOnUse" id="clipPath2">
        <path d="M-109 -213 L916 -213 L916 656 L-109 656 L-109 -213 Z"/>
      </clipPath>
    </defs>
    <g fill="white" text-rendering="geometricPrecision" shape-rendering="geometricPrecision" transform="translate(109,213)" stroke="white">
      <rect x="-109" width="1025" height="869" y="-213" clip-path="url(#clipPath2)" stroke="none"/>
    </g>
    <g fill="rgb(247,36,106)" text-rendering="geometricPrecision" shape-rendering="geometricPrecision" transform="matrix(1,0,0,1,109,213)" stroke="rgb(247,36,106)">
      <circle r="30" clip-path="url(#clipPath2)" cx="50" cy="-70.4018" stroke="none"/>
    </g>
    <g text-rendering="geometricPrecision" stroke-miterlimit="1.45" shape-rendering="geometricPrecision" font-family="'Monaco'" transform="matrix(1,0,0,1,109,213)" stroke-linecap="butt">
      <text x="42.7988" xml:space="preserve" y="-65.9018" clip-path="url(#clipPath2)" stroke="none">N2</text>
    </g>
    <g fill="rgb(247,36,106)" text-rendering="geometricPrecision" shape-rendering="geometricPrecision" transform="matrix(1,0,0,1,109,213)" stroke="rgb(247,36,106)">
      <circle r="30" clip-path="url(#clipPath2)" cx="132" cy="-167.4018" stroke="none"/>
    </g>
    <g text-rendering="geometricPrecision" stroke-miterlimit="1.45" shape-rendering="geometricPrecision" font-family="'Monaco'" transform="matrix(1,0,0,1,109,213)" stroke-linecap="butt">
      <text x="124.7988" xml:space="preserve" y="-162.9019" clip-path="url(#clipPath2)" stroke="none">N5</text>
    </g>
    <g fill="rgb(247,36,106)" text-rendering="geometricPrecision" shape-rendering="geometricPrecision" transform="matrix(1,0,0,1,109,213)" stroke="rgb(247,36,106)">
      <circle r="30" clip-path="url(#clipPath2)" cx="-6" cy="67.5982" stroke="none"/>
    </g>
    <g text-rendering="geometricPrecision" stroke-miterlimit="1.45" shape-rendering="geometricPrecision" font-family="'Monaco'" transform="matrix(1,0,0,1,109,213)" stroke-linecap="butt">
      <text x="-13.2012" xml:space="preserve" y="72.0982" clip-path="url(#clipPath2)" stroke="none">N4</text>
    </g>
    <g fill="rgb(247,36,106)" text-rendering="geometricPrecision" shape-rendering="geometricPrecision" transform="matrix(1,0,0,1,109,213)" stroke="rgb(247,36,106)">
      <circle r="30" clip-path="url(#clipPath2)" cx="94" cy="19.5982" stroke="none"/>
    </g>
    <g text-rendering="geometricPrecision" stroke-miterlimit="1.45" shape-rendering="geometricPrecision" font-family="'Monaco'" transform="matrix(1,0,0,1,109,213)" stroke-linecap="butt">
      <text x="86.7988" xml:space="preserve" y="24.0982" clip-path="url(#clipPath2)" stroke="none">N3</text>
    </g>
    <g fill="rgb(247,36,106)" text-rendering="geometricPrecision" shape-rendering="geometricPrecision" transform="matrix(1,0,0,1,109,213)" stroke="rgb(247,36,106)">
      <circle r="30" clip-path="url(#clipPath2)" cx="214" cy="-70.4018" stroke="none"/>
    </g>
    <g text-rendering="geometricPrecision" stroke-miterlimit="1.45" shape-rendering="geometricPrecision" font-family="'Monaco'" transform="matrix(1,0,0,1,109,213)" stroke-linecap="butt">
      <text x="206.7988" xml:space="preserve" y="-65.9018" clip-path="url(#clipPath2)" stroke="none">N6</text>
    </g>
    <g fill="rgb(247,36,106)" text-rendering="geometricPrecision" shape-rendering="geometricPrecision" transform="matrix(1,0,0,1,109,213)" stroke="rgb(247,36,106)">
      <circle r="30" clip-path="url(#clipPath2)" cx="-64" cy="-131.4018" stroke="none"/>
    </g>
    <g text-rendering="geometricPrecision" stroke-miterlimit="1.45" shape-rendering="geometricPrecision" font-family="'Monaco'" transform="matrix(1,0,0,1,109,213)" stroke-linecap="butt">
      <text x="-71.2012" xml:space="preserve" y="-126.9018" clip-path="url(#clipPath2)" stroke="none">N1</text>
    </g>
    <g fill="rgb(247,36,106)" text-rendering="geometricPrecision" shape-rendering="geometricPrecision" transform="matrix(1,0,0,1,109,213)" stroke="rgb(247,36,106)">
      <circle r="30" clip-path="url(#clipPath2)" cx="214" cy="61.5982" stroke="none"/>
    </g>
    <g text-rendering="geometricPrecision" stroke-miterlimit="1.45" shape-rendering="geometricPrecision" font-family="'Monaco'" transform="matrix(1,0,0,1,109,213)" stroke-linecap="butt">
      <text x="206.7988" xml:space="preserve" y="66.0982" clip-path="url(#clipPath2)" stroke="none">N7</text>
    </g>
    <g fill="rgb(247,36,106)" text-rendering="geometricPrecision" shape-rendering="geometricPrecision" transform="matrix(1,0,0,1,109,213)" stroke="rgb(247,36,106)">
      <circle r="30" clip-path="url(#clipPath2)" cx="351" cy="-131.4018" stroke="none"/>
    </g>
    <g text-rendering="geometricPrecision" stroke-miterlimit="1.45" shape-rendering="geometricPrecision" font-family="'Monaco'" transform="matrix(1,0,0,1,109,213)" stroke-linecap="butt">
      <text x="343.7988" xml:space="preserve" y="-126.9018" clip-path="url(#clipPath2)" stroke="none">N9</text>
    </g>
    <g fill="rgb(247,36,106)" text-rendering="geometricPrecision" shape-rendering="geometricPrecision" transform="matrix(1,0,0,1,109,213)" stroke="rgb(247,36,106)">
      <circle r="30" clip-path="url(#clipPath2)" cx="314" cy="-20.4018" stroke="none"/>
    </g>
    <g text-rendering="geometricPrecision" stroke-miterlimit="1.45" shape-rendering="geometricPrecision" font-family="'Monaco'" transform="matrix(1,0,0,1,109,213)" stroke-linecap="butt">
      <text x="306.7988" xml:space="preserve" y="-15.9018" clip-path="url(#clipPath2)" stroke="none">N8</text>
    </g>
    <g fill="silver" text-rendering="geometricPrecision" shape-rendering="geometricPrecision" transform="matrix(1,0,0,1,109,213)" stroke="silver">
      <circle r="30" clip-path="url(#clipPath2)" cx="570" cy="-70.4018" stroke="none"/>
    </g>
    <g text-rendering="geometricPrecision" stroke-miterlimit="1.45" shape-rendering="geometricPrecision" font-family="'Monaco'" transform="matrix(1,0,0,1,109,213)" stroke-linecap="butt">
      <text x="562.7988" xml:space="preserve" y="-65.9018" clip-path="url(#clipPath2)" stroke="none">N2</text>
    </g>
    <g fill="rgb(247,36,106)" text-rendering="geometricPrecision" shape-rendering="geometricPrecision" transform="matrix(1,0,0,1,109,213)" stroke="rgb(247,36,106)">
      <circle r="30" clip-path="url(#clipPath2)" cx="652" cy="-167.4018" stroke="none"/>
    </g>
    <g text-rendering="geometricPrecision" stroke-miterlimit="1.45" shape-rendering="geometricPrecision" font-family="'Monaco'" transform="matrix(1,0,0,1,109,213)" stroke-linecap="butt">
      <text x="644.7988" xml:space="preserve" y="-162.9019" clip-path="url(#clipPath2)" stroke="none">N5</text>
    </g>
    <g fill="rgb(247,36,106)" text-rendering="geometricPrecision" shape-rendering="geometricPrecision" transform="matrix(1,0,0,1,109,213)" stroke="rgb(247,36,106)">
      <circle r="30" clip-path="url(#clipPath2)" cx="514" cy="67.5982" stroke="none"/>
    </g>
    <g text-rendering="geometricPrecision" stroke-miterlimit="1.45" shape-rendering="geometricPrecision" font-family="'Monaco'" transform="matrix(1,0,0,1,109,213)" stroke-linecap="butt">
      <text x="506.7988" xml:space="preserve" y="72.0982" clip-path="url(#clipPath2)" stroke="none">N4</text>
    </g>
    <g fill="rgb(247,36,106)" text-rendering="geometricPrecision" shape-rendering="geometricPrecision" transform="matrix(1,0,0,1,109,213)" stroke="rgb(247,36,106)">
      <circle r="30" clip-path="url(#clipPath2)" cx="614" cy="19.5982" stroke="none"/>
    </g>
    <g text-rendering="geometricPrecision" stroke-miterlimit="1.45" shape-rendering="geometricPrecision" font-family="'Monaco'" transform="matrix(1,0,0,1,109,213)" stroke-linecap="butt">
      <text x="606.7988" xml:space="preserve" y="24.0982" clip-path="url(#clipPath2)" stroke="none">N3</text>
    </g>
    <g fill="rgb(247,36,106)" text-rendering="geometricPrecision" shape-rendering="geometricPrecision" transform="matrix(1,0,0,1,109,213)" stroke="rgb(247,36,106)">
      <circle r="30" clip-path="url(#clipPath2)" cx="734" cy="-70.4018" stroke="none"/>
    </g>
    <g text-rendering="geometricPrecision" stroke-miterlimit="1.45" shape-rendering="geometricPrecision" font-family="'Monaco'" transform="matrix(1,0,0,1,109,213)" stroke-linecap="butt">
      <text x="726.7988" xml:space="preserve" y="-65.9018" clip-path="url(#clipPath2)" stroke="none">N6</text>
    </g>
    <g fill="silver" text-rendering="geometricPrecision" shape-rendering="geometricPrecision" transform="matrix(1,0,0,1,109,213)" stroke="silver">
      <circle r="30" clip-path="url(#clipPath2)" cx="456" cy="-131.4018" stroke="none"/>
    </g>
    <g text-rendering="geometricPrecision" stroke-miterlimit="1.45" shape-rendering="geometricPrecision" font-family="'Monaco'" transform="matrix(1,0,0,1,109,213)" stroke-linecap="butt">
      <text x="448.7988" xml:space="preserve" y="-126.9018" clip-path="url(#clipPath2)" stroke="none">N1</text>
    </g>
    <g fill="rgb(247,36,106)" text-rendering="geometricPrecision" shape-rendering="geometricPrecision" transform="matrix(1,0,0,1,109,213)" stroke="rgb(247,36,106)">
      <circle r="30" clip-path="url(#clipPath2)" cx="734" cy="61.5982" stroke="none"/>
    </g>
    <g text-rendering="geometricPrecision" stroke-miterlimit="1.45" shape-rendering="geometricPrecision" font-family="'Monaco'" transform="matrix(1,0,0,1,109,213)" stroke-linecap="butt">
      <text x="726.7988" xml:space="preserve" y="66.0982" clip-path="url(#clipPath2)" stroke="none">N7</text>
    </g>
    <g fill="silver" text-rendering="geometricPrecision" shape-rendering="geometricPrecision" transform="matrix(1,0,0,1,109,213)" stroke="silver">
      <circle r="30" clip-path="url(#clipPath2)" cx="871" cy="-131.4018" stroke="none"/>
    </g>
    <g text-rendering="geometricPrecision" stroke-miterlimit="1.45" shape-rendering="geometricPrecision" font-family="'Monaco'" transform="matrix(1,0,0,1,109,213)" stroke-linecap="butt">
      <text x="863.7988" xml:space="preserve" y="-126.9018" clip-path="url(#clipPath2)" stroke="none">N9</text>
    </g>
    <g fill="rgb(247,36,106)" text-rendering="geometricPrecision" shape-rendering="geometricPrecision" transform="matrix(1,0,0,1,109,213)" stroke="rgb(247,36,106)">
      <circle r="30" clip-path="url(#clipPath2)" cx="834" cy="-20.4018" stroke="none"/>
    </g>
    <g text-rendering="geometricPrecision" stroke-miterlimit="1.45" shape-rendering="geometricPrecision" font-family="'Monaco'" transform="matrix(1,0,0,1,109,213)" stroke-linecap="butt">
      <text x="826.7988" xml:space="preserve" y="-15.9018" clip-path="url(#clipPath2)" stroke="none">N8</text>
      <text x="112.1968" xml:space="preserve" font-size="22px" y="143.8481" clip-path="url(#clipPath2)" stroke="none">(a)</text>
      <text x="632.1968" xml:space="preserve" font-size="22px" y="143.8481" clip-path="url(#clipPath2)" stroke="none">(b)</text>
    </g>
    <g fill="silver" text-rendering="geometricPrecision" shape-rendering="geometricPrecision" transform="matrix(1,0,0,1,109,213)" stroke="silver">
      <circle r="30" clip-path="url(#clipPath2)" cx="50" cy="377.6207" stroke="none"/>
    </g>
    <g text-rendering="geometricPrecision" stroke-miterlimit="1.45" shape-rendering="geometricPrecision" font-family="'Monaco'" transform="matrix(1,0,0,1,109,213)" stroke-linecap="butt">
      <text x="42.7988" xml:space="preserve" y="382.1207" clip-path="url(#clipPath2)" stroke="none">N2</text>
    </g>
    <g fill="rgb(247,36,106)" text-rendering="geometricPrecision" shape-rendering="geometricPrecision" transform="matrix(1,0,0,1,109,213)" stroke="rgb(247,36,106)">
      <circle r="30" clip-path="url(#clipPath2)" cx="132" cy="280.6207" stroke="none"/>
    </g>
    <g text-rendering="geometricPrecision" stroke-miterlimit="1.45" shape-rendering="geometricPrecision" font-family="'Monaco'" transform="matrix(1,0,0,1,109,213)" stroke-linecap="butt">
      <text x="124.7988" xml:space="preserve" y="285.1207" clip-path="url(#clipPath2)" stroke="none">N5</text>
    </g>
    <g fill="silver" text-rendering="geometricPrecision" shape-rendering="geometricPrecision" transform="matrix(1,0,0,1,109,213)" stroke="silver">
      <circle r="30" clip-path="url(#clipPath2)" cx="-6" cy="515.6207" stroke="none"/>
    </g>
    <g text-rendering="geometricPrecision" stroke-miterlimit="1.45" shape-rendering="geometricPrecision" font-family="'Monaco'" transform="matrix(1,0,0,1,109,213)" stroke-linecap="butt">
      <text x="-13.2012" xml:space="preserve" y="520.1207" clip-path="url(#clipPath2)" stroke="none">N4</text>
    </g>
    <g fill="rgb(247,36,106)" text-rendering="geometricPrecision" shape-rendering="geometricPrecision" transform="matrix(1,0,0,1,109,213)" stroke="rgb(247,36,106)">
      <circle r="30" clip-path="url(#clipPath2)" cx="94" cy="467.6207" stroke="none"/>
    </g>
    <g text-rendering="geometricPrecision" stroke-miterlimit="1.45" shape-rendering="geometricPrecision" font-family="'Monaco'" transform="matrix(1,0,0,1,109,213)" stroke-linecap="butt">
      <text x="86.7988" xml:space="preserve" y="472.1207" clip-path="url(#clipPath2)" stroke="none">N3</text>
    </g>
    <g fill="silver" text-rendering="geometricPrecision" shape-rendering="geometricPrecision" transform="matrix(1,0,0,1,109,213)" stroke="silver">
      <circle r="30" clip-path="url(#clipPath2)" cx="214" cy="377.6207" stroke="none"/>
    </g>
    <g text-rendering="geometricPrecision" stroke-miterlimit="1.45" shape-rendering="geometricPrecision" font-family="'Monaco'" transform="matrix(1,0,0,1,109,213)" stroke-linecap="butt">
      <text x="206.7988" xml:space="preserve" y="382.1207" clip-path="url(#clipPath2)" stroke="none">N6</text>
    </g>
    <g fill="silver" text-rendering="geometricPrecision" shape-rendering="geometricPrecision" transform="matrix(1,0,0,1,109,213)" stroke="silver">
      <circle r="30" clip-path="url(#clipPath2)" cx="-64" cy="316.6207" stroke="none"/>
    </g>
    <g text-rendering="geometricPrecision" stroke-miterlimit="1.45" shape-rendering="geometricPrecision" font-family="'Monaco'" transform="matrix(1,0,0,1,109,213)" stroke-linecap="butt">
      <text x="-71.2012" xml:space="preserve" y="321.1207" clip-path="url(#clipPath2)" stroke="none">N1</text>
    </g>
    <g fill="silver" text-rendering="geometricPrecision" shape-rendering="geometricPrecision" transform="matrix(1,0,0,1,109,213)" stroke="silver">
      <circle r="30" clip-path="url(#clipPath2)" cx="214" cy="509.6207" stroke="none"/>
    </g>
    <g text-rendering="geometricPrecision" stroke-miterlimit="1.45" shape-rendering="geometricPrecision" font-family="'Monaco'" transform="matrix(1,0,0,1,109,213)" stroke-linecap="butt">
      <text x="206.7988" xml:space="preserve" y="514.1207" clip-path="url(#clipPath2)" stroke="none">N7</text>
    </g>
    <g fill="silver" text-rendering="geometricPrecision" shape-rendering="geometricPrecision" transform="matrix(1,0,0,1,109,213)" stroke="silver">
      <circle r="30" clip-path="url(#clipPath2)" cx="351" cy="316.6207" stroke="none"/>
    </g>
    <g text-rendering="geometricPrecision" stroke-miterlimit="1.45" shape-rendering="geometricPrecision" font-family="'Monaco'" transform="matrix(1,0,0,1,109,213)" stroke-linecap="butt">
      <text x="343.7988" xml:space="preserve" y="321.1207" clip-path="url(#clipPath2)" stroke="none">N9</text>
    </g>
    <g fill="rgb(247,36,106)" text-rendering="geometricPrecision" shape-rendering="geometricPrecision" transform="matrix(1,0,0,1,109,213)" stroke="rgb(247,36,106)">
      <circle r="30" clip-path="url(#clipPath2)" cx="314" cy="427.6207" stroke="none"/>
    </g>
    <g text-rendering="geometricPrecision" stroke-miterlimit="1.45" shape-rendering="geometricPrecision" font-family="'Monaco'" transform="matrix(1,0,0,1,109,213)" stroke-linecap="butt">
      <text x="306.7988" xml:space="preserve" y="432.1207" clip-path="url(#clipPath2)" stroke="none">N8</text>
    </g>
    <g fill="silver" text-rendering="geometricPrecision" shape-rendering="geometricPrecision" transform="matrix(1,0,0,1,109,213)" stroke="silver">
      <circle r="30" clip-path="url(#clipPath2)" cx="570" cy="377.6207" stroke="none"/>
    </g>
    <g text-rendering="geometricPrecision" stroke-miterlimit="1.45" shape-rendering="geometricPrecision" font-family="'Monaco'" transform="matrix(1,0,0,1,109,213)" stroke-linecap="butt">
      <text x="562.7988" xml:space="preserve" y="382.1207" clip-path="url(#clipPath2)" stroke="none">N2</text>
    </g>
    <g fill="silver" text-rendering="geometricPrecision" shape-rendering="geometricPrecision" transform="matrix(1,0,0,1,109,213)" stroke="silver">
      <circle r="30" clip-path="url(#clipPath2)" cx="652" cy="280.6207" stroke="none"/>
    </g>
    <g text-rendering="geometricPrecision" stroke-miterlimit="1.45" shape-rendering="geometricPrecision" font-family="'Monaco'" transform="matrix(1,0,0,1,109,213)" stroke-linecap="butt">
      <text x="644.7988" xml:space="preserve" y="285.1207" clip-path="url(#clipPath2)" stroke="none">N5</text>
    </g>
    <g fill="silver" text-rendering="geometricPrecision" shape-rendering="geometricPrecision" transform="matrix(1,0,0,1,109,213)" stroke="silver">
      <circle r="30" clip-path="url(#clipPath2)" cx="514" cy="515.6207" stroke="none"/>
    </g>
    <g text-rendering="geometricPrecision" stroke-miterlimit="1.45" shape-rendering="geometricPrecision" font-family="'Monaco'" transform="matrix(1,0,0,1,109,213)" stroke-linecap="butt">
      <text x="506.7988" xml:space="preserve" y="520.1207" clip-path="url(#clipPath2)" stroke="none">N4</text>
    </g>
    <g fill="silver" text-rendering="geometricPrecision" shape-rendering="geometricPrecision" transform="matrix(1,0,0,1,109,213)" stroke="silver">
      <circle r="30" clip-path="url(#clipPath2)" cx="614" cy="467.6207" stroke="none"/>
    </g>
    <g text-rendering="geometricPrecision" stroke-miterlimit="1.45" shape-rendering="geometricPrecision" font-family="'Monaco'" transform="matrix(1,0,0,1,109,213)" stroke-linecap="butt">
      <text x="606.7988" xml:space="preserve" y="472.1207" clip-path="url(#clipPath2)" stroke="none">N3</text>
    </g>
    <g fill="silver" text-rendering="geometricPrecision" shape-rendering="geometricPrecision" transform="matrix(1,0,0,1,109,213)" stroke="silver">
      <circle r="30" clip-path="url(#clipPath2)" cx="734" cy="377.6207" stroke="none"/>
    </g>
    <g text-rendering="geometricPrecision" stroke-miterlimit="1.45" shape-rendering="geometricPrecision" font-family="'Monaco'" transform="matrix(1,0,0,1,109,213)" stroke-linecap="butt">
      <text x="726.7988" xml:space="preserve" y="382.1207" clip-path="url(#clipPath2)" stroke="none">N6</text>
    </g>
    <g fill="silver" text-rendering="geometricPrecision" shape-rendering="geometricPrecision" transform="matrix(1,0,0,1,109,213)" stroke="silver">
      <circle r="30" clip-path="url(#clipPath2)" cx="456" cy="316.6207" stroke="none"/>
    </g>
    <g text-rendering="geometricPrecision" stroke-miterlimit="1.45" shape-rendering="geometricPrecision" font-family="'Monaco'" transform="matrix(1,0,0,1,109,213)" stroke-linecap="butt">
      <text x="448.7988" xml:space="preserve" y="321.1207" clip-path="url(#clipPath2)" stroke="none">N1</text>
    </g>
    <g fill="silver" text-rendering="geometricPrecision" shape-rendering="geometricPrecision" transform="matrix(1,0,0,1,109,213)" stroke="silver">
      <circle r="30" clip-path="url(#clipPath2)" cx="734" cy="509.6207" stroke="none"/>
    </g>
    <g text-rendering="geometricPrecision" stroke-miterlimit="1.45" shape-rendering="geometricPrecision" font-family="'Monaco'" transform="matrix(1,0,0,1,109,213)" stroke-linecap="butt">
      <text x="726.7988" xml:space="preserve" y="514.1207" clip-path="url(#clipPath2)" stroke="none">N7</text>
    </g>
    <g fill="silver" text-rendering="geometricPrecision" shape-rendering="geometricPrecision" transform="matrix(1,0,0,1,109,213)" stroke="silver">
      <circle r="30" clip-path="url(#clipPath2)" cx="871" cy="316.6207" stroke="none"/>
    </g>
    <g text-rendering="geometricPrecision" stroke-miterlimit="1.45" shape-rendering="geometricPrecision" font-family="'Monaco'" transform="matrix(1,0,0,1,109,213)" stroke-linecap="butt">
      <text x="863.7988" xml:space="preserve" y="321.1207" clip-path="url(#clipPath2)" stroke="none">N9</text>
    </g>
    <g fill="silver" text-rendering="geometricPrecision" shape-rendering="geometricPrecision" transform="matrix(1,0,0,1,109,213)" stroke="silver">
      <circle r="30" clip-path="url(#clipPath2)" cx="834" cy="427.6207" stroke="none"/>
    </g>
    <g text-rendering="geometricPrecision" stroke-miterlimit="1.45" shape-rendering="geometricPrecision" font-family="'Monaco'" transform="matrix(1,0,0,1,109,213)" stroke-linecap="butt">
      <text x="826.7988" xml:space="preserve" y="432.1207" clip-path="url(#clipPath2)" stroke="none">N8</text>
      <text x="112.1968" xml:space="preserve" font-size="22px" y="591.8707" clip-path="url(#clipPath2)" stroke="none">(c)</text>
      <text x="632.1968" xml:space="preserve" font-size="22px" y="591.8707" clip-path="url(#clipPath2)" stroke="none">(d)</text>
      <text x="102.8545" font-size="22px" y="169.5952" clip-path="url(#clipPath2)" font-family="'Bitstream Charter'" stroke="none" xml:space="preserve">Φ = 1</text>
      <text x="613.6805" font-size="22px" y="169.5952" clip-path="url(#clipPath2)" font-family="'Bitstream Charter'" stroke="none" xml:space="preserve">Φ = 0,7</text>
      <text x="93.6805" font-size="22px" y="618.2242" clip-path="url(#clipPath2)" font-family="'Bitstream Charter'" stroke="none" xml:space="preserve">Φ = 0,3</text>
      <text x="622.8545" font-size="22px" y="618.2242" clip-path="url(#clipPath2)" font-family="'Bitstream Charter'" stroke="none" xml:space="preserve">Φ = 0</text>
      <path fill="none" d="M69.3677 -93.3124 L112.6323 -144.4913" stroke-width="3" clip-path="url(#clipPath2)"/>
      <path fill="none" d="M38.7195 -42.6035 L5.2805 39.7998" stroke-width="3" clip-path="url(#clipPath2)"/>
      <path fill="none" d="M21.0457 54.6162 L66.9543 32.5801" stroke-width="3" clip-path="url(#clipPath2)"/>
      <path fill="none" d="M80.8237 -7.3534 L63.1763 -43.4503" stroke-width="3" clip-path="url(#clipPath2)"/>
      <path fill="none" d="M151.3677 -144.4913 L194.6323 -93.3124" stroke-width="3" clip-path="url(#clipPath2)"/>
      <path fill="none" d="M118 1.5982 L190 -52.4018" stroke-width="3" clip-path="url(#clipPath2)"/>
      <path fill="none" d="M-37.5487 -117.2481 L23.5487 -84.5556" stroke-width="3" clip-path="url(#clipPath2)"/>
      <path fill="none" d="M-55.6056 -102.6002 L-14.3944 38.7965" stroke-width="3" clip-path="url(#clipPath2)"/>
      <path fill="none" d="M214 31.5982 L214 -40.4018" stroke-width="3" clip-path="url(#clipPath2)"/>
      <path fill="none" d="M161.6027 -162.5356 L321.3973 -136.2681" stroke-width="3" clip-path="url(#clipPath2)"/>
      <path fill="none" d="M240.8328 -56.9854 L287.1672 -33.8183" stroke-width="3" clip-path="url(#clipPath2)"/>
      <path fill="none" d="M341.5132 -102.9414 L323.4868 -48.8623" stroke-width="3" clip-path="url(#clipPath2)"/>
      <path fill="none" d="M237.198 42.5758 L290.802 -1.3795" stroke-width="3" clip-path="url(#clipPath2)"/>
    </g>
    <g stroke-linecap="round" transform="matrix(1,0,0,1,109,213)" stroke-dashoffset="2" fill="silver" text-rendering="geometricPrecision" shape-rendering="geometricPrecision" stroke-dasharray="0,16" stroke="silver" stroke-width="4" stroke-miterlimit="1.45">
      <path fill="none" d="M589.3677 -93.3124 L632.6323 -144.4913" clip-path="url(#clipPath2)"/>
      <path fill="none" d="M558.7195 -42.6035 L525.2805 39.7998" clip-path="url(#clipPath2)"/>
    </g>
    <g text-rendering="geometricPrecision" stroke-miterlimit="1.45" stroke-width="3" shape-rendering="geometricPrecision" transform="matrix(1,0,0,1,109,213)" stroke-linecap="butt">
      <path fill="none" d="M541.0457 54.6162 L586.9543 32.5801" clip-path="url(#clipPath2)"/>
    </g>
    <g stroke-linecap="round" transform="matrix(1,0,0,1,109,213)" stroke-dashoffset="2" fill="silver" text-rendering="geometricPrecision" shape-rendering="geometricPrecision" stroke-dasharray="0,12" stroke="silver" stroke-width="3" stroke-miterlimit="1.45">
      <path fill="none" d="M600.8237 -7.3534 L583.1763 -43.4503" clip-path="url(#clipPath2)"/>
    </g>
    <g text-rendering="geometricPrecision" stroke-miterlimit="1.45" stroke-width="2" shape-rendering="geometricPrecision" transform="matrix(1,0,0,1,109,213)" stroke-linecap="butt">
      <path fill="none" d="M671.3677 -144.4913 L714.6323 -93.3124" clip-path="url(#clipPath2)"/>
      <path fill="none" d="M638 1.5982 L710 -52.4018" stroke-width="3" clip-path="url(#clipPath2)"/>
    </g>
    <g stroke-linecap="round" transform="matrix(1,0,0,1,109,213)" stroke-dashoffset="2" fill="silver" text-rendering="geometricPrecision" shape-rendering="geometricPrecision" stroke-dasharray="0,12" stroke="silver" stroke-width="3" stroke-miterlimit="1.45">
      <path fill="none" d="M482.4513 -117.2481 L543.5487 -84.5556" clip-path="url(#clipPath2)"/>
      <path fill="none" stroke-dasharray="0,16" d="M464.3944 -102.6002 L505.6056 38.7965" stroke-width="4" clip-path="url(#clipPath2)"/>
    </g>
    <g text-rendering="geometricPrecision" stroke-miterlimit="1.45" stroke-width="3" shape-rendering="geometricPrecision" transform="matrix(1,0,0,1,109,213)" stroke-linecap="butt">
      <path fill="none" d="M734 31.5982 L734 -40.4018" clip-path="url(#clipPath2)"/>
    </g>
    <g stroke-linecap="round" transform="matrix(1,0,0,1,109,213)" stroke-dashoffset="2" fill="silver" text-rendering="geometricPrecision" shape-rendering="geometricPrecision" stroke-dasharray="0,16" stroke="silver" stroke-width="4" stroke-miterlimit="1.45">
      <path fill="none" d="M681.6027 -162.5356 L841.3973 -136.2681" clip-path="url(#clipPath2)"/>
    </g>
    <g text-rendering="geometricPrecision" stroke-miterlimit="1.45" stroke-width="3" shape-rendering="geometricPrecision" transform="matrix(1,0,0,1,109,213)" stroke-linecap="butt">
      <path fill="none" d="M760.8328 -56.9854 L807.1672 -33.8183" clip-path="url(#clipPath2)"/>
    </g>
    <g stroke-linecap="round" transform="matrix(1,0,0,1,109,213)" stroke-dashoffset="2" fill="silver" text-rendering="geometricPrecision" shape-rendering="geometricPrecision" stroke-dasharray="0,12" stroke="silver" stroke-width="3" stroke-miterlimit="1.45">
      <path fill="none" d="M861.5132 -102.9414 L843.4868 -48.8623" clip-path="url(#clipPath2)"/>
    </g>
    <g text-rendering="geometricPrecision" stroke-miterlimit="1.45" stroke-width="3" shape-rendering="geometricPrecision" transform="matrix(1,0,0,1,109,213)" stroke-linecap="butt">
      <path fill="none" d="M757.1981 42.5758 L810.8019 -1.3795" clip-path="url(#clipPath2)"/>
    </g>
    <g stroke-linecap="round" transform="matrix(1,0,0,1,109,213)" stroke-dashoffset="2" fill="silver" text-rendering="geometricPrecision" shape-rendering="geometricPrecision" stroke-dasharray="0,16" stroke="silver" stroke-width="4" stroke-miterlimit="1.45">
      <path fill="none" d="M69.3677 354.7102 L112.6323 303.5313" clip-path="url(#clipPath2)"/>
      <path fill="none" d="M38.7195 405.4191 L5.2805 487.8223" clip-path="url(#clipPath2)"/>
      <path fill="none" d="M21.0457 502.6388 L66.9543 480.6027" clip-path="url(#clipPath2)"/>
      <path fill="none" d="M80.8237 440.6692 L63.1763 404.5723" clip-path="url(#clipPath2)"/>
      <path fill="none" d="M151.3677 303.5313 L194.6323 354.7102" clip-path="url(#clipPath2)"/>
      <path fill="none" d="M118 449.6207 L190 395.6207" clip-path="url(#clipPath2)"/>
      <path fill="none" d="M-37.5487 330.7745 L23.5487 363.4669" clip-path="url(#clipPath2)"/>
      <path fill="none" d="M-55.6056 345.4223 L-14.3944 486.8191" clip-path="url(#clipPath2)"/>
      <path fill="none" d="M214 479.6207 L214 407.6207" clip-path="url(#clipPath2)"/>
      <path fill="none" d="M161.6027 285.4869 L321.3973 311.7545" clip-path="url(#clipPath2)"/>
      <path fill="none" d="M240.8328 391.0371 L287.1672 414.2043" clip-path="url(#clipPath2)"/>
      <path fill="none" d="M341.5132 345.0812 L323.4868 399.1602" clip-path="url(#clipPath2)"/>
      <path fill="none" d="M237.198 490.5983 L290.802 446.6431" clip-path="url(#clipPath2)"/>
      <path fill="none" d="M589.3677 354.7102 L632.6323 303.5313" clip-path="url(#clipPath2)"/>
      <path fill="none" d="M558.7195 405.4191 L525.2805 487.8223" clip-path="url(#clipPath2)"/>
      <path fill="none" d="M541.0457 502.6388 L586.9543 480.6027" clip-path="url(#clipPath2)"/>
      <path fill="none" stroke-dasharray="0,12" d="M600.8237 440.6692 L583.1763 404.5723" stroke-width="3" clip-path="url(#clipPath2)"/>
      <path fill="none" stroke-dasharray="0,12" d="M671.3677 303.5313 L714.6323 354.7102" stroke-width="3" clip-path="url(#clipPath2)"/>
      <path fill="none" d="M638 449.6207 L710 395.6207" clip-path="url(#clipPath2)"/>
      <path fill="none" stroke-dasharray="0,12" d="M482.4513 330.7745 L543.5487 363.4669" stroke-width="3" clip-path="url(#clipPath2)"/>
      <path fill="none" d="M464.3944 345.4223 L505.6056 486.8191" clip-path="url(#clipPath2)"/>
      <path fill="none" d="M734 479.6207 L734 407.6207" clip-path="url(#clipPath2)"/>
      <path fill="none" d="M681.6027 285.4869 L841.3973 311.7545" clip-path="url(#clipPath2)"/>
      <path fill="none" d="M760.8328 391.0371 L807.1672 414.2043" clip-path="url(#clipPath2)"/>
      <path fill="none" stroke-dasharray="0,12" d="M861.5132 345.0812 L843.4868 399.1602" stroke-width="3" clip-path="url(#clipPath2)"/>
      <path fill="none" d="M757.1981 490.5983 L810.8019 446.6431" clip-path="url(#clipPath2)"/>
    </g>
  </g>
</svg>
