<?xml version="1.0" encoding="UTF-8"?><svg xmlns="http://www.w3.org/2000/svg" xmlns:xlink="http://www.w3.org/1999/xlink" fill-opacity="1" color-rendering="auto" color-interpolation="auto" text-rendering="auto" stroke="black" stroke-linecap="square" width="481" stroke-miterlimit="10" shape-rendering="auto" stroke-opacity="1" fill="black" stroke-dasharray="none" font-weight="normal" stroke-width="1" height="475" font-family="'Dialog'" font-style="normal" stroke-linejoin="miter" font-size="12px" stroke-dashoffset="0" image-rendering="auto">
  <!--Generated by ySVG 2.5-->
  <defs id="genericDefs"/>
  <g>
    <defs id="defs1">
      <clipPath clipPathUnits="userSpaceOnUse" id="clipPath1">
        <path d="M0 0 L481 0 L481 475 L0 475 L0 0 Z"/>
      </clipPath>
      <clipPath clipPathUnits="userSpaceOnUse" id="clipPath2">
        <path d="M169 -11 L650 -11 L650 464 L169 464 L169 -11 Z"/>
      </clipPath>
    </defs>
    <g fill="rgb(51,102,255)" text-rendering="geometricPrecision" shape-rendering="geometricPrecision" transform="matrix(1,0,0,1,-169,11)" stroke="rgb(51,102,255)">
      <circle r="30" clip-path="url(#clipPath2)" cx="386" cy="34" stroke="none"/>
    </g>
    <g stroke-linecap="butt" transform="matrix(1,0,0,1,-169,11)" fill="white" text-rendering="geometricPrecision" font-family="'Monaco'" shape-rendering="geometricPrecision" stroke="white" stroke-miterlimit="1.45">
      <text x="378.7988" xml:space="preserve" y="38.5" clip-path="url(#clipPath2)" stroke="none">N1</text>
    </g>
    <g fill="rgb(179,211,19)" text-rendering="geometricPrecision" shape-rendering="geometricPrecision" transform="matrix(1,0,0,1,-169,11)" stroke="rgb(179,211,19)">
      <circle r="30" clip-path="url(#clipPath2)" cx="255.5" cy="152" stroke="none"/>
    </g>
    <g text-rendering="geometricPrecision" stroke-miterlimit="1.45" shape-rendering="geometricPrecision" font-family="'Monaco'" transform="matrix(1,0,0,1,-169,11)" stroke-linecap="butt">
      <text x="248.2988" xml:space="preserve" y="156.5" clip-path="url(#clipPath2)" stroke="none">N2</text>
    </g>
    <g fill="rgb(179,211,19)" text-rendering="geometricPrecision" shape-rendering="geometricPrecision" transform="matrix(1,0,0,1,-169,11)" stroke="rgb(179,211,19)">
      <circle r="30" clip-path="url(#clipPath2)" cx="304" cy="248" stroke="none"/>
    </g>
    <g text-rendering="geometricPrecision" stroke-miterlimit="1.45" shape-rendering="geometricPrecision" font-family="'Monaco'" transform="matrix(1,0,0,1,-169,11)" stroke-linecap="butt">
      <text x="296.7988" xml:space="preserve" y="252.5" clip-path="url(#clipPath2)" stroke="none">N4</text>
    </g>
    <g fill="rgb(179,211,19)" text-rendering="geometricPrecision" shape-rendering="geometricPrecision" transform="matrix(1,0,0,1,-169,11)" stroke="rgb(179,211,19)">
      <circle r="30" clip-path="url(#clipPath2)" cx="214" cy="248" stroke="none"/>
    </g>
    <g text-rendering="geometricPrecision" stroke-miterlimit="1.45" shape-rendering="geometricPrecision" font-family="'Monaco'" transform="matrix(1,0,0,1,-169,11)" stroke-linecap="butt">
      <text x="206.7988" xml:space="preserve" y="252.5" clip-path="url(#clipPath2)" stroke="none">N5</text>
    </g>
    <g fill="rgb(179,211,19)" text-rendering="geometricPrecision" shape-rendering="geometricPrecision" transform="matrix(1,0,0,1,-169,11)" stroke="rgb(179,211,19)">
      <circle r="30" clip-path="url(#clipPath2)" cx="386" cy="147" stroke="none"/>
    </g>
    <g text-rendering="geometricPrecision" stroke-miterlimit="1.45" shape-rendering="geometricPrecision" font-family="'Monaco'" transform="matrix(1,0,0,1,-169,11)" stroke-linecap="butt">
      <text x="378.7988" xml:space="preserve" y="151.5" clip-path="url(#clipPath2)" stroke="none">N7</text>
    </g>
    <g fill="rgb(179,211,19)" text-rendering="geometricPrecision" shape-rendering="geometricPrecision" transform="matrix(1,0,0,1,-169,11)" stroke="rgb(179,211,19)">
      <circle r="30" clip-path="url(#clipPath2)" cx="548" cy="322" stroke="none"/>
    </g>
    <g text-rendering="geometricPrecision" stroke-miterlimit="1.45" shape-rendering="geometricPrecision" font-family="'Monaco'" transform="matrix(1,0,0,1,-169,11)" stroke-linecap="butt">
      <text x="540.7988" xml:space="preserve" y="326.5" clip-path="url(#clipPath2)" stroke="none">N9</text>
    </g>
    <g fill="rgb(179,211,19)" text-rendering="geometricPrecision" shape-rendering="geometricPrecision" transform="matrix(1,0,0,1,-169,11)" stroke="rgb(179,211,19)">
      <circle r="30" clip-path="url(#clipPath2)" cx="449" cy="322" stroke="none"/>
    </g>
    <g text-rendering="geometricPrecision" stroke-miterlimit="1.45" shape-rendering="geometricPrecision" font-family="'Monaco'" transform="matrix(1,0,0,1,-169,11)" stroke-linecap="butt">
      <text x="441.7988" xml:space="preserve" y="326.5" clip-path="url(#clipPath2)" stroke="none">N8</text>
    </g>
    <g fill="rgb(179,211,19)" text-rendering="geometricPrecision" shape-rendering="geometricPrecision" transform="matrix(1,0,0,1,-169,11)" stroke="rgb(179,211,19)">
      <circle r="30" clip-path="url(#clipPath2)" cx="304" cy="419" stroke="none"/>
    </g>
    <g text-rendering="geometricPrecision" stroke-miterlimit="1.45" shape-rendering="geometricPrecision" font-family="'Monaco'" transform="matrix(1,0,0,1,-169,11)" stroke-linecap="butt">
      <text x="293.1982" xml:space="preserve" y="423.5" clip-path="url(#clipPath2)" stroke="none">N11</text>
    </g>
    <g fill="rgb(179,211,19)" text-rendering="geometricPrecision" shape-rendering="geometricPrecision" transform="matrix(1,0,0,1,-169,11)" stroke="rgb(179,211,19)">
      <circle r="30" clip-path="url(#clipPath2)" cx="350" cy="322" stroke="none"/>
    </g>
    <g text-rendering="geometricPrecision" stroke-miterlimit="1.45" shape-rendering="geometricPrecision" font-family="'Monaco'" transform="matrix(1,0,0,1,-169,11)" stroke-linecap="butt">
      <text x="339.1982" xml:space="preserve" y="326.5" clip-path="url(#clipPath2)" stroke="none">N10</text>
    </g>
    <g fill="rgb(179,211,19)" text-rendering="geometricPrecision" shape-rendering="geometricPrecision" transform="matrix(1,0,0,1,-169,11)" stroke="rgb(179,211,19)">
      <circle r="30" clip-path="url(#clipPath2)" cx="449" cy="248" stroke="none"/>
    </g>
    <g text-rendering="geometricPrecision" stroke-miterlimit="1.45" shape-rendering="geometricPrecision" font-family="'Monaco'" transform="matrix(1,0,0,1,-169,11)" stroke-linecap="butt">
      <text x="441.7988" xml:space="preserve" y="252.5" clip-path="url(#clipPath2)" stroke="none">N6</text>
    </g>
    <g fill="rgb(179,211,19)" text-rendering="geometricPrecision" shape-rendering="geometricPrecision" transform="matrix(1,0,0,1,-169,11)" stroke="rgb(179,211,19)">
      <circle r="30" clip-path="url(#clipPath2)" cx="516.5" cy="147" stroke="none"/>
    </g>
    <g text-rendering="geometricPrecision" stroke-miterlimit="1.45" shape-rendering="geometricPrecision" font-family="'Monaco'" transform="matrix(1,0,0,1,-169,11)" stroke-linecap="butt">
      <text x="509.2988" xml:space="preserve" y="151.5" clip-path="url(#clipPath2)" stroke="none">N3</text>
    </g>
    <g fill="rgb(179,211,19)" text-rendering="geometricPrecision" shape-rendering="geometricPrecision" transform="matrix(1,0,0,1,-169,11)" stroke="rgb(179,211,19)">
      <circle r="30" clip-path="url(#clipPath2)" cx="605" cy="248" stroke="none"/>
    </g>
    <g text-rendering="geometricPrecision" stroke-miterlimit="1.45" shape-rendering="geometricPrecision" font-family="'Monaco'" transform="matrix(1,0,0,1,-169,11)" stroke-linecap="butt">
      <text x="594.1982" xml:space="preserve" y="252.5" clip-path="url(#clipPath2)" stroke="none">N12</text>
      <path fill="none" d="M363.7479 54.1207 L277.7521 131.8793" stroke-width="2" clip-path="url(#clipPath2)"/>
      <path fill="none" d="M269.0279 178.7768 L290.4721 221.2232" stroke-width="2" clip-path="url(#clipPath2)"/>
      <path fill="none" d="M243.5959 179.5371 L225.9041 220.4629" stroke-width="2" clip-path="url(#clipPath2)"/>
      <path fill="none" d="M386 117 L386 64" stroke-width="2" clip-path="url(#clipPath2)"/>
      <path fill="none" d="M316.8546 391.8936 L337.1454 349.1064" stroke-width="2" clip-path="url(#clipPath2)"/>
      <path fill="none" d="M374.0291 304.0388 L424.9709 265.9612" stroke-width="2" clip-path="url(#clipPath2)"/>
      <path fill="none" d="M473.0291 265.9612 L523.9709 304.0388" stroke-width="2" clip-path="url(#clipPath2)"/>
      <path fill="none" d="M449 278 L449 292" stroke-width="2" clip-path="url(#clipPath2)"/>
      <path fill="none" d="M408.6793 53.638 L493.8207 127.362" stroke-width="2" clip-path="url(#clipPath2)"/>
      <path fill="none" d="M499.8305 171.9425 L465.6695 223.0575" stroke-width="2" clip-path="url(#clipPath2)"/>
      <path fill="none" d="M536.2709 169.5635 L585.2291 225.4365" stroke-width="2" clip-path="url(#clipPath2)"/>
    </g>
  </g>
</svg>
