<?xml version="1.0" encoding="UTF-8"?><svg xmlns="http://www.w3.org/2000/svg" xmlns:xlink="http://www.w3.org/1999/xlink" fill-opacity="1" color-rendering="auto" color-interpolation="auto" text-rendering="auto" stroke="black" stroke-linecap="square" width="742" stroke-miterlimit="10" shape-rendering="auto" stroke-opacity="1" fill="black" stroke-dasharray="none" font-weight="normal" stroke-width="1" height="425" font-family="'Dialog'" font-style="normal" stroke-linejoin="miter" font-size="12px" stroke-dashoffset="0" image-rendering="auto">
  <!--Generated by ySVG 2.5-->
  <defs id="genericDefs"/>
  <g>
    <defs id="defs1">
      <clipPath clipPathUnits="userSpaceOnUse" id="clipPath1">
        <path d="M0 0 L742 0 L742 425 L0 425 L0 0 Z"/>
      </clipPath>
      <clipPath clipPathUnits="userSpaceOnUse" id="clipPath2">
        <path d="M38 -192 L780 -192 L780 233 L38 233 L38 -192 Z"/>
      </clipPath>
    </defs>
    <g fill="rgb(0,140,255)" text-rendering="geometricPrecision" shape-rendering="geometricPrecision" transform="matrix(1,0,0,1,-38,192)" stroke="rgb(0,140,255)">
      <circle r="30" clip-path="url(#clipPath2)" cx="383.1057" cy="19.7398" stroke="none"/>
    </g>
    <g text-rendering="geometricPrecision" stroke-miterlimit="1.45" shape-rendering="geometricPrecision" font-family="'Monaco'" transform="matrix(1,0,0,1,-38,192)" stroke-linecap="butt">
      <text x="375.9046" xml:space="preserve" y="24.2398" clip-path="url(#clipPath2)" stroke="none">P1</text>
    </g>
    <g fill="rgb(0,140,255)" text-rendering="geometricPrecision" shape-rendering="geometricPrecision" transform="matrix(1,0,0,1,-38,192)" stroke="rgb(0,140,255)">
      <circle r="30" clip-path="url(#clipPath2)" cx="392.778" cy="-98.1707" stroke="none"/>
    </g>
    <g text-rendering="geometricPrecision" stroke-miterlimit="1.45" shape-rendering="geometricPrecision" font-family="'Monaco'" transform="matrix(1,0,0,1,-38,192)" stroke-linecap="butt">
      <text x="385.5768" xml:space="preserve" y="-93.6707" clip-path="url(#clipPath2)" stroke="none">P2</text>
    </g>
    <g fill="rgb(0,140,255)" text-rendering="geometricPrecision" shape-rendering="geometricPrecision" transform="matrix(1,0,0,1,-38,192)" stroke="rgb(0,140,255)">
      <circle r="30" clip-path="url(#clipPath2)" cx="586.9943" cy="20.6637" stroke="none"/>
    </g>
    <g text-rendering="geometricPrecision" stroke-miterlimit="1.45" shape-rendering="geometricPrecision" font-family="'Monaco'" transform="matrix(1,0,0,1,-38,192)" stroke-linecap="butt">
      <text x="579.7931" xml:space="preserve" y="25.1637" clip-path="url(#clipPath2)" stroke="none">P3</text>
    </g>
    <g fill="rgb(255,0,102)" text-rendering="geometricPrecision" shape-rendering="geometricPrecision" transform="matrix(1,0,0,1,-38,192)" stroke="rgb(255,0,102)">
      <circle r="30" clip-path="url(#clipPath2)" cx="275.4875" cy="-60.1642" stroke="none"/>
    </g>
    <g text-rendering="geometricPrecision" stroke-miterlimit="1.45" shape-rendering="geometricPrecision" font-family="'Monaco'" transform="matrix(1,0,0,1,-38,192)" stroke-linecap="butt">
      <text x="268.2863" xml:space="preserve" y="-55.6642" clip-path="url(#clipPath2)" stroke="none">P4</text>
    </g>
    <g fill="rgb(0,140,255)" text-rendering="geometricPrecision" shape-rendering="geometricPrecision" transform="matrix(1,0,0,1,-38,192)" stroke="rgb(0,140,255)">
      <circle r="30" clip-path="url(#clipPath2)" cx="473.1057" cy="-27.1627" stroke="none"/>
    </g>
    <g text-rendering="geometricPrecision" stroke-miterlimit="1.45" shape-rendering="geometricPrecision" font-family="'Monaco'" transform="matrix(1,0,0,1,-38,192)" stroke-linecap="butt">
      <text x="465.9046" xml:space="preserve" y="-22.6627" clip-path="url(#clipPath2)" stroke="none">P5</text>
    </g>
    <g fill="rgb(0,140,255)" text-rendering="geometricPrecision" shape-rendering="geometricPrecision" transform="matrix(1,0,0,1,-38,192)" stroke="rgb(0,140,255)">
      <circle r="30" clip-path="url(#clipPath2)" cx="718.1528" cy="-44.7147" stroke="none"/>
    </g>
    <g text-rendering="geometricPrecision" stroke-miterlimit="1.45" shape-rendering="geometricPrecision" font-family="'Monaco'" transform="matrix(1,0,0,1,-38,192)" stroke-linecap="butt">
      <text x="710.9516" xml:space="preserve" y="-40.2147" clip-path="url(#clipPath2)" stroke="none">P6</text>
    </g>
    <g fill="rgb(0,140,255)" text-rendering="geometricPrecision" shape-rendering="geometricPrecision" transform="matrix(1,0,0,1,-38,192)" stroke="rgb(0,140,255)">
      <circle r="30" clip-path="url(#clipPath2)" cx="703.3425" cy="26.042" stroke="none"/>
    </g>
    <g text-rendering="geometricPrecision" stroke-miterlimit="1.45" shape-rendering="geometricPrecision" font-family="'Monaco'" transform="matrix(1,0,0,1,-38,192)" stroke-linecap="butt">
      <text x="696.1414" xml:space="preserve" y="30.542" clip-path="url(#clipPath2)" stroke="none">P7</text>
    </g>
    <g fill="rgb(0,140,255)" text-rendering="geometricPrecision" shape-rendering="geometricPrecision" transform="matrix(1,0,0,1,-38,192)" stroke="rgb(0,140,255)">
      <circle r="30" clip-path="url(#clipPath2)" cx="734.8351" cy="97.543" stroke="none"/>
    </g>
    <g text-rendering="geometricPrecision" stroke-miterlimit="1.45" shape-rendering="geometricPrecision" font-family="'Monaco'" transform="matrix(1,0,0,1,-38,192)" stroke-linecap="butt">
      <text x="727.634" xml:space="preserve" y="102.043" clip-path="url(#clipPath2)" stroke="none">P8</text>
    </g>
    <g fill="rgb(0,140,255)" text-rendering="geometricPrecision" shape-rendering="geometricPrecision" transform="matrix(1,0,0,1,-38,192)" stroke="rgb(0,140,255)">
      <circle r="30" clip-path="url(#clipPath2)" cx="563.1057" cy="138.7794" stroke="none"/>
    </g>
    <g text-rendering="geometricPrecision" stroke-miterlimit="1.45" shape-rendering="geometricPrecision" font-family="'Monaco'" transform="matrix(1,0,0,1,-38,192)" stroke-linecap="butt">
      <text x="555.9046" xml:space="preserve" y="143.2794" clip-path="url(#clipPath2)" stroke="none">P9</text>
    </g>
    <g fill="rgb(0,140,255)" text-rendering="geometricPrecision" shape-rendering="geometricPrecision" transform="matrix(1,0,0,1,-38,192)" stroke="rgb(0,140,255)">
      <circle r="30" clip-path="url(#clipPath2)" cx="459.8111" cy="71.2868" stroke="none"/>
    </g>
    <g text-rendering="geometricPrecision" stroke-miterlimit="1.45" shape-rendering="geometricPrecision" font-family="'Monaco'" transform="matrix(1,0,0,1,-38,192)" stroke-linecap="butt">
      <text x="449.0093" xml:space="preserve" y="75.7868" clip-path="url(#clipPath2)" stroke="none">P10</text>
    </g>
    <g fill="rgb(0,140,255)" text-rendering="geometricPrecision" shape-rendering="geometricPrecision" transform="matrix(1,0,0,1,-38,192)" stroke="rgb(0,140,255)">
      <circle r="30" clip-path="url(#clipPath2)" cx="215.4875" cy="56.6756" stroke="none"/>
    </g>
    <g text-rendering="geometricPrecision" stroke-miterlimit="1.45" shape-rendering="geometricPrecision" font-family="'Monaco'" transform="matrix(1,0,0,1,-38,192)" stroke-linecap="butt">
      <text x="204.6858" xml:space="preserve" y="61.1756" clip-path="url(#clipPath2)" stroke="none">P11</text>
    </g>
    <g fill="rgb(0,140,255)" text-rendering="geometricPrecision" shape-rendering="geometricPrecision" transform="matrix(1,0,0,1,-38,192)" stroke="rgb(0,140,255)">
      <circle r="30" clip-path="url(#clipPath2)" cx="156.7641" cy="-118.0801" stroke="none"/>
    </g>
    <g text-rendering="geometricPrecision" stroke-miterlimit="1.45" shape-rendering="geometricPrecision" font-family="'Monaco'" transform="matrix(1,0,0,1,-38,192)" stroke-linecap="butt">
      <text x="145.9624" xml:space="preserve" y="-113.5801" clip-path="url(#clipPath2)" stroke="none">P12</text>
    </g>
    <g fill="rgb(0,140,255)" text-rendering="geometricPrecision" shape-rendering="geometricPrecision" transform="matrix(1,0,0,1,-38,192)" stroke="rgb(0,140,255)">
      <circle r="30" clip-path="url(#clipPath2)" cx="83.638" cy="-9.9136" stroke="none"/>
    </g>
    <g text-rendering="geometricPrecision" stroke-miterlimit="1.45" shape-rendering="geometricPrecision" font-family="'Monaco'" transform="matrix(1,0,0,1,-38,192)" stroke-linecap="butt">
      <text x="72.8362" xml:space="preserve" y="-5.4136" clip-path="url(#clipPath2)" stroke="none">P13</text>
    </g>
    <g fill="rgb(0,140,255)" text-rendering="geometricPrecision" shape-rendering="geometricPrecision" transform="matrix(1,0,0,1,-38,192)" stroke="rgb(0,140,255)">
      <circle r="30" clip-path="url(#clipPath2)" cx="526.9943" cy="-79.6652" stroke="none"/>
    </g>
    <g text-rendering="geometricPrecision" stroke-miterlimit="1.45" shape-rendering="geometricPrecision" font-family="'Monaco'" transform="matrix(1,0,0,1,-38,192)" stroke-linecap="butt">
      <text x="516.1925" xml:space="preserve" y="-75.1652" clip-path="url(#clipPath2)" stroke="none">P14</text>
    </g>
    <g fill="rgb(0,140,255)" text-rendering="geometricPrecision" shape-rendering="geometricPrecision" transform="matrix(1,0,0,1,-38,192)" stroke="rgb(0,140,255)">
      <circle r="30" clip-path="url(#clipPath2)" cx="586.9943" cy="-146.2156" stroke="none"/>
    </g>
    <g text-rendering="geometricPrecision" stroke-miterlimit="1.45" shape-rendering="geometricPrecision" font-family="'Monaco'" transform="matrix(1,0,0,1,-38,192)" stroke-linecap="butt">
      <text x="576.1925" xml:space="preserve" y="-141.7156" clip-path="url(#clipPath2)" stroke="none">P15</text>
    </g>
    <g fill="rgb(0,140,255)" text-rendering="geometricPrecision" shape-rendering="geometricPrecision" transform="matrix(1,0,0,1,-38,192)" stroke="rgb(0,140,255)">
      <circle r="30" clip-path="url(#clipPath2)" cx="637.5686" cy="-63.958" stroke="none"/>
    </g>
    <g text-rendering="geometricPrecision" stroke-miterlimit="1.45" shape-rendering="geometricPrecision" font-family="'Monaco'" transform="matrix(1,0,0,1,-38,192)" stroke-linecap="butt">
      <text x="626.7668" xml:space="preserve" y="-59.458" clip-path="url(#clipPath2)" stroke="none">P16</text>
    </g>
    <g fill="rgb(0,140,255)" text-rendering="geometricPrecision" shape-rendering="geometricPrecision" transform="matrix(1,0,0,1,-38,192)" stroke="rgb(0,140,255)">
      <circle r="30" clip-path="url(#clipPath2)" cx="478.7388" cy="155.6785" stroke="none"/>
    </g>
    <g text-rendering="geometricPrecision" stroke-miterlimit="1.45" shape-rendering="geometricPrecision" font-family="'Monaco'" transform="matrix(1,0,0,1,-38,192)" stroke-linecap="butt">
      <text x="467.937" xml:space="preserve" y="160.1785" clip-path="url(#clipPath2)" stroke="none">P17</text>
    </g>
    <g fill="rgb(0,140,255)" text-rendering="geometricPrecision" shape-rendering="geometricPrecision" transform="matrix(1,0,0,1,-38,192)" stroke="rgb(0,140,255)">
      <circle r="30" clip-path="url(#clipPath2)" cx="636.4004" cy="187.543" stroke="none"/>
    </g>
    <g text-rendering="geometricPrecision" stroke-miterlimit="1.45" shape-rendering="geometricPrecision" font-family="'Monaco'" transform="matrix(1,0,0,1,-38,192)" stroke-linecap="butt">
      <text x="625.5986" xml:space="preserve" y="192.043" clip-path="url(#clipPath2)" stroke="none">P18</text>
    </g>
    <g fill="rgb(0,140,255)" text-rendering="geometricPrecision" shape-rendering="geometricPrecision" transform="matrix(1,0,0,1,-38,192)" stroke="rgb(0,140,255)">
      <circle r="30" clip-path="url(#clipPath2)" cx="666.4004" cy="116.042" stroke="none"/>
    </g>
    <g text-rendering="geometricPrecision" stroke-miterlimit="1.45" shape-rendering="geometricPrecision" font-family="'Monaco'" transform="matrix(1,0,0,1,-38,192)" stroke-linecap="butt">
      <text x="655.5986" xml:space="preserve" y="120.542" clip-path="url(#clipPath2)" stroke="none">P19</text>
      <path fill="none" d="M385.5584 -10.1598 L390.3253 -68.2712" stroke-width="2" clip-path="url(#clipPath2)"/>
      <path fill="none" d="M413.1054 19.8757 L556.9946 20.5277" stroke-width="2" clip-path="url(#clipPath2)"/>
    </g>
    <g stroke-linecap="butt" transform="matrix(1,0,0,1,-38,192)" fill="rgb(255,0,102)" text-rendering="geometricPrecision" shape-rendering="geometricPrecision" stroke="rgb(255,0,102)" stroke-width="3" stroke-miterlimit="1.45">
      <path fill="none" d="M364.2389 -88.923 L304.0266 -69.4119" clip-path="url(#clipPath2)"/>
      <path fill="none" d="M359.019 1.856 L299.5742 -42.2804" clip-path="url(#clipPath2)"/>
      <path fill="none" d="M559.3342 9.0481 L500.7658 -15.5471" stroke-width="2" clip-path="url(#clipPath2)" stroke="black"/>
      <path fill="none" d="M613.8435 7.2802 L691.3035 -31.3312" stroke-width="2" clip-path="url(#clipPath2)" stroke="black"/>
      <path fill="none" d="M616.9623 22.049 L673.3745 24.6567" stroke-width="2" clip-path="url(#clipPath2)" stroke="black"/>
      <path fill="none" d="M613.6106 34.5046 L708.2188 83.7021" stroke-width="2" clip-path="url(#clipPath2)" stroke="black"/>
      <path fill="none" d="M581.0472 50.0683 L569.0527 109.3748" stroke-width="2" clip-path="url(#clipPath2)" stroke="black"/>
      <path fill="none" d="M559.1211 31.7581 L487.6843 60.1924" stroke-width="2" clip-path="url(#clipPath2)" stroke="black"/>
      <path fill="none" d="M261.7832 -33.4773 L229.1919 29.9887" stroke-width="2" clip-path="url(#clipPath2)" stroke="black"/>
      <path fill="none" d="M205.9317 28.2382 L166.32 -89.6427" stroke-width="2" clip-path="url(#clipPath2)" stroke="black"/>
      <path fill="none" d="M139.962 -93.2268 L100.4401 -34.7669" stroke-width="2" clip-path="url(#clipPath2)" stroke="black"/>
      <path fill="none" d="M571.5966 -5.0834 L542.3919 -53.9181" stroke-width="2" clip-path="url(#clipPath2)" stroke="black"/>
      <path fill="none" d="M586.9943 -9.3363 L586.9943 -116.2156" stroke-width="2" clip-path="url(#clipPath2)" stroke="black"/>
      <path fill="none" d="M602.3846 -5.0877 L622.1782 -38.2065" stroke-width="2" clip-path="url(#clipPath2)" stroke="black"/>
      <path fill="none" d="M568.2277 44.0691 L497.5054 132.2731" stroke-width="2" clip-path="url(#clipPath2)" stroke="black"/>
      <path fill="none" d="M595.5106 49.4295 L627.884 158.7772" stroke-width="2" clip-path="url(#clipPath2)" stroke="black"/>
      <path fill="none" d="M606.189 43.7193 L647.2057 92.9864" stroke-width="2" clip-path="url(#clipPath2)" stroke="black"/>
    </g>
  </g>
</svg>
