<?xml version="1.0" encoding="UTF-8"?><svg xmlns="http://www.w3.org/2000/svg" xmlns:xlink="http://www.w3.org/1999/xlink" fill-opacity="1" color-rendering="auto" color-interpolation="auto" text-rendering="auto" stroke="black" stroke-linecap="square" width="426" stroke-miterlimit="10" shape-rendering="auto" stroke-opacity="1" fill="black" stroke-dasharray="none" font-weight="normal" stroke-width="1" height="401" font-family="'Dialog'" font-style="normal" stroke-linejoin="miter" font-size="12px" stroke-dashoffset="0" image-rendering="auto">
  <!--Generated by ySVG 2.5-->
  <defs id="genericDefs"/>
  <g>
    <defs id="defs1">
      <clipPath clipPathUnits="userSpaceOnUse" id="clipPath1">
        <path d="M0 0 L426 0 L426 401 L0 401 L0 0 Z"/>
      </clipPath>
      <clipPath clipPathUnits="userSpaceOnUse" id="clipPath2">
        <path d="M196 17 L622 17 L622 418 L196 418 L196 17 Z"/>
      </clipPath>
    </defs>
    <g fill="rgb(179,211,19)" text-rendering="geometricPrecision" shape-rendering="geometricPrecision" transform="matrix(1,0,0,1,-196,-17)" stroke="rgb(179,211,19)">
      <circle r="30" clip-path="url(#clipPath2)" cx="378" cy="71" stroke="none"/>
    </g>
    <g text-rendering="geometricPrecision" stroke-miterlimit="1.45" shape-rendering="geometricPrecision" font-family="'Monaco'" transform="matrix(1,0,0,1,-196,-17)" stroke-linecap="butt">
      <text x="370.7988" xml:space="preserve" y="75.5" clip-path="url(#clipPath2)" stroke="none">N1</text>
    </g>
    <g fill="rgb(179,211,19)" text-rendering="geometricPrecision" shape-rendering="geometricPrecision" transform="matrix(1,0,0,1,-196,-17)" stroke="rgb(179,211,19)">
      <circle r="30" clip-path="url(#clipPath2)" cx="337" cy="192" stroke="none"/>
    </g>
    <g text-rendering="geometricPrecision" stroke-miterlimit="1.45" shape-rendering="geometricPrecision" font-family="'Monaco'" transform="matrix(1,0,0,1,-196,-17)" stroke-linecap="butt">
      <text x="329.7988" xml:space="preserve" y="196.5" clip-path="url(#clipPath2)" stroke="none">N2</text>
    </g>
    <g fill="rgb(179,211,19)" text-rendering="geometricPrecision" shape-rendering="geometricPrecision" transform="matrix(1,0,0,1,-196,-17)" stroke="rgb(179,211,19)">
      <circle r="30" clip-path="url(#clipPath2)" cx="241" cy="138" stroke="none"/>
    </g>
    <g text-rendering="geometricPrecision" stroke-miterlimit="1.45" shape-rendering="geometricPrecision" font-family="'Monaco'" transform="matrix(1,0,0,1,-196,-17)" stroke-linecap="butt">
      <text x="233.7988" xml:space="preserve" y="142.5" clip-path="url(#clipPath2)" stroke="none">N4</text>
    </g>
    <g fill="rgb(179,211,19)" text-rendering="geometricPrecision" shape-rendering="geometricPrecision" transform="matrix(1,0,0,1,-196,-17)" stroke="rgb(179,211,19)">
      <circle r="30" clip-path="url(#clipPath2)" cx="241" cy="260" stroke="none"/>
    </g>
    <g text-rendering="geometricPrecision" stroke-miterlimit="1.45" shape-rendering="geometricPrecision" font-family="'Monaco'" transform="matrix(1,0,0,1,-196,-17)" stroke-linecap="butt">
      <text x="233.7988" xml:space="preserve" y="264.5" clip-path="url(#clipPath2)" stroke="none">N5</text>
    </g>
    <g fill="rgb(179,211,19)" text-rendering="geometricPrecision" shape-rendering="geometricPrecision" transform="matrix(1,0,0,1,-196,-17)" stroke="rgb(179,211,19)">
      <circle r="30" clip-path="url(#clipPath2)" cx="487" cy="62" stroke="none"/>
    </g>
    <g text-rendering="geometricPrecision" stroke-miterlimit="1.45" shape-rendering="geometricPrecision" font-family="'Monaco'" transform="matrix(1,0,0,1,-196,-17)" stroke-linecap="butt">
      <text x="479.7988" xml:space="preserve" y="66.5" clip-path="url(#clipPath2)" stroke="none">N7</text>
    </g>
    <g fill="rgb(179,211,19)" text-rendering="geometricPrecision" shape-rendering="geometricPrecision" transform="matrix(1,0,0,1,-196,-17)" stroke="rgb(179,211,19)">
      <circle r="30" clip-path="url(#clipPath2)" cx="549" cy="357" stroke="none"/>
    </g>
    <g text-rendering="geometricPrecision" stroke-miterlimit="1.45" shape-rendering="geometricPrecision" font-family="'Monaco'" transform="matrix(1,0,0,1,-196,-17)" stroke-linecap="butt">
      <text x="541.7988" xml:space="preserve" y="361.5" clip-path="url(#clipPath2)" stroke="none">N9</text>
    </g>
    <g fill="rgb(179,211,19)" text-rendering="geometricPrecision" shape-rendering="geometricPrecision" transform="matrix(1,0,0,1,-196,-17)" stroke="rgb(179,211,19)">
      <circle r="30" clip-path="url(#clipPath2)" cx="577" cy="152" stroke="none"/>
    </g>
    <g text-rendering="geometricPrecision" stroke-miterlimit="1.45" shape-rendering="geometricPrecision" font-family="'Monaco'" transform="matrix(1,0,0,1,-196,-17)" stroke-linecap="butt">
      <text x="569.7988" xml:space="preserve" y="156.5" clip-path="url(#clipPath2)" stroke="none">N8</text>
    </g>
    <g fill="rgb(179,211,19)" text-rendering="geometricPrecision" shape-rendering="geometricPrecision" transform="matrix(1,0,0,1,-196,-17)" stroke="rgb(179,211,19)">
      <circle r="30" clip-path="url(#clipPath2)" cx="364" cy="373" stroke="none"/>
    </g>
    <g text-rendering="geometricPrecision" stroke-miterlimit="1.45" shape-rendering="geometricPrecision" font-family="'Monaco'" transform="matrix(1,0,0,1,-196,-17)" stroke-linecap="butt">
      <text x="353.1982" xml:space="preserve" y="377.5" clip-path="url(#clipPath2)" stroke="none">N11</text>
    </g>
    <g fill="rgb(179,211,19)" text-rendering="geometricPrecision" shape-rendering="geometricPrecision" transform="matrix(1,0,0,1,-196,-17)" stroke="rgb(179,211,19)">
      <circle r="30" clip-path="url(#clipPath2)" cx="432" cy="291" stroke="none"/>
    </g>
    <g text-rendering="geometricPrecision" stroke-miterlimit="1.45" shape-rendering="geometricPrecision" font-family="'Monaco'" transform="matrix(1,0,0,1,-196,-17)" stroke-linecap="butt">
      <text x="421.1982" xml:space="preserve" y="295.5" clip-path="url(#clipPath2)" stroke="none">N10</text>
    </g>
    <g fill="rgb(179,211,19)" text-rendering="geometricPrecision" shape-rendering="geometricPrecision" transform="matrix(1,0,0,1,-196,-17)" stroke="rgb(179,211,19)">
      <circle r="30" clip-path="url(#clipPath2)" cx="517" cy="251" stroke="none"/>
    </g>
    <g text-rendering="geometricPrecision" stroke-miterlimit="1.45" shape-rendering="geometricPrecision" font-family="'Monaco'" transform="matrix(1,0,0,1,-196,-17)" stroke-linecap="butt">
      <text x="509.7988" xml:space="preserve" y="255.5" clip-path="url(#clipPath2)" stroke="none">N6</text>
    </g>
    <g fill="rgb(179,211,19)" text-rendering="geometricPrecision" shape-rendering="geometricPrecision" transform="matrix(1,0,0,1,-196,-17)" stroke="rgb(179,211,19)">
      <circle r="30" clip-path="url(#clipPath2)" cx="457" cy="161" stroke="none"/>
    </g>
    <g text-rendering="geometricPrecision" stroke-miterlimit="1.45" shape-rendering="geometricPrecision" font-family="'Monaco'" transform="matrix(1,0,0,1,-196,-17)" stroke-linecap="butt">
      <text x="449.7988" xml:space="preserve" y="165.5" clip-path="url(#clipPath2)" stroke="none">N3</text>
      <path fill="none" d="M368.3724 99.4132 L346.6276 163.5868" stroke-width="2" clip-path="url(#clipPath2)"/>
      <path fill="none" d="M310.8527 177.2922 L267.1473 152.7078" stroke-width="2" clip-path="url(#clipPath2)"/>
      <path fill="none" d="M312.5193 209.3405 L265.4807 242.6595" stroke-width="2" clip-path="url(#clipPath2)"/>
      <path fill="none" d="M457.1017 64.4687 L407.8983 68.5313" stroke-width="2" clip-path="url(#clipPath2)"/>
      <path fill="none" d="M383.1501 349.9073 L412.8499 314.0927" stroke-width="2" clip-path="url(#clipPath2)"/>
      <path fill="none" d="M459.1446 278.2261 L489.8554 263.7739" stroke-width="2" clip-path="url(#clipPath2)"/>
      <path fill="none" d="M525.6702 279.7198 L540.3298 328.2802" stroke-width="2" clip-path="url(#clipPath2)"/>
      <path fill="none" d="M532.5491 225.3441 L561.4509 177.6559" stroke-width="2" clip-path="url(#clipPath2)"/>
      <path fill="none" d="M397.7906 93.5462 L437.2094 138.4538" stroke-width="2" clip-path="url(#clipPath2)"/>
      <path fill="none" d="M473.641 185.9615 L500.359 226.0385" stroke-width="2" clip-path="url(#clipPath2)"/>
    </g>
  </g>
</svg>
