<?xml version="1.0" encoding="UTF-8"?><svg xmlns="http://www.w3.org/2000/svg" xmlns:xlink="http://www.w3.org/1999/xlink" fill-opacity="1" color-rendering="auto" color-interpolation="auto" text-rendering="auto" stroke="black" stroke-linecap="square" width="297" stroke-miterlimit="10" shape-rendering="auto" stroke-opacity="1" fill="black" stroke-dasharray="none" font-weight="normal" stroke-width="1" height="250" font-family="'Dialog'" font-style="normal" stroke-linejoin="miter" font-size="12px" stroke-dashoffset="0" image-rendering="auto">
  <!--Generated by ySVG 2.5-->
  <defs id="genericDefs"/>
  <g>
    <defs id="defs1">
      <clipPath clipPathUnits="userSpaceOnUse" id="clipPath1">
        <path d="M0 0 L297 0 L297 250 L0 250 L0 0 Z"/>
      </clipPath>
      <clipPath clipPathUnits="userSpaceOnUse" id="clipPath2">
        <path d="M250 77 L547 77 L547 327 L250 327 L250 77 Z"/>
      </clipPath>
    </defs>
    <g fill="rgb(179,211,19)" text-rendering="geometricPrecision" shape-rendering="geometricPrecision" transform="matrix(1,0,0,1,-250,-77)" stroke="rgb(179,211,19)">
      <circle r="30" clip-path="url(#clipPath2)" cx="397" cy="122" stroke="none"/>
    </g>
    <g text-rendering="geometricPrecision" stroke-miterlimit="1.45" shape-rendering="geometricPrecision" font-family="'Monaco'" transform="matrix(1,0,0,1,-250,-77)" stroke-linecap="butt">
      <text x="389.7988" xml:space="preserve" y="126.5" clip-path="url(#clipPath2)" stroke="none">N1</text>
    </g>
    <g fill="rgb(179,211,19)" text-rendering="geometricPrecision" shape-rendering="geometricPrecision" transform="matrix(1,0,0,1,-250,-77)" stroke="rgb(179,211,19)">
      <circle r="30" clip-path="url(#clipPath2)" cx="337" cy="192" stroke="none"/>
    </g>
    <g text-rendering="geometricPrecision" stroke-miterlimit="1.45" shape-rendering="geometricPrecision" font-family="'Monaco'" transform="matrix(1,0,0,1,-250,-77)" stroke-linecap="butt">
      <text x="329.7988" xml:space="preserve" y="196.5" clip-path="url(#clipPath2)" stroke="none">N2</text>
    </g>
    <g fill="rgb(179,211,19)" text-rendering="geometricPrecision" shape-rendering="geometricPrecision" transform="matrix(1,0,0,1,-250,-77)" stroke="rgb(179,211,19)">
      <circle r="30" clip-path="url(#clipPath2)" cx="457" cy="192" stroke="none"/>
    </g>
    <g text-rendering="geometricPrecision" stroke-miterlimit="1.45" shape-rendering="geometricPrecision" font-family="'Monaco'" transform="matrix(1,0,0,1,-250,-77)" stroke-linecap="butt">
      <text x="449.7988" xml:space="preserve" y="196.5" clip-path="url(#clipPath2)" stroke="none">N3</text>
    </g>
    <g fill="rgb(179,211,19)" text-rendering="geometricPrecision" shape-rendering="geometricPrecision" transform="matrix(1,0,0,1,-250,-77)" stroke="rgb(179,211,19)">
      <circle r="30" clip-path="url(#clipPath2)" cx="295" cy="282" stroke="none"/>
    </g>
    <g text-rendering="geometricPrecision" stroke-miterlimit="1.45" shape-rendering="geometricPrecision" font-family="'Monaco'" transform="matrix(1,0,0,1,-250,-77)" stroke-linecap="butt">
      <text x="287.7988" xml:space="preserve" y="286.5" clip-path="url(#clipPath2)" stroke="none">N4</text>
    </g>
    <g fill="rgb(179,211,19)" text-rendering="geometricPrecision" shape-rendering="geometricPrecision" transform="matrix(1,0,0,1,-250,-77)" stroke="rgb(179,211,19)">
      <circle r="30" clip-path="url(#clipPath2)" cx="367" cy="282" stroke="none"/>
    </g>
    <g text-rendering="geometricPrecision" stroke-miterlimit="1.45" shape-rendering="geometricPrecision" font-family="'Monaco'" transform="matrix(1,0,0,1,-250,-77)" stroke-linecap="butt">
      <text x="359.7988" xml:space="preserve" y="286.5" clip-path="url(#clipPath2)" stroke="none">N5</text>
    </g>
    <g fill="rgb(179,211,19)" text-rendering="geometricPrecision" shape-rendering="geometricPrecision" transform="matrix(1,0,0,1,-250,-77)" stroke="rgb(179,211,19)">
      <circle r="30" clip-path="url(#clipPath2)" cx="502" cy="282" stroke="none"/>
    </g>
    <g text-rendering="geometricPrecision" stroke-miterlimit="1.45" shape-rendering="geometricPrecision" font-family="'Monaco'" transform="matrix(1,0,0,1,-250,-77)" stroke-linecap="butt">
      <text x="494.7988" xml:space="preserve" y="286.5" clip-path="url(#clipPath2)" stroke="none">N6</text>
      <path fill="none" d="M377.4763 144.7777 L356.5237 169.2223" stroke-width="2" clip-path="url(#clipPath2)"/>
      <path fill="none" d="M416.5237 144.7777 L437.4763 169.2223" stroke-width="2" clip-path="url(#clipPath2)"/>
      <path fill="none" d="M324.3134 219.1855 L307.6866 254.8145" stroke-width="2" clip-path="url(#clipPath2)"/>
      <path fill="none" d="M346.4868 220.4605 L357.5132 253.5395" stroke-width="2" clip-path="url(#clipPath2)"/>
      <path fill="none" d="M470.4164 218.8328 L488.5836 255.1672" stroke-width="2" clip-path="url(#clipPath2)"/>
    </g>
  </g>
</svg>
