<?xml version="1.0" encoding="UTF-8"?><svg xmlns="http://www.w3.org/2000/svg" xmlns:xlink="http://www.w3.org/1999/xlink" fill-opacity="1" color-rendering="auto" color-interpolation="auto" text-rendering="auto" stroke="black" stroke-linecap="square" width="453" stroke-miterlimit="10" shape-rendering="auto" stroke-opacity="1" fill="black" stroke-dasharray="none" font-weight="normal" stroke-width="1" height="392" font-family="'Dialog'" font-style="normal" stroke-linejoin="miter" font-size="12px" stroke-dashoffset="0" image-rendering="auto">
  <!--Generated by ySVG 2.5-->
  <defs id="genericDefs"/>
  <g>
    <defs id="defs1">
      <clipPath clipPathUnits="userSpaceOnUse" id="clipPath1">
        <path d="M0 0 L453 0 L453 392 L0 392 L0 0 Z"/>
      </clipPath>
      <clipPath clipPathUnits="userSpaceOnUse" id="clipPath2">
        <path d="M265 10 L718 10 L718 402 L265 402 L265 10 Z"/>
      </clipPath>
    </defs>
    <g fill="rgb(179,211,19)" text-rendering="geometricPrecision" shape-rendering="geometricPrecision" transform="matrix(1,0,0,1,-265,-10)" stroke="rgb(179,211,19)">
      <circle r="30" clip-path="url(#clipPath2)" cx="370" cy="55" stroke="none"/>
    </g>
    <g text-rendering="geometricPrecision" stroke-miterlimit="1.45" shape-rendering="geometricPrecision" font-family="'Monaco'" transform="matrix(1,0,0,1,-265,-10)" stroke-linecap="butt">
      <text x="362.7988" xml:space="preserve" y="59.5" clip-path="url(#clipPath2)" stroke="none">N1</text>
    </g>
    <g fill="rgb(179,211,19)" text-rendering="geometricPrecision" shape-rendering="geometricPrecision" transform="matrix(1,0,0,1,-265,-10)" stroke="rgb(179,211,19)">
      <circle r="30" clip-path="url(#clipPath2)" cx="673" cy="252" stroke="none"/>
    </g>
    <g text-rendering="geometricPrecision" stroke-miterlimit="1.45" shape-rendering="geometricPrecision" font-family="'Monaco'" transform="matrix(1,0,0,1,-265,-10)" stroke-linecap="butt">
      <text x="665.7988" xml:space="preserve" y="256.5" clip-path="url(#clipPath2)" stroke="none">N3</text>
    </g>
    <g fill="rgb(179,211,19)" text-rendering="geometricPrecision" shape-rendering="geometricPrecision" transform="matrix(1,0,0,1,-265,-10)" stroke="rgb(179,211,19)">
      <circle r="30" clip-path="url(#clipPath2)" cx="392" cy="304" stroke="none"/>
    </g>
    <g text-rendering="geometricPrecision" stroke-miterlimit="1.45" shape-rendering="geometricPrecision" font-family="'Monaco'" transform="matrix(1,0,0,1,-265,-10)" stroke-linecap="butt">
      <text x="384.7988" xml:space="preserve" y="308.5" clip-path="url(#clipPath2)" stroke="none">N5</text>
    </g>
    <g fill="rgb(179,211,19)" text-rendering="geometricPrecision" shape-rendering="geometricPrecision" transform="matrix(1,0,0,1,-265,-10)" stroke="rgb(179,211,19)">
      <circle r="30" clip-path="url(#clipPath2)" cx="521" cy="357" stroke="none"/>
    </g>
    <g text-rendering="geometricPrecision" stroke-miterlimit="1.45" shape-rendering="geometricPrecision" font-family="'Monaco'" transform="matrix(1,0,0,1,-265,-10)" stroke-linecap="butt">
      <text x="513.7988" xml:space="preserve" y="361.5" clip-path="url(#clipPath2)" stroke="none">N4</text>
    </g>
    <g fill="rgb(179,211,19)" text-rendering="geometricPrecision" shape-rendering="geometricPrecision" transform="matrix(1,0,0,1,-265,-10)" stroke="rgb(179,211,19)">
      <circle r="30" clip-path="url(#clipPath2)" cx="586" cy="60" stroke="none"/>
    </g>
    <g text-rendering="geometricPrecision" stroke-miterlimit="1.45" shape-rendering="geometricPrecision" font-family="'Monaco'" transform="matrix(1,0,0,1,-265,-10)" stroke-linecap="butt">
      <text x="578.7988" xml:space="preserve" y="64.5" clip-path="url(#clipPath2)" stroke="none">N2</text>
    </g>
    <g fill="rgb(179,211,19)" text-rendering="geometricPrecision" shape-rendering="geometricPrecision" transform="matrix(1,0,0,1,-265,-10)" stroke="rgb(179,211,19)">
      <circle r="30" clip-path="url(#clipPath2)" cx="310" cy="145" stroke="none"/>
    </g>
    <g text-rendering="geometricPrecision" stroke-miterlimit="1.45" shape-rendering="geometricPrecision" font-family="'Monaco'" transform="matrix(1,0,0,1,-265,-10)" stroke-linecap="butt">
      <text x="302.7988" xml:space="preserve" y="149.5" clip-path="url(#clipPath2)" stroke="none">N6</text>
      <path fill="none" d="M406.6791 78.8475 L647.8486 235.6474" stroke-width="3" clip-path="url(#clipPath2)"/>
      <path d="M395.1514 71.3526 L403.639 85.8167 L411.8152 73.241 Z" stroke-width="3" clip-path="url(#clipPath2)" stroke="none"/>
    </g>
    <g stroke-linecap="butt" transform="matrix(1,0,0,1,-265,-10)" fill="white" text-rendering="geometricPrecision" shape-rendering="geometricPrecision" stroke="white" stroke-width="3" stroke-miterlimit="1.45">
      <rect x="466.4434" width="30.5605" height="18.1328" y="118.5724" clip-path="url(#clipPath2)" stroke="none"/>
    </g>
    <g text-rendering="geometricPrecision" stroke-miterlimit="1.45" shape-rendering="geometricPrecision" font-family="sans-serif" transform="matrix(1,0,0,1,-265,-10)" stroke-linecap="butt">
      <text x="468.4434" xml:space="preserve" y="132.174" clip-path="url(#clipPath2)" stroke="none">22.1</text>
      <path fill="none" d="M388.1495 260.4198 L372.6403 84.8836" stroke-width="3" clip-path="url(#clipPath2)"/>
      <path d="M389.3597 274.1164 L395.5104 258.5146 L380.5686 259.8347 Z" stroke-width="3" clip-path="url(#clipPath2)" stroke="none"/>
    </g>
    <g stroke-linecap="butt" transform="matrix(1,0,0,1,-265,-10)" fill="white" text-rendering="geometricPrecision" shape-rendering="geometricPrecision" stroke="white" stroke-width="3" stroke-miterlimit="1.45">
      <rect x="360.9735" width="30.5605" height="18.1328" y="116.7146" clip-path="url(#clipPath2)" stroke="none"/>
    </g>
    <g text-rendering="geometricPrecision" stroke-miterlimit="1.45" shape-rendering="geometricPrecision" font-family="sans-serif" transform="matrix(1,0,0,1,-265,-10)" stroke-linecap="butt">
      <text x="362.9735" xml:space="preserve" y="130.3161" clip-path="url(#clipPath2)" stroke="none">16.5</text>
      <path fill="none" d="M648.3167 269.051 L556.9965 332.134" stroke-width="3" clip-path="url(#clipPath2)"/>
      <path d="M545.6833 339.949 L562.2877 337.5944 L553.7622 325.2527 Z" stroke-width="3" clip-path="url(#clipPath2)" stroke="none"/>
    </g>
    <g stroke-linecap="butt" transform="matrix(1,0,0,1,-265,-10)" fill="white" text-rendering="geometricPrecision" shape-rendering="geometricPrecision" stroke="white" stroke-width="3" stroke-miterlimit="1.45">
      <rect x="581.7197" width="30.5605" height="18.1328" y="295.4336" clip-path="url(#clipPath2)" stroke="none"/>
    </g>
    <g text-rendering="geometricPrecision" stroke-miterlimit="1.45" shape-rendering="geometricPrecision" font-family="sans-serif" transform="matrix(1,0,0,1,-265,-10)" stroke-linecap="butt">
      <text x="583.7197" xml:space="preserve" y="309.0352" clip-path="url(#clipPath2)" stroke="none">15.3</text>
      <path fill="none" d="M493.2508 345.5992 L432.4677 320.6263" stroke-width="3" clip-path="url(#clipPath2)"/>
      <path d="M419.7492 315.4008 L430.7737 328.0386 L436.4741 314.164 Z" stroke-width="3" clip-path="url(#clipPath2)" stroke="none"/>
    </g>
    <g stroke-linecap="butt" transform="matrix(1,0,0,1,-265,-10)" fill="white" text-rendering="geometricPrecision" shape-rendering="geometricPrecision" stroke="white" stroke-width="3" stroke-miterlimit="1.45">
      <rect x="441.2197" width="30.5605" height="18.1328" y="321.4336" clip-path="url(#clipPath2)" stroke="none"/>
    </g>
    <g text-rendering="geometricPrecision" stroke-miterlimit="1.45" shape-rendering="geometricPrecision" font-family="sans-serif" transform="matrix(1,0,0,1,-265,-10)" stroke-linecap="butt">
      <text x="443.2197" xml:space="preserve" y="335.0352" clip-path="url(#clipPath2)" stroke="none">34.7</text>
      <path fill="none" d="M527.4139 327.6936 L576.6465 102.7384" stroke-width="3" clip-path="url(#clipPath2)"/>
      <path d="M579.5861 89.3063 L569.0527 102.3561 L583.7058 105.563 Z" stroke-width="3" clip-path="url(#clipPath2)" stroke="none"/>
    </g>
    <g stroke-linecap="butt" transform="matrix(1,0,0,1,-265,-10)" fill="white" text-rendering="geometricPrecision" shape-rendering="geometricPrecision" stroke="white" stroke-width="3" stroke-miterlimit="1.45">
      <rect x="527.5061" width="30.5605" height="18.1328" y="248.3867" clip-path="url(#clipPath2)" stroke="none"/>
    </g>
    <g text-rendering="geometricPrecision" stroke-miterlimit="1.45" shape-rendering="geometricPrecision" font-family="sans-serif" transform="matrix(1,0,0,1,-265,-10)" stroke-linecap="butt">
      <text x="529.5061" xml:space="preserve" y="261.9883" clip-path="url(#clipPath2)" stroke="none">67.9</text>
      <path fill="none" d="M399.992 55.6943 L542.2617 58.9875" stroke-width="3" clip-path="url(#clipPath2)"/>
      <path d="M556.0081 59.3057 L541.1856 51.4606 L540.8385 66.4566 Z" stroke-width="3" clip-path="url(#clipPath2)" stroke="none"/>
    </g>
    <g stroke-linecap="butt" transform="matrix(1,0,0,1,-265,-10)" fill="white" text-rendering="geometricPrecision" shape-rendering="geometricPrecision" stroke="white" stroke-width="3" stroke-miterlimit="1.45">
      <rect x="461.5977" width="32.8047" height="19" y="48" clip-path="url(#clipPath2)" stroke="none"/>
    </g>
    <g text-rendering="geometricPrecision" stroke-miterlimit="1.45" shape-rendering="geometricPrecision" font-family="'Monaco'" transform="matrix(1,0,0,1,-265,-10)" stroke-linecap="butt">
      <text x="463.5977" xml:space="preserve" y="62" clip-path="url(#clipPath2)" stroke="none">12.8</text>
      <path fill="none" d="M567.3297 83.4823 L419.2276 269.755" stroke-width="3" clip-path="url(#clipPath2)"/>
      <path d="M410.6703 280.5177 L425.8761 273.4442 L414.1349 264.109 Z" stroke-width="3" clip-path="url(#clipPath2)" stroke="none"/>
    </g>
    <g stroke-linecap="butt" transform="matrix(1,0,0,1,-265,-10)" fill="white" text-rendering="geometricPrecision" shape-rendering="geometricPrecision" stroke="white" stroke-width="3" stroke-miterlimit="1.45">
      <rect x="447.8823" width="30.5605" height="18.1328" y="205.4301" clip-path="url(#clipPath2)" stroke="none"/>
    </g>
    <g text-rendering="geometricPrecision" stroke-miterlimit="1.45" shape-rendering="geometricPrecision" font-family="sans-serif" transform="matrix(1,0,0,1,-265,-10)" stroke-linecap="butt">
      <text x="449.8823" xml:space="preserve" y="219.0317" clip-path="url(#clipPath2)" stroke="none">55.3</text>
      <path fill="none" d="M598.3819 87.3256 L654.9431 212.1502" stroke-width="3" clip-path="url(#clipPath2)"/>
      <path d="M660.6181 224.6744 L661.2585 207.9161 L647.5958 214.1071 Z" stroke-width="3" clip-path="url(#clipPath2)" stroke="none"/>
    </g>
    <g stroke-linecap="butt" transform="matrix(1,0,0,1,-265,-10)" fill="white" text-rendering="geometricPrecision" shape-rendering="geometricPrecision" stroke="white" stroke-width="3" stroke-miterlimit="1.45">
      <rect x="614.2197" width="30.5605" height="18.1328" y="146.9336" clip-path="url(#clipPath2)" stroke="none"/>
    </g>
    <g text-rendering="geometricPrecision" stroke-miterlimit="1.45" shape-rendering="geometricPrecision" font-family="sans-serif" transform="matrix(1,0,0,1,-265,-10)" stroke-linecap="butt">
      <text x="616.2197" xml:space="preserve" y="160.5352" clip-path="url(#clipPath2)" stroke="none">56.3</text>
      <path fill="none" d="M378.2493 277.337 L330.0532 183.8836" stroke-width="3" clip-path="url(#clipPath2)"/>
      <path d="M323.7507 171.663 L323.9604 188.4322 L337.2919 181.5569 Z" stroke-width="3" clip-path="url(#clipPath2)" stroke="none"/>
    </g>
    <g stroke-linecap="butt" transform="matrix(1,0,0,1,-265,-10)" fill="white" text-rendering="geometricPrecision" shape-rendering="geometricPrecision" stroke="white" stroke-width="3" stroke-miterlimit="1.45">
      <rect x="335.7197" width="30.5605" height="18.1328" y="215.4336" clip-path="url(#clipPath2)" stroke="none"/>
    </g>
    <g text-rendering="geometricPrecision" stroke-miterlimit="1.45" shape-rendering="geometricPrecision" font-family="sans-serif" transform="matrix(1,0,0,1,-265,-10)" stroke-linecap="butt">
      <text x="337.7197" xml:space="preserve" y="229.0352" clip-path="url(#clipPath2)" stroke="none">98.2</text>
      <path fill="none" d="M338.7759 153.4822 L631.0352 239.6302" stroke-width="3" clip-path="url(#clipPath2)"/>
      <path d="M644.2241 243.5179 L631.9567 232.0828 L627.7156 246.4707 Z" stroke-width="3" clip-path="url(#clipPath2)" stroke="none"/>
    </g>
    <g stroke-linecap="butt" transform="matrix(1,0,0,1,-265,-10)" fill="white" text-rendering="geometricPrecision" shape-rendering="geometricPrecision" stroke="white" stroke-width="3" stroke-miterlimit="1.45">
      <rect x="413.0552" width="30.5605" height="18.1328" y="170.8148" clip-path="url(#clipPath2)" stroke="none"/>
    </g>
    <g text-rendering="geometricPrecision" stroke-miterlimit="1.45" shape-rendering="geometricPrecision" font-family="sans-serif" transform="matrix(1,0,0,1,-265,-10)" stroke-linecap="butt">
      <text x="415.0552" xml:space="preserve" y="184.4164" clip-path="url(#clipPath2)" stroke="none">34.6</text>
    </g>
  </g>
</svg>
