<?xml version="1.0" encoding="UTF-8"?><svg xmlns="http://www.w3.org/2000/svg" xmlns:xlink="http://www.w3.org/1999/xlink" fill-opacity="1" color-rendering="auto" color-interpolation="auto" text-rendering="auto" stroke="black" stroke-linecap="square" width="798" stroke-miterlimit="10" shape-rendering="auto" stroke-opacity="1" fill="black" stroke-dasharray="none" font-weight="normal" stroke-width="1" height="287" font-family="'Dialog'" font-style="normal" stroke-linejoin="miter" font-size="12px" stroke-dashoffset="0" image-rendering="auto">
  <!--Generated by ySVG 2.5-->
  <defs id="genericDefs"/>
  <g>
    <defs id="defs1">
      <clipPath clipPathUnits="userSpaceOnUse" id="clipPath1">
        <path d="M0 0 L798 0 L798 287 L0 287 L0 0 Z"/>
      </clipPath>
      <clipPath clipPathUnits="userSpaceOnUse" id="clipPath2">
        <path d="M78 -211 L876 -211 L876 76 L78 76 L78 -211 Z"/>
      </clipPath>
    </defs>
    <g fill="white" text-rendering="geometricPrecision" shape-rendering="geometricPrecision" transform="translate(-78,211)" stroke="white">
      <rect x="78" width="798" height="287" y="-211" clip-path="url(#clipPath2)" stroke="none"/>
    </g>
    <g fill="rgb(0,140,255)" text-rendering="geometricPrecision" shape-rendering="geometricPrecision" transform="matrix(1,0,0,1,-78,211)" stroke="rgb(0,140,255)">
      <circle r="20.5" clip-path="url(#clipPath2)" cx="114.2247" cy="-81.8182" stroke="none"/>
    </g>
    <g text-rendering="geometricPrecision" stroke-miterlimit="1.45" shape-rendering="geometricPrecision" font-family="'Monaco'" transform="matrix(1,0,0,1,-78,211)" stroke-linecap="butt">
      <text x="107.0235" xml:space="preserve" y="-77.3182" clip-path="url(#clipPath2)" stroke="none">N1</text>
    </g>
    <g fill="rgb(0,140,255)" text-rendering="geometricPrecision" shape-rendering="geometricPrecision" transform="matrix(1,0,0,1,-78,211)" stroke="rgb(0,140,255)">
      <circle r="20.5" clip-path="url(#clipPath2)" cx="200.9968" cy="-89.8182" stroke="none"/>
    </g>
    <g text-rendering="geometricPrecision" stroke-miterlimit="1.45" shape-rendering="geometricPrecision" font-family="'Monaco'" transform="matrix(1,0,0,1,-78,211)" stroke-linecap="butt">
      <text x="193.7957" xml:space="preserve" y="-85.3182" clip-path="url(#clipPath2)" stroke="none">N2</text>
    </g>
    <g fill="rgb(0,204,255)" text-rendering="geometricPrecision" shape-rendering="geometricPrecision" transform="matrix(1,0,0,1,-78,211)" stroke="rgb(0,204,255)">
      <circle r="20.5" clip-path="url(#clipPath2)" cx="170.9023" cy="-6.9556" stroke="none"/>
    </g>
    <g text-rendering="geometricPrecision" stroke-miterlimit="1.45" shape-rendering="geometricPrecision" font-family="'Monaco'" transform="matrix(1,0,0,1,-78,211)" stroke-linecap="butt">
      <text x="163.7012" xml:space="preserve" y="-2.4556" clip-path="url(#clipPath2)" stroke="none">N3</text>
    </g>
    <g fill="rgb(0,140,255)" text-rendering="geometricPrecision" shape-rendering="geometricPrecision" transform="matrix(1,0,0,1,-78,211)" stroke="rgb(0,140,255)">
      <circle r="20.5" clip-path="url(#clipPath2)" cx="209.5336" cy="-160.8182" stroke="none"/>
    </g>
    <g text-rendering="geometricPrecision" stroke-miterlimit="1.45" shape-rendering="geometricPrecision" font-family="'Monaco'" transform="matrix(1,0,0,1,-78,211)" stroke-linecap="butt">
      <text x="202.3324" xml:space="preserve" y="-156.3182" clip-path="url(#clipPath2)" stroke="none">N4</text>
    </g>
    <g fill="rgb(0,140,255)" text-rendering="geometricPrecision" shape-rendering="geometricPrecision" transform="matrix(1,0,0,1,-78,211)" stroke="rgb(0,140,255)">
      <circle r="20.5" clip-path="url(#clipPath2)" cx="298.769" cy="-95.8182" stroke="none"/>
    </g>
    <g text-rendering="geometricPrecision" stroke-miterlimit="1.45" shape-rendering="geometricPrecision" font-family="'Monaco'" transform="matrix(1,0,0,1,-78,211)" stroke-linecap="butt">
      <text x="291.5678" xml:space="preserve" y="-91.3182" clip-path="url(#clipPath2)" stroke="none">N5</text>
    </g>
    <g fill="rgb(0,140,255)" text-rendering="geometricPrecision" shape-rendering="geometricPrecision" transform="matrix(1,0,0,1,-78,211)" stroke="rgb(0,140,255)">
      <circle r="20.5" clip-path="url(#clipPath2)" cx="293.769" cy="-6.9556" stroke="none"/>
    </g>
    <g text-rendering="geometricPrecision" stroke-miterlimit="1.45" shape-rendering="geometricPrecision" font-family="'Monaco'" transform="matrix(1,0,0,1,-78,211)" stroke-linecap="butt">
      <text x="286.5678" xml:space="preserve" y="-2.4556" clip-path="url(#clipPath2)" stroke="none">N6</text>
    </g>
    <g fill="rgb(0,140,255)" text-rendering="geometricPrecision" shape-rendering="geometricPrecision" transform="matrix(1,0,0,1,-78,211)" stroke="rgb(0,140,255)">
      <circle r="20.5" clip-path="url(#clipPath2)" cx="230.9023" cy="39.8635" stroke="none"/>
    </g>
    <g text-rendering="geometricPrecision" stroke-miterlimit="1.45" shape-rendering="geometricPrecision" font-family="'Monaco'" transform="matrix(1,0,0,1,-78,211)" stroke-linecap="butt">
      <text x="223.7012" xml:space="preserve" y="44.3635" clip-path="url(#clipPath2)" stroke="none">N7</text>
    </g>
    <g fill="rgb(0,140,255)" text-rendering="geometricPrecision" shape-rendering="geometricPrecision" transform="matrix(1,0,0,1,-78,211)" stroke="rgb(0,140,255)">
      <circle r="20.5" clip-path="url(#clipPath2)" cx="380.5412" cy="-81.8182" stroke="none"/>
    </g>
    <g text-rendering="geometricPrecision" stroke-miterlimit="1.45" shape-rendering="geometricPrecision" font-family="'Monaco'" transform="matrix(1,0,0,1,-78,211)" stroke-linecap="butt">
      <text x="373.34" xml:space="preserve" y="-77.3182" clip-path="url(#clipPath2)" stroke="none">N1</text>
    </g>
    <g fill="rgb(0,140,255)" text-rendering="geometricPrecision" shape-rendering="geometricPrecision" transform="matrix(1,0,0,1,-78,211)" stroke="rgb(0,140,255)">
      <circle r="20.5" clip-path="url(#clipPath2)" cx="467.3134" cy="-89.8182" stroke="none"/>
    </g>
    <g text-rendering="geometricPrecision" stroke-miterlimit="1.45" shape-rendering="geometricPrecision" font-family="'Monaco'" transform="matrix(1,0,0,1,-78,211)" stroke-linecap="butt">
      <text x="460.1122" xml:space="preserve" y="-85.3182" clip-path="url(#clipPath2)" stroke="none">N2</text>
    </g>
    <g fill="rgb(0,140,255)" text-rendering="geometricPrecision" shape-rendering="geometricPrecision" transform="matrix(1,0,0,1,-78,211)" stroke="rgb(0,140,255)">
      <circle r="20.5" clip-path="url(#clipPath2)" cx="437.2189" cy="-6.9556" stroke="none"/>
    </g>
    <g text-rendering="geometricPrecision" stroke-miterlimit="1.45" shape-rendering="geometricPrecision" font-family="'Monaco'" transform="matrix(1,0,0,1,-78,211)" stroke-linecap="butt">
      <text x="430.0177" xml:space="preserve" y="-2.4556" clip-path="url(#clipPath2)" stroke="none">N3</text>
    </g>
    <g fill="rgb(0,140,255)" text-rendering="geometricPrecision" shape-rendering="geometricPrecision" transform="matrix(1,0,0,1,-78,211)" stroke="rgb(0,140,255)">
      <circle r="20.5" clip-path="url(#clipPath2)" cx="475.8501" cy="-160.8182" stroke="none"/>
    </g>
    <g text-rendering="geometricPrecision" stroke-miterlimit="1.45" shape-rendering="geometricPrecision" font-family="'Monaco'" transform="matrix(1,0,0,1,-78,211)" stroke-linecap="butt">
      <text x="468.649" xml:space="preserve" y="-156.3182" clip-path="url(#clipPath2)" stroke="none">N4</text>
    </g>
    <g fill="rgb(0,140,255)" text-rendering="geometricPrecision" shape-rendering="geometricPrecision" transform="matrix(1,0,0,1,-78,211)" stroke="rgb(0,140,255)">
      <circle r="20.5" clip-path="url(#clipPath2)" cx="565.0856" cy="-95.8182" stroke="none"/>
    </g>
    <g text-rendering="geometricPrecision" stroke-miterlimit="1.45" shape-rendering="geometricPrecision" font-family="'Monaco'" transform="matrix(1,0,0,1,-78,211)" stroke-linecap="butt">
      <text x="557.8844" xml:space="preserve" y="-91.3182" clip-path="url(#clipPath2)" stroke="none">N5</text>
    </g>
    <g fill="rgb(0,204,255)" text-rendering="geometricPrecision" shape-rendering="geometricPrecision" transform="matrix(1,0,0,1,-78,211)" stroke="rgb(0,204,255)">
      <circle r="20.5" clip-path="url(#clipPath2)" cx="560.0856" cy="-6.9556" stroke="none"/>
    </g>
    <g text-rendering="geometricPrecision" stroke-miterlimit="1.45" shape-rendering="geometricPrecision" font-family="'Monaco'" transform="matrix(1,0,0,1,-78,211)" stroke-linecap="butt">
      <text x="552.8844" xml:space="preserve" y="-2.4556" clip-path="url(#clipPath2)" stroke="none">N6</text>
    </g>
    <g fill="rgb(0,140,255)" text-rendering="geometricPrecision" shape-rendering="geometricPrecision" transform="matrix(1,0,0,1,-78,211)" stroke="rgb(0,140,255)">
      <circle r="20.5" clip-path="url(#clipPath2)" cx="497.2189" cy="39.8635" stroke="none"/>
    </g>
    <g text-rendering="geometricPrecision" stroke-miterlimit="1.45" shape-rendering="geometricPrecision" font-family="'Monaco'" transform="matrix(1,0,0,1,-78,211)" stroke-linecap="butt">
      <text x="490.0177" xml:space="preserve" y="44.3635" clip-path="url(#clipPath2)" stroke="none">N7</text>
    </g>
    <g fill="rgb(0,140,255)" text-rendering="geometricPrecision" shape-rendering="geometricPrecision" transform="matrix(1,0,0,1,-78,211)" stroke="rgb(0,140,255)">
      <circle r="20.5" clip-path="url(#clipPath2)" cx="655.3945" cy="-95.8182" stroke="none"/>
    </g>
    <g text-rendering="geometricPrecision" stroke-miterlimit="1.45" shape-rendering="geometricPrecision" font-family="'Monaco'" transform="matrix(1,0,0,1,-78,211)" stroke-linecap="butt">
      <text x="648.1934" xml:space="preserve" y="-91.3182" clip-path="url(#clipPath2)" stroke="none">N1</text>
    </g>
    <g fill="rgb(0,140,255)" text-rendering="geometricPrecision" shape-rendering="geometricPrecision" transform="matrix(1,0,0,1,-78,211)" stroke="rgb(0,140,255)">
      <circle r="20.5" clip-path="url(#clipPath2)" cx="742.1667" cy="-103.8182" stroke="none"/>
    </g>
    <g text-rendering="geometricPrecision" stroke-miterlimit="1.45" shape-rendering="geometricPrecision" font-family="'Monaco'" transform="matrix(1,0,0,1,-78,211)" stroke-linecap="butt">
      <text x="734.9655" xml:space="preserve" y="-99.3182" clip-path="url(#clipPath2)" stroke="none">N2</text>
    </g>
    <g fill="rgb(0,140,255)" text-rendering="geometricPrecision" shape-rendering="geometricPrecision" transform="matrix(1,0,0,1,-78,211)" stroke="rgb(0,140,255)">
      <circle r="20.5" clip-path="url(#clipPath2)" cx="712.0722" cy="-20.9556" stroke="none"/>
    </g>
    <g text-rendering="geometricPrecision" stroke-miterlimit="1.45" shape-rendering="geometricPrecision" font-family="'Monaco'" transform="matrix(1,0,0,1,-78,211)" stroke-linecap="butt">
      <text x="704.871" xml:space="preserve" y="-16.4556" clip-path="url(#clipPath2)" stroke="none">N3</text>
    </g>
    <g fill="rgb(0,204,255)" text-rendering="geometricPrecision" shape-rendering="geometricPrecision" transform="matrix(1,0,0,1,-78,211)" stroke="rgb(0,204,255)">
      <circle r="20.5" clip-path="url(#clipPath2)" cx="750.7034" cy="-174.8182" stroke="none"/>
    </g>
    <g text-rendering="geometricPrecision" stroke-miterlimit="1.45" shape-rendering="geometricPrecision" font-family="'Monaco'" transform="matrix(1,0,0,1,-78,211)" stroke-linecap="butt">
      <text x="743.5023" xml:space="preserve" y="-170.3182" clip-path="url(#clipPath2)" stroke="none">N4</text>
    </g>
    <g fill="rgb(0,140,255)" text-rendering="geometricPrecision" shape-rendering="geometricPrecision" transform="matrix(1,0,0,1,-78,211)" stroke="rgb(0,140,255)">
      <circle r="20.5" clip-path="url(#clipPath2)" cx="839.9389" cy="-109.8182" stroke="none"/>
    </g>
    <g text-rendering="geometricPrecision" stroke-miterlimit="1.45" shape-rendering="geometricPrecision" font-family="'Monaco'" transform="matrix(1,0,0,1,-78,211)" stroke-linecap="butt">
      <text x="832.7377" xml:space="preserve" y="-105.3182" clip-path="url(#clipPath2)" stroke="none">N5</text>
    </g>
    <g fill="rgb(0,140,255)" text-rendering="geometricPrecision" shape-rendering="geometricPrecision" transform="matrix(1,0,0,1,-78,211)" stroke="rgb(0,140,255)">
      <circle r="20.5" clip-path="url(#clipPath2)" cx="834.9389" cy="-20.9556" stroke="none"/>
    </g>
    <g text-rendering="geometricPrecision" stroke-miterlimit="1.45" shape-rendering="geometricPrecision" font-family="'Monaco'" transform="matrix(1,0,0,1,-78,211)" stroke-linecap="butt">
      <text x="827.7377" xml:space="preserve" y="-16.4556" clip-path="url(#clipPath2)" stroke="none">N6</text>
    </g>
    <g fill="rgb(0,140,255)" text-rendering="geometricPrecision" shape-rendering="geometricPrecision" transform="matrix(1,0,0,1,-78,211)" stroke="rgb(0,140,255)">
      <circle r="20.5" clip-path="url(#clipPath2)" cx="772.0722" cy="25.8635" stroke="none"/>
    </g>
    <g text-rendering="geometricPrecision" stroke-miterlimit="1.45" shape-rendering="geometricPrecision" font-family="'Monaco'" transform="matrix(1,0,0,1,-78,211)" stroke-linecap="butt">
      <text x="764.871" xml:space="preserve" y="30.3635" clip-path="url(#clipPath2)" stroke="none">N7</text>
      <path fill="none" d="M134.6381 -83.7003 L180.5834 -87.9362" stroke-width="2" clip-path="url(#clipPath2)"/>
    </g>
    <g stroke-linecap="butt" transform="matrix(1,0,0,1,-78,211)" fill="rgb(0,204,255)" text-rendering="geometricPrecision" shape-rendering="geometricPrecision" stroke="rgb(0,204,255)" stroke-width="2" stroke-miterlimit="1.45">
      <path fill="none" d="M177.9004 -26.2242 L193.9988 -70.5497" clip-path="url(#clipPath2)"/>
      <path fill="none" d="M158.5283 -23.2998 L126.5987 -65.474" clip-path="url(#clipPath2)"/>
      <path fill="none" d="M203.444 -110.1716 L207.0864 -140.4648" clip-path="url(#clipPath2)" stroke="black"/>
      <path fill="none" d="M226.1037 -148.7484 L282.1989 -107.8881" clip-path="url(#clipPath2)" stroke="black"/>
      <path fill="none" d="M187.7363 -18.6546 L281.935 -84.1192" clip-path="url(#clipPath2)"/>
      <path fill="none" d="M297.6174 -75.3506 L294.9207 -27.4233" clip-path="url(#clipPath2)" stroke="black"/>
      <path fill="none" d="M273.269 -6.9556 L191.4023 -6.9556" clip-path="url(#clipPath2)"/>
      <path fill="none" d="M277.3276 5.2889 L247.3438 27.619" clip-path="url(#clipPath2)" stroke="black"/>
      <path fill="none" d="M400.9546 -83.7003 L446.9 -87.9362" clip-path="url(#clipPath2)" stroke="black"/>
      <path fill="none" d="M444.2169 -26.2242 L460.3153 -70.5497" clip-path="url(#clipPath2)" stroke="black"/>
      <path fill="none" d="M424.8448 -23.2998 L392.9153 -65.474" clip-path="url(#clipPath2)" stroke="black"/>
      <path fill="none" d="M469.7606 -110.1716 L473.4029 -140.4648" clip-path="url(#clipPath2)" stroke="black"/>
      <path fill="none" d="M492.4203 -148.7484 L548.5154 -107.8881" clip-path="url(#clipPath2)" stroke="black"/>
      <path fill="none" d="M454.0529 -18.6546 L548.2516 -84.1192" clip-path="url(#clipPath2)" stroke="black"/>
      <path fill="none" d="M563.934 -75.3506 L561.2372 -27.4233" clip-path="url(#clipPath2)"/>
      <path fill="none" d="M539.5856 -6.9556 L457.7189 -6.9556" clip-path="url(#clipPath2)"/>
      <path fill="none" d="M543.6442 5.2889 L513.6603 27.619" clip-path="url(#clipPath2)"/>
      <path fill="none" d="M675.8079 -97.7003 L721.7533 -101.9362" clip-path="url(#clipPath2)" stroke="black"/>
      <path fill="none" d="M719.0703 -40.2242 L735.1686 -84.5497" clip-path="url(#clipPath2)" stroke="black"/>
      <path fill="none" d="M699.6982 -37.2998 L667.7686 -79.474" clip-path="url(#clipPath2)" stroke="black"/>
      <path fill="none" d="M744.6139 -124.1716 L748.2562 -154.4648" clip-path="url(#clipPath2)"/>
      <path fill="none" d="M767.2736 -162.7484 L823.3688 -121.8881" clip-path="url(#clipPath2)"/>
      <path fill="none" d="M728.9062 -32.6546 L823.1049 -98.1192" clip-path="url(#clipPath2)" stroke="black"/>
      <path fill="none" d="M838.7872 -89.3506 L836.0905 -41.4233" clip-path="url(#clipPath2)" stroke="black"/>
      <path fill="none" d="M814.4389 -20.9556 L732.5722 -20.9556" clip-path="url(#clipPath2)" stroke="black"/>
      <path fill="none" d="M818.4974 -8.7111 L788.5136 13.619" clip-path="url(#clipPath2)" stroke="black"/>
    </g>
  </g>
</svg>
