<?xml version="1.0" encoding="UTF-8"?><svg xmlns="http://www.w3.org/2000/svg" xmlns:xlink="http://www.w3.org/1999/xlink" fill-opacity="1" color-rendering="auto" color-interpolation="auto" text-rendering="auto" stroke="black" stroke-linecap="square" width="401" stroke-miterlimit="10" shape-rendering="auto" stroke-opacity="1" fill="black" stroke-dasharray="none" font-weight="normal" stroke-width="1" height="294" font-family="'Dialog'" font-style="normal" stroke-linejoin="miter" font-size="12px" stroke-dashoffset="0" image-rendering="auto">
  <!--Generated by ySVG 2.5-->
  <defs id="genericDefs"/>
  <g>
    <defs id="defs1">
      <linearGradient x1="401.4158" gradientUnits="userSpaceOnUse" x2="412.1302" y1="124.6459" y2="124.6459" id="linearGradient1" spreadMethod="reflect">
        <stop stop-opacity="1" stop-color="rgb(255,204,0)" offset="0%"/>
        <stop stop-opacity="1" stop-color="rgb(255,204,0)" offset="100%"/>
      </linearGradient>
      <clipPath clipPathUnits="userSpaceOnUse" id="clipPath1">
        <path d="M0 0 L401 0 L401 294 L0 294 L0 0 Z"/>
      </clipPath>
      <clipPath clipPathUnits="userSpaceOnUse" id="clipPath2">
        <path d="M243 -19 L644 -19 L644 275 L243 275 L243 -19 Z"/>
      </clipPath>
    </defs>
    <g fill="rgb(0,140,255)" text-rendering="geometricPrecision" shape-rendering="geometricPrecision" transform="matrix(1,0,0,1,-243,19)" stroke="rgb(0,140,255)">
      <circle r="30" clip-path="url(#clipPath2)" cx="288.4968" cy="132.6818" stroke="none"/>
    </g>
    <g text-rendering="geometricPrecision" stroke-miterlimit="1.45" shape-rendering="geometricPrecision" font-family="'Monaco'" transform="matrix(1,0,0,1,-243,19)" stroke-linecap="butt">
      <text x="281.2957" xml:space="preserve" y="137.1818" clip-path="url(#clipPath2)" stroke="none">N1</text>
    </g>
    <g fill="rgb(0,140,255)" text-rendering="geometricPrecision" shape-rendering="geometricPrecision" transform="matrix(1,0,0,1,-243,19)" stroke="rgb(0,140,255)">
      <circle r="30" clip-path="url(#clipPath2)" cx="433.769" cy="132.6818" stroke="none"/>
    </g>
    <g text-rendering="geometricPrecision" stroke-miterlimit="1.45" shape-rendering="geometricPrecision" font-family="'Monaco'" transform="matrix(1,0,0,1,-243,19)" stroke-linecap="butt">
      <text x="426.5678" xml:space="preserve" y="137.1818" clip-path="url(#clipPath2)" stroke="none">N2</text>
    </g>
    <g fill="rgb(0,140,255)" text-rendering="geometricPrecision" shape-rendering="geometricPrecision" transform="matrix(1,0,0,1,-243,19)" stroke="rgb(0,140,255)">
      <circle r="30" clip-path="url(#clipPath2)" cx="385.1745" cy="229.5444" stroke="none"/>
    </g>
    <g text-rendering="geometricPrecision" stroke-miterlimit="1.45" shape-rendering="geometricPrecision" font-family="'Monaco'" transform="matrix(1,0,0,1,-243,19)" stroke-linecap="butt">
      <text x="377.9733" xml:space="preserve" y="234.0444" clip-path="url(#clipPath2)" stroke="none">N1</text>
    </g>
    <g fill="rgb(0,140,255)" text-rendering="geometricPrecision" shape-rendering="geometricPrecision" transform="matrix(1,0,0,1,-243,19)" stroke="rgb(0,140,255)">
      <circle r="30" clip-path="url(#clipPath2)" cx="551.8058" cy="229.5444" stroke="none"/>
    </g>
    <g text-rendering="geometricPrecision" stroke-miterlimit="1.45" shape-rendering="geometricPrecision" font-family="'Monaco'" transform="matrix(1,0,0,1,-243,19)" stroke-linecap="butt">
      <text x="544.6046" xml:space="preserve" y="234.0444" clip-path="url(#clipPath2)" stroke="none">N1</text>
    </g>
    <g fill="rgb(0,140,255)" text-rendering="geometricPrecision" shape-rendering="geometricPrecision" transform="matrix(1,0,0,1,-243,19)" stroke="rgb(0,140,255)">
      <circle r="30" clip-path="url(#clipPath2)" cx="598.6773" cy="132.6818" stroke="none"/>
    </g>
    <g text-rendering="geometricPrecision" stroke-miterlimit="1.45" shape-rendering="geometricPrecision" font-family="'Monaco'" transform="matrix(1,0,0,1,-243,19)" stroke-linecap="butt">
      <text x="591.4761" xml:space="preserve" y="137.1818" clip-path="url(#clipPath2)" stroke="none">N1</text>
    </g>
    <g fill="rgb(0,140,255)" text-rendering="geometricPrecision" shape-rendering="geometricPrecision" transform="matrix(1,0,0,1,-243,19)" stroke="rgb(0,140,255)">
      <circle r="30" clip-path="url(#clipPath2)" cx="598.6773" cy="26.0026" stroke="none"/>
    </g>
    <g text-rendering="geometricPrecision" stroke-miterlimit="1.45" shape-rendering="geometricPrecision" font-family="'Monaco'" transform="matrix(1,0,0,1,-243,19)" stroke-linecap="butt">
      <text x="591.4761" xml:space="preserve" y="30.5026" clip-path="url(#clipPath2)" stroke="none">N1</text>
    </g>
    <g fill="rgb(255,204,0)" text-rendering="geometricPrecision" shape-rendering="geometricPrecision" transform="matrix(1,0,0,1,-243,19)" stroke="rgb(255,204,0)">
      <circle r="8.0359" clip-path="url(#clipPath2)" cx="317.6539" cy="132.6818" stroke="none"/>
      <circle stroke-linecap="butt" clip-path="url(#clipPath2)" fill="none" r="8.0359" cx="317.6539" cy="132.6818" stroke-width="2" stroke-miterlimit="1.45"/>
      <circle fill="url(#linearGradient1)" r="8.0359" clip-path="url(#clipPath2)" cx="404.0944" cy="132.6818" stroke="none"/>
      <circle stroke-linecap="butt" clip-path="url(#clipPath2)" fill="none" r="8.0359" cx="404.0944" cy="132.6818" stroke-width="2" stroke-miterlimit="1.45"/>
      <circle r="8.0359" clip-path="url(#clipPath2)" cx="521.7622" cy="229.5444" stroke="none"/>
      <circle stroke-linecap="butt" clip-path="url(#clipPath2)" fill="none" r="8.0359" cx="521.7622" cy="229.5444" stroke-width="2" stroke-miterlimit="1.45"/>
      <circle r="8.0359" clip-path="url(#clipPath2)" cx="598.6773" cy="57.7833" stroke="none"/>
      <circle stroke-linecap="butt" clip-path="url(#clipPath2)" fill="none" r="8.0359" cx="598.6773" cy="57.7833" stroke-width="2" stroke-miterlimit="1.45"/>
      <circle r="8.0359" clip-path="url(#clipPath2)" cx="598.6773" cy="103.855" stroke="none"/>
      <circle stroke-linecap="butt" clip-path="url(#clipPath2)" fill="none" r="8.0359" cx="598.6773" cy="103.855" stroke-width="2" stroke-miterlimit="1.45"/>
      <circle r="8.0359" clip-path="url(#clipPath2)" cx="585.7712" cy="161.5085" stroke="none"/>
      <circle stroke-linecap="butt" clip-path="url(#clipPath2)" fill="none" r="8.0359" cx="585.7712" cy="161.5085" stroke-width="2" stroke-miterlimit="1.45"/>
      <circle r="8.0359" clip-path="url(#clipPath2)" cx="414.3026" cy="229.5444" stroke="none"/>
      <circle stroke-linecap="butt" clip-path="url(#clipPath2)" fill="none" r="8.0359" cx="414.3026" cy="229.5444" stroke-width="2" stroke-miterlimit="1.45"/>
      <circle r="8.0359" clip-path="url(#clipPath2)" cx="398.2309" cy="203.7781" stroke="none"/>
      <circle stroke-linecap="butt" clip-path="url(#clipPath2)" fill="none" r="8.0359" cx="398.2309" cy="203.7781" stroke-width="2" stroke-miterlimit="1.45"/>
      <circle r="8.0359" clip-path="url(#clipPath2)" cx="420.1661" cy="161.5085" stroke="none"/>
      <circle stroke-linecap="butt" clip-path="url(#clipPath2)" fill="none" r="8.0359" cx="420.1661" cy="161.5085" stroke-width="2" stroke-miterlimit="1.45"/>
      <circle r="8.0359" clip-path="url(#clipPath2)" cx="564.4342" cy="203.7781" stroke="none"/>
      <circle stroke-linecap="butt" clip-path="url(#clipPath2)" fill="none" r="8.0359" cx="564.4342" cy="203.7781" stroke-width="2" stroke-miterlimit="1.45"/>
    </g>
    <g text-rendering="geometricPrecision" stroke-miterlimit="1.45" stroke-width="2" shape-rendering="geometricPrecision" transform="matrix(1,0,0,1,-243,19)" stroke-linecap="butt">
      <path fill="none" d="M318.4968 132.6818 L403.769 132.6818" clip-path="url(#clipPath2)"/>
      <path fill="none" d="M398.627 202.7297 L420.3165 159.4965" clip-path="url(#clipPath2)"/>
      <path fill="none" d="M415.1745 229.5444 L521.8058 229.5444" clip-path="url(#clipPath2)"/>
      <path fill="none" d="M564.8732 202.5399 L585.6099 159.6863" clip-path="url(#clipPath2)"/>
      <path fill="none" d="M598.6773 102.6818 L598.6773 56.0026" clip-path="url(#clipPath2)"/>
    </g>
  </g>
</svg>
