<?xml version="1.0" encoding="UTF-8"?><svg xmlns="http://www.w3.org/2000/svg" xmlns:xlink="http://www.w3.org/1999/xlink" fill-opacity="1" color-rendering="auto" color-interpolation="auto" text-rendering="auto" stroke="black" stroke-linecap="square" width="301" stroke-miterlimit="10" shape-rendering="auto" stroke-opacity="1" fill="black" stroke-dasharray="none" font-weight="normal" stroke-width="1" height="100" font-family="'Dialog'" font-style="normal" stroke-linejoin="miter" font-size="12px" stroke-dashoffset="0" image-rendering="auto">
  <!--Generated by ySVG 2.5-->
  <defs id="genericDefs"/>
  <g>
    <defs id="defs1">
      <clipPath clipPathUnits="userSpaceOnUse" id="clipPath1">
        <path d="M0 0 L301 0 L301 100 L0 100 L0 0 Z"/>
      </clipPath>
      <clipPath clipPathUnits="userSpaceOnUse" id="clipPath2">
        <path d="M287 191 L588 191 L588 291 L287 291 L287 191 Z"/>
      </clipPath>
    </defs>
    <g fill="rgb(179,211,19)" text-rendering="geometricPrecision" shape-rendering="geometricPrecision" transform="matrix(1,0,0,1,-287,-191)" stroke="rgb(179,211,19)">
      <circle r="30" clip-path="url(#clipPath2)" cx="543" cy="236" stroke="none"/>
    </g>
    <g text-rendering="geometricPrecision" stroke-miterlimit="1.45" shape-rendering="geometricPrecision" font-family="'Monaco'" transform="matrix(1,0,0,1,-287,-191)" stroke-linecap="butt">
      <text x="535.7988" xml:space="preserve" y="240.5" clip-path="url(#clipPath2)" stroke="none">N2</text>
    </g>
    <g fill="rgb(179,211,19)" text-rendering="geometricPrecision" shape-rendering="geometricPrecision" transform="matrix(1,0,0,1,-287,-191)" stroke="rgb(179,211,19)">
      <circle r="30" clip-path="url(#clipPath2)" cx="332" cy="236" stroke="none"/>
    </g>
    <g text-rendering="geometricPrecision" stroke-miterlimit="1.45" shape-rendering="geometricPrecision" font-family="'Monaco'" transform="matrix(1,0,0,1,-287,-191)" stroke-linecap="butt">
      <text x="324.7988" xml:space="preserve" y="240.5" clip-path="url(#clipPath2)" stroke="none">N1</text>
      <path fill="none" d="M362 236 L499.25 236" stroke-width="3" clip-path="url(#clipPath2)"/>
      <path d="M513 236 L498 228.5 L498 243.5 Z" stroke-width="3" clip-path="url(#clipPath2)" stroke="none"/>
      <text x="430.2988" xml:space="preserve" y="270.5" clip-path="url(#clipPath2)" stroke="none">A1</text>
    </g>
  </g>
</svg>
