<?xml version="1.0" encoding="UTF-8"?><svg xmlns="http://www.w3.org/2000/svg" xmlns:xlink="http://www.w3.org/1999/xlink" fill-opacity="1" color-rendering="auto" color-interpolation="auto" text-rendering="auto" stroke="black" stroke-linecap="square" width="554" stroke-miterlimit="10" shape-rendering="auto" stroke-opacity="1" fill="black" stroke-dasharray="none" font-weight="normal" stroke-width="1" height="461" font-family="'Dialog'" font-style="normal" stroke-linejoin="miter" font-size="12px" stroke-dashoffset="0" image-rendering="auto">
  <!--Generated by ySVG 2.5-->
  <defs id="genericDefs"/>
  <g>
    <defs id="defs1">
      <clipPath clipPathUnits="userSpaceOnUse" id="clipPath1">
        <path d="M0 0 L554 0 L554 461 L0 461 L0 0 Z"/>
      </clipPath>
      <clipPath clipPathUnits="userSpaceOnUse" id="clipPath2">
        <path d="M98 -164 L652 -164 L652 297 L98 297 L98 -164 Z"/>
      </clipPath>
    </defs>
    <g fill="white" text-rendering="geometricPrecision" shape-rendering="geometricPrecision" transform="translate(-98,164)" stroke="white">
      <rect x="98" width="554" height="461" y="-164" clip-path="url(#clipPath2)" stroke="none"/>
    </g>
    <g fill="rgb(0,140,255)" text-rendering="geometricPrecision" shape-rendering="geometricPrecision" transform="matrix(1,0,0,1,-98,164)" stroke="rgb(0,140,255)">
      <circle r="30" clip-path="url(#clipPath2)" cx="288.4968" cy="132.6818" stroke="none"/>
    </g>
    <g text-rendering="geometricPrecision" stroke-miterlimit="1.45" shape-rendering="geometricPrecision" font-family="'Monaco'" transform="matrix(1,0,0,1,-98,164)" stroke-linecap="butt">
      <text x="277.6951" xml:space="preserve" y="137.1818" clip-path="url(#clipPath2)" stroke="none">Oxf</text>
    </g>
    <g fill="rgb(0,140,255)" text-rendering="geometricPrecision" shape-rendering="geometricPrecision" transform="matrix(1,0,0,1,-98,164)" stroke="rgb(0,140,255)">
      <circle r="30" clip-path="url(#clipPath2)" cx="459.769" cy="94.3635" stroke="none"/>
    </g>
    <g text-rendering="geometricPrecision" stroke-miterlimit="1.45" shape-rendering="geometricPrecision" font-family="'Monaco'" transform="matrix(1,0,0,1,-98,164)" stroke-linecap="butt">
      <text x="445.3667" xml:space="preserve" y="98.8635" clip-path="url(#clipPath2)" stroke="none">Tott</text>
    </g>
    <g fill="rgb(0,140,255)" text-rendering="geometricPrecision" shape-rendering="geometricPrecision" transform="matrix(1,0,0,1,-98,164)" stroke="rgb(0,140,255)">
      <circle r="30" clip-path="url(#clipPath2)" cx="384.538" cy="4.3635" stroke="none"/>
    </g>
    <g text-rendering="geometricPrecision" stroke-miterlimit="1.45" shape-rendering="geometricPrecision" font-family="'Monaco'" transform="matrix(1,0,0,1,-98,164)" stroke-linecap="butt">
      <text x="370.1357" xml:space="preserve" y="8.8635" clip-path="url(#clipPath2)" stroke="none">Warr</text>
    </g>
    <g fill="rgb(0,140,255)" text-rendering="geometricPrecision" shape-rendering="geometricPrecision" transform="matrix(1,0,0,1,-98,164)" stroke="rgb(0,140,255)">
      <circle r="30" clip-path="url(#clipPath2)" cx="232.8451" cy="42.6818" stroke="none"/>
    </g>
    <g text-rendering="geometricPrecision" stroke-miterlimit="1.45" shape-rendering="geometricPrecision" font-family="'Monaco'" transform="matrix(1,0,0,1,-98,164)" stroke-linecap="butt">
      <text x="222.0434" xml:space="preserve" y="47.1818" clip-path="url(#clipPath2)" stroke="none">Reg</text>
    </g>
    <g fill="rgb(0,140,255)" text-rendering="geometricPrecision" shape-rendering="geometricPrecision" transform="matrix(1,0,0,1,-98,164)" stroke="rgb(0,140,255)">
      <circle r="30" clip-path="url(#clipPath2)" cx="143.2247" cy="121.7271" stroke="none"/>
    </g>
    <g text-rendering="geometricPrecision" stroke-miterlimit="1.45" shape-rendering="geometricPrecision" font-family="'Monaco'" transform="matrix(1,0,0,1,-98,164)" stroke-linecap="butt">
      <text x="128.8223" xml:space="preserve" y="126.2271" clip-path="url(#clipPath2)" stroke="none">Bond</text>
    </g>
    <g fill="rgb(0,140,255)" text-rendering="geometricPrecision" shape-rendering="geometricPrecision" transform="matrix(1,0,0,1,-98,164)" stroke="rgb(0,140,255)">
      <circle r="30" clip-path="url(#clipPath2)" cx="232.8451" cy="238.4088" stroke="none"/>
    </g>
    <g text-rendering="geometricPrecision" stroke-miterlimit="1.45" shape-rendering="geometricPrecision" font-family="'Monaco'" transform="matrix(1,0,0,1,-98,164)" stroke-linecap="butt">
      <text x="214.8422" xml:space="preserve" y="242.9088" clip-path="url(#clipPath2)" stroke="none">Green</text>
    </g>
    <g fill="rgb(0,140,255)" text-rendering="geometricPrecision" shape-rendering="geometricPrecision" transform="matrix(1,0,0,1,-98,164)" stroke="rgb(0,140,255)">
      <circle r="30" clip-path="url(#clipPath2)" cx="420.6141" cy="251.0906" stroke="none"/>
    </g>
    <g text-rendering="geometricPrecision" stroke-miterlimit="1.45" shape-rendering="geometricPrecision" font-family="'Monaco'" transform="matrix(1,0,0,1,-98,164)" stroke-linecap="butt">
      <text x="402.6112" xml:space="preserve" y="255.5906" clip-path="url(#clipPath2)" stroke="none">Picca</text>
    </g>
    <g fill="rgb(0,140,255)" text-rendering="geometricPrecision" shape-rendering="geometricPrecision" transform="matrix(1,0,0,1,-98,164)" stroke="rgb(0,140,255)">
      <circle r="30" clip-path="url(#clipPath2)" cx="159.6902" cy="-80.6365" stroke="none"/>
    </g>
    <g text-rendering="geometricPrecision" stroke-miterlimit="1.45" shape-rendering="geometricPrecision" font-family="'Monaco'" transform="matrix(1,0,0,1,-98,164)" stroke-linecap="butt">
      <text x="145.2879" xml:space="preserve" y="-76.1365" clip-path="url(#clipPath2)" stroke="none">Bake</text>
    </g>
    <g fill="rgb(0,140,255)" text-rendering="geometricPrecision" shape-rendering="geometricPrecision" transform="matrix(1,0,0,1,-98,164)" stroke="rgb(0,140,255)">
      <circle r="30" clip-path="url(#clipPath2)" cx="288.4968" cy="-107.2729" stroke="none"/>
    </g>
    <g text-rendering="geometricPrecision" stroke-miterlimit="1.45" shape-rendering="geometricPrecision" font-family="'Monaco'" transform="matrix(1,0,0,1,-98,164)" stroke-linecap="butt">
      <text x="270.4939" xml:space="preserve" y="-102.7729" clip-path="url(#clipPath2)" stroke="none">Great</text>
    </g>
    <g fill="rgb(0,140,255)" text-rendering="geometricPrecision" shape-rendering="geometricPrecision" transform="matrix(1,0,0,1,-98,164)" stroke="rgb(0,140,255)">
      <circle r="30" clip-path="url(#clipPath2)" cx="537.2283" cy="214.1812" stroke="none"/>
    </g>
    <g text-rendering="geometricPrecision" stroke-miterlimit="1.45" shape-rendering="geometricPrecision" font-family="'Monaco'" transform="matrix(1,0,0,1,-98,164)" stroke-linecap="butt">
      <text x="522.8259" xml:space="preserve" y="218.6812" clip-path="url(#clipPath2)" stroke="none">Leic</text>
    </g>
    <g fill="rgb(0,140,255)" text-rendering="geometricPrecision" shape-rendering="geometricPrecision" transform="matrix(1,0,0,1,-98,164)" stroke="rgb(0,140,255)">
      <circle r="30" clip-path="url(#clipPath2)" cx="606.4565" cy="132.6818" stroke="none"/>
    </g>
    <g text-rendering="geometricPrecision" stroke-miterlimit="1.45" shape-rendering="geometricPrecision" font-family="'Monaco'" transform="matrix(1,0,0,1,-98,164)" stroke-linecap="butt">
      <text x="588.4536" xml:space="preserve" y="137.1818" clip-path="url(#clipPath2)" stroke="none">Coven</text>
    </g>
    <g fill="rgb(0,140,255)" text-rendering="geometricPrecision" shape-rendering="geometricPrecision" transform="matrix(1,0,0,1,-98,164)" stroke="rgb(0,140,255)">
      <circle r="30" clip-path="url(#clipPath2)" cx="561.9131" cy="23.3635" stroke="none"/>
    </g>
    <g text-rendering="geometricPrecision" stroke-miterlimit="1.45" shape-rendering="geometricPrecision" font-family="'Monaco'" transform="matrix(1,0,0,1,-98,164)" stroke-linecap="butt">
      <text x="547.5107" xml:space="preserve" y="27.8635" clip-path="url(#clipPath2)" stroke="none">Holb</text>
    </g>
    <g fill="rgb(0,140,255)" text-rendering="geometricPrecision" shape-rendering="geometricPrecision" transform="matrix(1,0,0,1,-98,164)" stroke="rgb(0,140,255)">
      <circle r="30" clip-path="url(#clipPath2)" cx="434.0761" cy="-118.2729" stroke="none"/>
    </g>
    <g text-rendering="geometricPrecision" stroke-miterlimit="1.45" shape-rendering="geometricPrecision" font-family="'Monaco'" transform="matrix(1,0,0,1,-98,164)" stroke-linecap="butt">
      <text x="419.6737" xml:space="preserve" y="-113.7729" clip-path="url(#clipPath2)" stroke="none">King</text>
      <path fill="none" d="M317.7731 126.1319 L430.4928 100.9134" stroke-width="2" clip-path="url(#clipPath2)"/>
      <path fill="none" d="M306.4732 108.664 L366.5617 28.3813" stroke-width="2" clip-path="url(#clipPath2)"/>
      <path fill="none" d="M272.719 107.1659 L248.6229 68.1977" stroke-width="2" clip-path="url(#clipPath2)"/>
      <path fill="none" d="M258.5818 130.4259 L173.1397 123.9829" stroke-width="2" clip-path="url(#clipPath2)"/>
      <path fill="none" d="M274.5233 159.2287 L246.8187 211.8619" stroke-width="2" clip-path="url(#clipPath2)"/>
      <path fill="none" d="M310.8374 152.7043 L398.2736 231.0681" stroke-width="2" clip-path="url(#clipPath2)"/>
      <path fill="none" d="M217.5391 16.8801 L174.9963 -54.8348" stroke-width="2" clip-path="url(#clipPath2)"/>
      <path fill="none" d="M189.0686 -86.7118 L259.1184 -101.1976" stroke-width="2" clip-path="url(#clipPath2)"/>
      <path fill="none" d="M449.2157 242.038 L508.6267 223.2339" stroke-width="2" clip-path="url(#clipPath2)"/>
      <path fill="none" d="M556.6502 191.3166 L587.0346 155.5464" stroke-width="2" clip-path="url(#clipPath2)"/>
      <path fill="none" d="M595.1362 104.8996 L573.2334 51.1457" stroke-width="2" clip-path="url(#clipPath2)"/>
      <path fill="none" d="M537.2795 40.4862 L484.4026 77.2408" stroke-width="2" clip-path="url(#clipPath2)"/>
      <path fill="none" d="M395.7742 -23.4528 L422.8399 -90.4566" stroke-width="2" clip-path="url(#clipPath2)"/>
    </g>
  </g>
</svg>
