<?xml version="1.0" encoding="UTF-8"?><svg xmlns="http://www.w3.org/2000/svg" xmlns:xlink="http://www.w3.org/1999/xlink" fill-opacity="1" color-rendering="auto" color-interpolation="auto" text-rendering="auto" stroke="black" stroke-linecap="square" width="433" stroke-miterlimit="10" shape-rendering="auto" stroke-opacity="1" fill="black" stroke-dasharray="none" font-weight="normal" stroke-width="1" height="501" font-family="'Dialog'" font-style="normal" stroke-linejoin="miter" font-size="12px" stroke-dashoffset="0" image-rendering="auto">
  <!--Generated by ySVG 2.5-->
  <defs id="genericDefs"/>
  <g>
    <defs id="defs1">
      <clipPath clipPathUnits="userSpaceOnUse" id="clipPath1">
        <path d="M0 0 L433 0 L433 501 L0 501 L0 0 Z"/>
      </clipPath>
      <clipPath clipPathUnits="userSpaceOnUse" id="clipPath2">
        <path d="M216 -136 L649 -136 L649 365 L216 365 L216 -136 Z"/>
      </clipPath>
    </defs>
    <g fill="rgb(51,204,255)" text-rendering="geometricPrecision" shape-rendering="geometricPrecision" transform="matrix(1,0,0,1,-216,136)" stroke="rgb(51,204,255)">
      <circle r="41" clip-path="url(#clipPath2)" cx="370.9077" cy="45.3099" stroke="none"/>
    </g>
    <g text-rendering="geometricPrecision" stroke-miterlimit="1.45" shape-rendering="geometricPrecision" font-family="'Monaco'" transform="matrix(1,0,0,1,-216,136)" stroke-linecap="butt">
      <text x="338.5024" xml:space="preserve" y="49.8099" clip-path="url(#clipPath2)" stroke="none">Oxford C.</text>
    </g>
    <g fill="rgb(0,140,255)" text-rendering="geometricPrecision" shape-rendering="geometricPrecision" transform="matrix(1,0,0,1,-216,136)" stroke="rgb(0,140,255)">
      <circle r="41" clip-path="url(#clipPath2)" cx="432.8155" cy="-79.3803" stroke="none"/>
    </g>
    <g text-rendering="geometricPrecision" stroke-miterlimit="1.45" shape-rendering="geometricPrecision" font-family="'Monaco'" transform="matrix(1,0,0,1,-216,136)" stroke-linecap="butt">
      <text x="396.8096" xml:space="preserve" y="-74.8803" clip-path="url(#clipPath2)" stroke="none">Warren St.</text>
    </g>
    <g fill="rgb(0,140,255)" text-rendering="geometricPrecision" shape-rendering="geometricPrecision" transform="matrix(1,0,0,1,-216,136)" stroke="rgb(0,140,255)">
      <circle r="41" clip-path="url(#clipPath2)" cx="506.8155" cy="32.6197" stroke="none"/>
    </g>
    <g text-rendering="geometricPrecision" stroke-miterlimit="1.45" shape-rendering="geometricPrecision" font-family="'Monaco'" transform="matrix(1,0,0,1,-216,136)" stroke-linecap="butt">
      <text x="474.4102" xml:space="preserve" y="37.1197" clip-path="url(#clipPath2)" stroke="none">Tottenham</text>
    </g>
    <g fill="rgb(0,140,255)" text-rendering="geometricPrecision" shape-rendering="geometricPrecision" transform="matrix(1,0,0,1,-216,136)" stroke="rgb(0,140,255)">
      <circle r="41" clip-path="url(#clipPath2)" cx="467.7232" cy="144.6197" stroke="none"/>
    </g>
    <g text-rendering="geometricPrecision" stroke-miterlimit="1.45" shape-rendering="geometricPrecision" font-family="'Monaco'" transform="matrix(1,0,0,1,-216,136)" stroke-linecap="butt">
      <text x="431.7173" xml:space="preserve" y="149.1197" clip-path="url(#clipPath2)" stroke="none">Piccadilly</text>
    </g>
    <g fill="rgb(0,140,255)" text-rendering="geometricPrecision" shape-rendering="geometricPrecision" transform="matrix(1,0,0,1,-216,136)" stroke="rgb(0,140,255)">
      <circle r="41" clip-path="url(#clipPath2)" cx="326.4464" cy="176.9296" stroke="none"/>
    </g>
    <g text-rendering="geometricPrecision" stroke-miterlimit="1.45" shape-rendering="geometricPrecision" font-family="'Monaco'" transform="matrix(1,0,0,1,-216,136)" stroke-linecap="butt">
      <text x="290.4405" xml:space="preserve" y="181.4296" clip-path="url(#clipPath2)" stroke="none">Green Park</text>
    </g>
    <g fill="rgb(0,140,255)" text-rendering="geometricPrecision" shape-rendering="geometricPrecision" transform="matrix(1,0,0,1,-216,136)" stroke="rgb(0,140,255)">
      <circle r="41" clip-path="url(#clipPath2)" cx="591.7232" cy="197.8591" stroke="none"/>
    </g>
    <g text-rendering="geometricPrecision" stroke-miterlimit="1.45" shape-rendering="geometricPrecision" font-family="'Monaco'" transform="matrix(1,0,0,1,-216,136)" stroke-linecap="butt">
      <text x="552.1168" xml:space="preserve" y="202.3591" clip-path="url(#clipPath2)" stroke="none">Charing Cr.</text>
    </g>
    <g fill="rgb(0,140,255)" text-rendering="geometricPrecision" shape-rendering="geometricPrecision" transform="matrix(1,0,0,1,-216,136)" stroke="rgb(0,140,255)">
      <circle r="41" clip-path="url(#clipPath2)" cx="272.9077" cy="-36.6901" stroke="none"/>
    </g>
    <g text-rendering="geometricPrecision" stroke-miterlimit="1.45" shape-rendering="geometricPrecision" font-family="'Monaco'" transform="matrix(1,0,0,1,-216,136)" stroke-linecap="butt">
      <text x="244.103" xml:space="preserve" y="-32.1901" clip-path="url(#clipPath2)" stroke="none">Bond St.</text>
    </g>
    <g fill="rgb(0,140,255)" text-rendering="geometricPrecision" shape-rendering="geometricPrecision" transform="matrix(1,0,0,1,-216,136)" stroke="rgb(0,140,255)">
      <circle r="41" clip-path="url(#clipPath2)" cx="289.8927" cy="308.5493" stroke="none"/>
    </g>
    <g text-rendering="geometricPrecision" stroke-miterlimit="1.45" shape-rendering="geometricPrecision" font-family="'Monaco'" transform="matrix(1,0,0,1,-216,136)" stroke-linecap="butt">
      <text x="261.088" xml:space="preserve" y="313.0493" clip-path="url(#clipPath2)" stroke="none">Victoria</text>
      <path fill="none" d="M389.1404 8.587 L414.5828 -42.6574" stroke-width="3" clip-path="url(#clipPath2)"/>
      <path fill="none" d="M411.7302 41.4981 L465.993 36.4314" stroke-width="3" clip-path="url(#clipPath2)"/>
      <path fill="none" d="M399.5281 74.6676 L439.1028 115.262" stroke-width="3" clip-path="url(#clipPath2)"/>
      <path fill="none" d="M427.7551 153.7604 L366.4145 167.7889" stroke-width="2" clip-path="url(#clipPath2)"/>
      <path fill="none" d="M505.3975 160.7952 L554.0489 181.6837" stroke-width="2" clip-path="url(#clipPath2)"/>
      <path fill="none" d="M339.4633 18.9992 L304.3521 -10.3795" stroke-width="3" clip-path="url(#clipPath2)"/>
      <path fill="none" d="M315.475 216.4344 L300.8641 269.0445" stroke-width="2" clip-path="url(#clipPath2)"/>
    </g>
  </g>
</svg>
