<?xml version="1.0" encoding="UTF-8"?><svg xmlns="http://www.w3.org/2000/svg" xmlns:xlink="http://www.w3.org/1999/xlink" fill-opacity="1" color-rendering="auto" color-interpolation="auto" text-rendering="auto" stroke="black" stroke-linecap="square" width="1025" stroke-miterlimit="10" shape-rendering="auto" stroke-opacity="1" fill="black" stroke-dasharray="none" font-weight="normal" stroke-width="1" height="393" font-family="'Dialog'" font-style="normal" stroke-linejoin="miter" font-size="12px" stroke-dashoffset="0" image-rendering="auto">
  <!--Generated by ySVG 2.5-->
  <defs id="genericDefs"/>
  <g>
    <defs id="defs1">
      <clipPath clipPathUnits="userSpaceOnUse" id="clipPath1">
        <path d="M0 0 L1025 0 L1025 393 L0 393 L0 0 Z"/>
      </clipPath>
      <clipPath clipPathUnits="userSpaceOnUse" id="clipPath2">
        <path d="M-109 109 L916 109 L916 502 L-109 502 L-109 109 Z"/>
      </clipPath>
    </defs>
    <g fill="white" text-rendering="geometricPrecision" shape-rendering="geometricPrecision" transform="translate(109,-109)" stroke="white">
      <rect x="-109" width="1025" height="393" y="109" clip-path="url(#clipPath2)" stroke="none"/>
    </g>
    <g fill="rgb(247,36,106)" text-rendering="geometricPrecision" shape-rendering="geometricPrecision" transform="matrix(1,0,0,1,109,-109)" stroke="rgb(247,36,106)">
      <circle r="30" clip-path="url(#clipPath2)" cx="50" cy="251" stroke="none"/>
    </g>
    <g text-rendering="geometricPrecision" stroke-miterlimit="1.45" shape-rendering="geometricPrecision" font-family="'Monaco'" transform="matrix(1,0,0,1,109,-109)" stroke-linecap="butt">
      <text x="42.7988" xml:space="preserve" y="255.5" clip-path="url(#clipPath2)" stroke="none">N2</text>
    </g>
    <g fill="rgb(247,36,106)" text-rendering="geometricPrecision" shape-rendering="geometricPrecision" transform="matrix(1,0,0,1,109,-109)" stroke="rgb(247,36,106)">
      <circle r="30" clip-path="url(#clipPath2)" cx="132" cy="154" stroke="none"/>
    </g>
    <g text-rendering="geometricPrecision" stroke-miterlimit="1.45" shape-rendering="geometricPrecision" font-family="'Monaco'" transform="matrix(1,0,0,1,109,-109)" stroke-linecap="butt">
      <text x="124.7988" xml:space="preserve" y="158.5" clip-path="url(#clipPath2)" stroke="none">N5</text>
    </g>
    <g fill="rgb(247,36,106)" text-rendering="geometricPrecision" shape-rendering="geometricPrecision" transform="matrix(1,0,0,1,109,-109)" stroke="rgb(247,36,106)">
      <circle r="30" clip-path="url(#clipPath2)" cx="-6" cy="389" stroke="none"/>
    </g>
    <g text-rendering="geometricPrecision" stroke-miterlimit="1.45" shape-rendering="geometricPrecision" font-family="'Monaco'" transform="matrix(1,0,0,1,109,-109)" stroke-linecap="butt">
      <text x="-13.2012" xml:space="preserve" y="393.5" clip-path="url(#clipPath2)" stroke="none">N4</text>
    </g>
    <g fill="rgb(247,36,106)" text-rendering="geometricPrecision" shape-rendering="geometricPrecision" transform="matrix(1,0,0,1,109,-109)" stroke="rgb(247,36,106)">
      <circle r="30" clip-path="url(#clipPath2)" cx="94" cy="341" stroke="none"/>
    </g>
    <g text-rendering="geometricPrecision" stroke-miterlimit="1.45" shape-rendering="geometricPrecision" font-family="'Monaco'" transform="matrix(1,0,0,1,109,-109)" stroke-linecap="butt">
      <text x="86.7988" xml:space="preserve" y="345.5" clip-path="url(#clipPath2)" stroke="none">N3</text>
    </g>
    <g fill="rgb(247,36,106)" text-rendering="geometricPrecision" shape-rendering="geometricPrecision" transform="matrix(1,0,0,1,109,-109)" stroke="rgb(247,36,106)">
      <circle r="30" clip-path="url(#clipPath2)" cx="214" cy="251" stroke="none"/>
    </g>
    <g text-rendering="geometricPrecision" stroke-miterlimit="1.45" shape-rendering="geometricPrecision" font-family="'Monaco'" transform="matrix(1,0,0,1,109,-109)" stroke-linecap="butt">
      <text x="206.7988" xml:space="preserve" y="255.5" clip-path="url(#clipPath2)" stroke="none">N6</text>
    </g>
    <g fill="rgb(247,36,106)" text-rendering="geometricPrecision" shape-rendering="geometricPrecision" transform="matrix(1,0,0,1,109,-109)" stroke="rgb(247,36,106)">
      <circle r="30" clip-path="url(#clipPath2)" cx="-64" cy="190" stroke="none"/>
    </g>
    <g text-rendering="geometricPrecision" stroke-miterlimit="1.45" shape-rendering="geometricPrecision" font-family="'Monaco'" transform="matrix(1,0,0,1,109,-109)" stroke-linecap="butt">
      <text x="-71.2012" xml:space="preserve" y="194.5" clip-path="url(#clipPath2)" stroke="none">N1</text>
    </g>
    <g fill="rgb(247,36,106)" text-rendering="geometricPrecision" shape-rendering="geometricPrecision" transform="matrix(1,0,0,1,109,-109)" stroke="rgb(247,36,106)">
      <circle r="30" clip-path="url(#clipPath2)" cx="214" cy="383" stroke="none"/>
    </g>
    <g text-rendering="geometricPrecision" stroke-miterlimit="1.45" shape-rendering="geometricPrecision" font-family="'Monaco'" transform="matrix(1,0,0,1,109,-109)" stroke-linecap="butt">
      <text x="206.7988" xml:space="preserve" y="387.5" clip-path="url(#clipPath2)" stroke="none">N7</text>
    </g>
    <g fill="rgb(247,36,106)" text-rendering="geometricPrecision" shape-rendering="geometricPrecision" transform="matrix(1,0,0,1,109,-109)" stroke="rgb(247,36,106)">
      <circle r="30" clip-path="url(#clipPath2)" cx="351" cy="190" stroke="none"/>
    </g>
    <g text-rendering="geometricPrecision" stroke-miterlimit="1.45" shape-rendering="geometricPrecision" font-family="'Monaco'" transform="matrix(1,0,0,1,109,-109)" stroke-linecap="butt">
      <text x="343.7988" xml:space="preserve" y="194.5" clip-path="url(#clipPath2)" stroke="none">N9</text>
    </g>
    <g fill="rgb(247,36,106)" text-rendering="geometricPrecision" shape-rendering="geometricPrecision" transform="matrix(1,0,0,1,109,-109)" stroke="rgb(247,36,106)">
      <circle r="30" clip-path="url(#clipPath2)" cx="314" cy="301" stroke="none"/>
    </g>
    <g text-rendering="geometricPrecision" stroke-miterlimit="1.45" shape-rendering="geometricPrecision" font-family="'Monaco'" transform="matrix(1,0,0,1,109,-109)" stroke-linecap="butt">
      <text x="306.7988" xml:space="preserve" y="305.5" clip-path="url(#clipPath2)" stroke="none">N8</text>
    </g>
    <g fill="silver" text-rendering="geometricPrecision" shape-rendering="geometricPrecision" transform="matrix(1,0,0,1,109,-109)" stroke="silver">
      <circle r="30" clip-path="url(#clipPath2)" cx="570" cy="251" stroke="none"/>
    </g>
    <g text-rendering="geometricPrecision" stroke-miterlimit="1.45" shape-rendering="geometricPrecision" font-family="'Monaco'" transform="matrix(1,0,0,1,109,-109)" stroke-linecap="butt">
      <text x="562.7988" xml:space="preserve" y="255.5" clip-path="url(#clipPath2)" stroke="none">N2</text>
    </g>
    <g fill="rgb(247,36,106)" text-rendering="geometricPrecision" shape-rendering="geometricPrecision" transform="matrix(1,0,0,1,109,-109)" stroke="rgb(247,36,106)">
      <circle r="30" clip-path="url(#clipPath2)" cx="652" cy="154" stroke="none"/>
    </g>
    <g text-rendering="geometricPrecision" stroke-miterlimit="1.45" shape-rendering="geometricPrecision" font-family="'Monaco'" transform="matrix(1,0,0,1,109,-109)" stroke-linecap="butt">
      <text x="644.7988" xml:space="preserve" y="158.5" clip-path="url(#clipPath2)" stroke="none">N5</text>
    </g>
    <g fill="rgb(247,36,106)" text-rendering="geometricPrecision" shape-rendering="geometricPrecision" transform="matrix(1,0,0,1,109,-109)" stroke="rgb(247,36,106)">
      <circle r="30" clip-path="url(#clipPath2)" cx="514" cy="389" stroke="none"/>
    </g>
    <g text-rendering="geometricPrecision" stroke-miterlimit="1.45" shape-rendering="geometricPrecision" font-family="'Monaco'" transform="matrix(1,0,0,1,109,-109)" stroke-linecap="butt">
      <text x="506.7988" xml:space="preserve" y="393.5" clip-path="url(#clipPath2)" stroke="none">N4</text>
    </g>
    <g fill="rgb(247,36,106)" text-rendering="geometricPrecision" shape-rendering="geometricPrecision" transform="matrix(1,0,0,1,109,-109)" stroke="rgb(247,36,106)">
      <circle r="30" clip-path="url(#clipPath2)" cx="614" cy="341" stroke="none"/>
    </g>
    <g text-rendering="geometricPrecision" stroke-miterlimit="1.45" shape-rendering="geometricPrecision" font-family="'Monaco'" transform="matrix(1,0,0,1,109,-109)" stroke-linecap="butt">
      <text x="606.7988" xml:space="preserve" y="345.5" clip-path="url(#clipPath2)" stroke="none">N3</text>
    </g>
    <g fill="silver" text-rendering="geometricPrecision" shape-rendering="geometricPrecision" transform="matrix(1,0,0,1,109,-109)" stroke="silver">
      <circle r="30" clip-path="url(#clipPath2)" cx="734" cy="251" stroke="none"/>
    </g>
    <g text-rendering="geometricPrecision" stroke-miterlimit="1.45" shape-rendering="geometricPrecision" font-family="'Monaco'" transform="matrix(1,0,0,1,109,-109)" stroke-linecap="butt">
      <text x="726.7988" xml:space="preserve" y="255.5" clip-path="url(#clipPath2)" stroke="none">N6</text>
    </g>
    <g fill="silver" text-rendering="geometricPrecision" shape-rendering="geometricPrecision" transform="matrix(1,0,0,1,109,-109)" stroke="silver">
      <circle r="30" clip-path="url(#clipPath2)" cx="456" cy="190" stroke="none"/>
    </g>
    <g text-rendering="geometricPrecision" stroke-miterlimit="1.45" shape-rendering="geometricPrecision" font-family="'Monaco'" transform="matrix(1,0,0,1,109,-109)" stroke-linecap="butt">
      <text x="448.7988" xml:space="preserve" y="194.5" clip-path="url(#clipPath2)" stroke="none">N1</text>
    </g>
    <g fill="rgb(247,36,106)" text-rendering="geometricPrecision" shape-rendering="geometricPrecision" transform="matrix(1,0,0,1,109,-109)" stroke="rgb(247,36,106)">
      <circle r="30" clip-path="url(#clipPath2)" cx="734" cy="383" stroke="none"/>
    </g>
    <g text-rendering="geometricPrecision" stroke-miterlimit="1.45" shape-rendering="geometricPrecision" font-family="'Monaco'" transform="matrix(1,0,0,1,109,-109)" stroke-linecap="butt">
      <text x="726.7988" xml:space="preserve" y="387.5" clip-path="url(#clipPath2)" stroke="none">N7</text>
    </g>
    <g fill="silver" text-rendering="geometricPrecision" shape-rendering="geometricPrecision" transform="matrix(1,0,0,1,109,-109)" stroke="silver">
      <circle r="30" clip-path="url(#clipPath2)" cx="871" cy="190" stroke="none"/>
    </g>
    <g text-rendering="geometricPrecision" stroke-miterlimit="1.45" shape-rendering="geometricPrecision" font-family="'Monaco'" transform="matrix(1,0,0,1,109,-109)" stroke-linecap="butt">
      <text x="863.7988" xml:space="preserve" y="194.5" clip-path="url(#clipPath2)" stroke="none">N9</text>
    </g>
    <g fill="rgb(247,36,106)" text-rendering="geometricPrecision" shape-rendering="geometricPrecision" transform="matrix(1,0,0,1,109,-109)" stroke="rgb(247,36,106)">
      <circle r="30" clip-path="url(#clipPath2)" cx="834" cy="301" stroke="none"/>
    </g>
    <g text-rendering="geometricPrecision" stroke-miterlimit="1.45" shape-rendering="geometricPrecision" font-family="'Monaco'" transform="matrix(1,0,0,1,109,-109)" stroke-linecap="butt">
      <text x="826.7988" xml:space="preserve" y="305.5" clip-path="url(#clipPath2)" stroke="none">N8</text>
      <text x="121.1982" xml:space="preserve" y="461.5" clip-path="url(#clipPath2)" stroke="none">(a)</text>
      <text x="641.1982" xml:space="preserve" y="461.5" clip-path="url(#clipPath2)" stroke="none">(b)</text>
      <path fill="none" d="M69.3677 228.0895 L112.6323 176.9105" stroke-width="3" clip-path="url(#clipPath2)"/>
      <path fill="none" d="M38.7195 278.7984 L5.2805 361.2016" stroke-width="3" clip-path="url(#clipPath2)"/>
      <path fill="none" d="M21.0457 376.0181 L66.9543 353.9819" stroke-width="3" clip-path="url(#clipPath2)"/>
      <path fill="none" d="M80.8237 314.0485 L63.1763 277.9515" stroke-width="3" clip-path="url(#clipPath2)"/>
      <path fill="none" d="M151.3677 176.9105 L194.6323 228.0895" stroke-width="3" clip-path="url(#clipPath2)"/>
      <path fill="none" d="M118 323 L190 269" stroke-width="3" clip-path="url(#clipPath2)"/>
      <path fill="none" d="M-37.5487 204.1538 L23.5487 236.8462" stroke-width="3" clip-path="url(#clipPath2)"/>
      <path fill="none" d="M-55.6056 218.8016 L-14.3944 360.1984" stroke-width="3" clip-path="url(#clipPath2)"/>
      <path fill="none" d="M214 353 L214 281" stroke-width="3" clip-path="url(#clipPath2)"/>
      <path fill="none" d="M161.6027 158.8662 L321.3973 185.1338" stroke-width="3" clip-path="url(#clipPath2)"/>
      <path fill="none" d="M240.8328 264.4164 L287.1672 287.5836" stroke-width="3" clip-path="url(#clipPath2)"/>
      <path fill="none" d="M341.5132 218.4605 L323.4868 272.5395" stroke-width="3" clip-path="url(#clipPath2)"/>
      <path fill="none" d="M237.198 363.9776 L290.802 320.0224" stroke-width="3" clip-path="url(#clipPath2)"/>
    </g>
    <g stroke-linecap="round" transform="matrix(1,0,0,1,109,-109)" stroke-dashoffset="2" fill="silver" text-rendering="geometricPrecision" shape-rendering="geometricPrecision" stroke-dasharray="0,16" stroke="silver" stroke-width="4" stroke-miterlimit="1.45">
      <path fill="none" d="M589.3677 228.0895 L632.6323 176.9105" clip-path="url(#clipPath2)"/>
      <path fill="none" d="M558.7195 278.7984 L525.2805 361.2016" clip-path="url(#clipPath2)"/>
    </g>
    <g text-rendering="geometricPrecision" stroke-miterlimit="1.45" stroke-width="4" shape-rendering="geometricPrecision" transform="matrix(1,0,0,1,109,-109)" stroke-linecap="butt">
      <path fill="none" d="M541.0457 376.0181 L586.9543 353.9819" clip-path="url(#clipPath2)"/>
    </g>
    <g stroke-linecap="round" transform="matrix(1,0,0,1,109,-109)" stroke-dashoffset="2" fill="silver" text-rendering="geometricPrecision" shape-rendering="geometricPrecision" stroke-dasharray="0,12" stroke="silver" stroke-width="3" stroke-miterlimit="1.45">
      <path fill="none" d="M600.8237 314.0485 L583.1763 277.9515" clip-path="url(#clipPath2)"/>
      <path fill="none" d="M671.3677 176.9105 L714.6323 228.0895" clip-path="url(#clipPath2)"/>
      <path fill="none" stroke-dasharray="0,16" d="M638 323 L710 269" stroke-width="4" clip-path="url(#clipPath2)"/>
      <path fill="none" d="M482.4513 204.1538 L543.5487 236.8462" clip-path="url(#clipPath2)"/>
      <path fill="none" stroke-dasharray="0,16" d="M464.3944 218.8016 L505.6056 360.1984" stroke-width="4" clip-path="url(#clipPath2)"/>
      <path fill="none" stroke-dasharray="0,16" d="M734 353 L734 281" stroke-width="4" clip-path="url(#clipPath2)"/>
      <path fill="none" stroke-dasharray="0,16" d="M681.6027 158.8662 L841.3973 185.1338" stroke-width="4" clip-path="url(#clipPath2)"/>
      <path fill="none" stroke-dasharray="0,16" d="M760.8328 264.4164 L807.1672 287.5836" stroke-width="4" clip-path="url(#clipPath2)"/>
      <path fill="none" d="M861.5132 218.4605 L843.4868 272.5395" clip-path="url(#clipPath2)"/>
    </g>
    <g text-rendering="geometricPrecision" stroke-miterlimit="1.45" stroke-width="5" shape-rendering="geometricPrecision" transform="matrix(1,0,0,1,109,-109)" stroke-linecap="butt">
      <path fill="none" d="M757.1981 363.9776 L810.8019 320.0224" clip-path="url(#clipPath2)"/>
    </g>
  </g>
</svg>
