<?xml version="1.0" encoding="UTF-8"?><svg xmlns="http://www.w3.org/2000/svg" xmlns:xlink="http://www.w3.org/1999/xlink" fill-opacity="1" color-rendering="auto" color-interpolation="auto" text-rendering="auto" stroke="black" stroke-linecap="square" width="1046" stroke-miterlimit="10" shape-rendering="auto" stroke-opacity="1" fill="black" stroke-dasharray="none" font-weight="normal" stroke-width="1" height="400" font-family="'Dialog'" font-style="normal" stroke-linejoin="miter" font-size="12px" stroke-dashoffset="0" image-rendering="auto">
  <!--Generated by ySVG 2.5-->
  <defs id="genericDefs"/>
  <g>
    <defs id="defs1">
      <clipPath clipPathUnits="userSpaceOnUse" id="clipPath1">
        <path d="M0 0 L1046 0 L1046 400 L0 400 L0 0 Z"/>
      </clipPath>
      <clipPath clipPathUnits="userSpaceOnUse" id="clipPath2">
        <path d="M-198 53 L848 53 L848 453 L-198 453 L-198 53 Z"/>
      </clipPath>
    </defs>
    <g fill="white" text-rendering="geometricPrecision" shape-rendering="geometricPrecision" transform="translate(198,-53)" stroke="white">
      <rect x="-198" width="1046" height="400" y="53" clip-path="url(#clipPath2)" stroke="none"/>
    </g>
    <g fill="rgb(247,36,106)" text-rendering="geometricPrecision" shape-rendering="geometricPrecision" transform="matrix(1,0,0,1,198,-53)" stroke="rgb(247,36,106)">
      <circle r="30" clip-path="url(#clipPath2)" cx="-38.6709" cy="195.2965" stroke="none"/>
    </g>
    <g text-rendering="geometricPrecision" stroke-miterlimit="1.45" shape-rendering="geometricPrecision" font-family="'Monaco'" transform="matrix(1,0,0,1,198,-53)" stroke-linecap="butt">
      <text x="-45.872" xml:space="preserve" y="199.7965" clip-path="url(#clipPath2)" stroke="none">N2</text>
    </g>
    <g fill="rgb(247,36,106)" text-rendering="geometricPrecision" shape-rendering="geometricPrecision" transform="matrix(1,0,0,1,198,-53)" stroke="rgb(247,36,106)">
      <circle r="30" clip-path="url(#clipPath2)" cx="43.3291" cy="98.2965" stroke="none"/>
    </g>
    <g text-rendering="geometricPrecision" stroke-miterlimit="1.45" shape-rendering="geometricPrecision" font-family="'Monaco'" transform="matrix(1,0,0,1,198,-53)" stroke-linecap="butt">
      <text x="36.128" xml:space="preserve" y="102.7965" clip-path="url(#clipPath2)" stroke="none">N5</text>
    </g>
    <g fill="rgb(247,36,106)" text-rendering="geometricPrecision" shape-rendering="geometricPrecision" transform="matrix(1,0,0,1,198,-53)" stroke="rgb(247,36,106)">
      <circle r="30" clip-path="url(#clipPath2)" cx="-94.6709" cy="333.2965" stroke="none"/>
    </g>
    <g text-rendering="geometricPrecision" stroke-miterlimit="1.45" shape-rendering="geometricPrecision" font-family="'Monaco'" transform="matrix(1,0,0,1,198,-53)" stroke-linecap="butt">
      <text x="-101.872" xml:space="preserve" y="337.7965" clip-path="url(#clipPath2)" stroke="none">N4</text>
    </g>
    <g fill="rgb(247,36,106)" text-rendering="geometricPrecision" shape-rendering="geometricPrecision" transform="matrix(1,0,0,1,198,-53)" stroke="rgb(247,36,106)">
      <circle r="30" clip-path="url(#clipPath2)" cx="5.3291" cy="285.2965" stroke="none"/>
    </g>
    <g text-rendering="geometricPrecision" stroke-miterlimit="1.45" shape-rendering="geometricPrecision" font-family="'Monaco'" transform="matrix(1,0,0,1,198,-53)" stroke-linecap="butt">
      <text x="-1.872" xml:space="preserve" y="289.7965" clip-path="url(#clipPath2)" stroke="none">N3</text>
    </g>
    <g fill="rgb(153,0,102)" text-rendering="geometricPrecision" shape-rendering="geometricPrecision" transform="matrix(1,0,0,1,198,-53)" stroke="rgb(153,0,102)">
      <circle r="30" clip-path="url(#clipPath2)" cx="125.3291" cy="195.2965" stroke="none"/>
    </g>
    <g stroke-linecap="butt" transform="matrix(1,0,0,1,198,-53)" fill="white" text-rendering="geometricPrecision" font-family="'Monaco'" shape-rendering="geometricPrecision" stroke="white" stroke-miterlimit="1.45">
      <text x="118.128" xml:space="preserve" y="199.7965" clip-path="url(#clipPath2)" stroke="none">N6</text>
    </g>
    <g fill="rgb(247,36,106)" text-rendering="geometricPrecision" shape-rendering="geometricPrecision" transform="matrix(1,0,0,1,198,-53)" stroke="rgb(247,36,106)">
      <circle r="30" clip-path="url(#clipPath2)" cx="-152.6709" cy="134.2965" stroke="none"/>
    </g>
    <g text-rendering="geometricPrecision" stroke-miterlimit="1.45" shape-rendering="geometricPrecision" font-family="'Monaco'" transform="matrix(1,0,0,1,198,-53)" stroke-linecap="butt">
      <text x="-159.872" xml:space="preserve" y="138.7965" clip-path="url(#clipPath2)" stroke="none">N1</text>
    </g>
    <g fill="rgb(247,36,106)" text-rendering="geometricPrecision" shape-rendering="geometricPrecision" transform="matrix(1,0,0,1,198,-53)" stroke="rgb(247,36,106)">
      <circle r="30" clip-path="url(#clipPath2)" cx="125.3291" cy="327.2965" stroke="none"/>
    </g>
    <g text-rendering="geometricPrecision" stroke-miterlimit="1.45" shape-rendering="geometricPrecision" font-family="'Monaco'" transform="matrix(1,0,0,1,198,-53)" stroke-linecap="butt">
      <text x="118.128" xml:space="preserve" y="331.7965" clip-path="url(#clipPath2)" stroke="none">N7</text>
    </g>
    <g fill="rgb(247,36,106)" text-rendering="geometricPrecision" shape-rendering="geometricPrecision" transform="matrix(1,0,0,1,198,-53)" stroke="rgb(247,36,106)">
      <circle r="30" clip-path="url(#clipPath2)" cx="262.3291" cy="134.2965" stroke="none"/>
    </g>
    <g text-rendering="geometricPrecision" stroke-miterlimit="1.45" shape-rendering="geometricPrecision" font-family="'Monaco'" transform="matrix(1,0,0,1,198,-53)" stroke-linecap="butt">
      <text x="255.128" xml:space="preserve" y="138.7965" clip-path="url(#clipPath2)" stroke="none">N9</text>
    </g>
    <g fill="rgb(247,36,106)" text-rendering="geometricPrecision" shape-rendering="geometricPrecision" transform="matrix(1,0,0,1,198,-53)" stroke="rgb(247,36,106)">
      <circle r="30" clip-path="url(#clipPath2)" cx="225.3291" cy="245.2965" stroke="none"/>
    </g>
    <g text-rendering="geometricPrecision" stroke-miterlimit="1.45" shape-rendering="geometricPrecision" font-family="'Monaco'" transform="matrix(1,0,0,1,198,-53)" stroke-linecap="butt">
      <text x="218.128" xml:space="preserve" y="249.7965" clip-path="url(#clipPath2)" stroke="none">N8</text>
    </g>
    <g stroke-linecap="butt" transform="matrix(1,0,0,1,198,-53)" fill="rgb(153,0,102)" text-rendering="geometricPrecision" shape-rendering="geometricPrecision" stroke="rgb(153,0,102)" stroke-width="5" stroke-miterlimit="1.45">
      <circle fill="none" r="37.9576" clip-path="url(#clipPath2)" cx="125.3291" cy="195.2965"/>
    </g>
    <g fill="rgb(247,36,106)" text-rendering="geometricPrecision" shape-rendering="geometricPrecision" transform="matrix(1,0,0,1,198,-53)" stroke="rgb(247,36,106)">
      <circle r="30" clip-path="url(#clipPath2)" cx="501.3291" cy="195.2965" stroke="none"/>
    </g>
    <g text-rendering="geometricPrecision" stroke-miterlimit="1.45" shape-rendering="geometricPrecision" font-family="'Monaco'" transform="matrix(1,0,0,1,198,-53)" stroke-linecap="butt">
      <text x="494.128" xml:space="preserve" y="199.7965" clip-path="url(#clipPath2)" stroke="none">N2</text>
    </g>
    <g fill="rgb(153,0,102)" text-rendering="geometricPrecision" shape-rendering="geometricPrecision" transform="matrix(1,0,0,1,198,-53)" stroke="rgb(153,0,102)">
      <circle r="30" clip-path="url(#clipPath2)" cx="583.3291" cy="98.2965" stroke="none"/>
    </g>
    <g stroke-linecap="butt" transform="matrix(1,0,0,1,198,-53)" fill="white" text-rendering="geometricPrecision" font-family="'Monaco'" shape-rendering="geometricPrecision" stroke="white" stroke-miterlimit="1.45">
      <text x="576.128" xml:space="preserve" y="102.7965" clip-path="url(#clipPath2)" stroke="none">N5</text>
    </g>
    <g fill="rgb(247,36,106)" text-rendering="geometricPrecision" shape-rendering="geometricPrecision" transform="matrix(1,0,0,1,198,-53)" stroke="rgb(247,36,106)">
      <circle r="30" clip-path="url(#clipPath2)" cx="445.3291" cy="333.2965" stroke="none"/>
    </g>
    <g text-rendering="geometricPrecision" stroke-miterlimit="1.45" shape-rendering="geometricPrecision" font-family="'Monaco'" transform="matrix(1,0,0,1,198,-53)" stroke-linecap="butt">
      <text x="438.128" xml:space="preserve" y="337.7965" clip-path="url(#clipPath2)" stroke="none">N4</text>
    </g>
    <g fill="rgb(247,36,106)" text-rendering="geometricPrecision" shape-rendering="geometricPrecision" transform="matrix(1,0,0,1,198,-53)" stroke="rgb(247,36,106)">
      <circle r="30" clip-path="url(#clipPath2)" cx="545.3291" cy="285.2965" stroke="none"/>
    </g>
    <g text-rendering="geometricPrecision" stroke-miterlimit="1.45" shape-rendering="geometricPrecision" font-family="'Monaco'" transform="matrix(1,0,0,1,198,-53)" stroke-linecap="butt">
      <text x="538.128" xml:space="preserve" y="289.7965" clip-path="url(#clipPath2)" stroke="none">N3</text>
    </g>
    <g fill="rgb(153,0,102)" text-rendering="geometricPrecision" shape-rendering="geometricPrecision" transform="matrix(1,0,0,1,198,-53)" stroke="rgb(153,0,102)">
      <circle r="30" clip-path="url(#clipPath2)" cx="665.3291" cy="195.2965" stroke="none"/>
    </g>
    <g stroke-linecap="butt" transform="matrix(1,0,0,1,198,-53)" fill="white" text-rendering="geometricPrecision" font-family="'Monaco'" shape-rendering="geometricPrecision" stroke="white" stroke-miterlimit="1.45">
      <text x="658.128" xml:space="preserve" y="199.7965" clip-path="url(#clipPath2)" stroke="none">N6</text>
    </g>
    <g fill="rgb(247,36,106)" text-rendering="geometricPrecision" shape-rendering="geometricPrecision" transform="matrix(1,0,0,1,198,-53)" stroke="rgb(247,36,106)">
      <circle r="30" clip-path="url(#clipPath2)" cx="387.3291" cy="134.2965" stroke="none"/>
    </g>
    <g text-rendering="geometricPrecision" stroke-miterlimit="1.45" shape-rendering="geometricPrecision" font-family="'Monaco'" transform="matrix(1,0,0,1,198,-53)" stroke-linecap="butt">
      <text x="380.128" xml:space="preserve" y="138.7965" clip-path="url(#clipPath2)" stroke="none">N1</text>
    </g>
    <g fill="rgb(153,0,102)" text-rendering="geometricPrecision" shape-rendering="geometricPrecision" transform="matrix(1,0,0,1,198,-53)" stroke="rgb(153,0,102)">
      <circle r="30" clip-path="url(#clipPath2)" cx="665.3291" cy="327.2965" stroke="none"/>
    </g>
    <g stroke-linecap="butt" transform="matrix(1,0,0,1,198,-53)" fill="white" text-rendering="geometricPrecision" font-family="'Monaco'" shape-rendering="geometricPrecision" stroke="white" stroke-miterlimit="1.45">
      <text x="658.128" xml:space="preserve" y="331.7965" clip-path="url(#clipPath2)" stroke="none">N7</text>
    </g>
    <g fill="rgb(153,0,102)" text-rendering="geometricPrecision" shape-rendering="geometricPrecision" transform="matrix(1,0,0,1,198,-53)" stroke="rgb(153,0,102)">
      <circle r="30" clip-path="url(#clipPath2)" cx="802.3291" cy="134.2965" stroke="none"/>
    </g>
    <g stroke-linecap="butt" transform="matrix(1,0,0,1,198,-53)" fill="white" text-rendering="geometricPrecision" font-family="'Monaco'" shape-rendering="geometricPrecision" stroke="white" stroke-miterlimit="1.45">
      <text x="795.128" xml:space="preserve" y="138.7965" clip-path="url(#clipPath2)" stroke="none">N9</text>
    </g>
    <g fill="rgb(153,0,102)" text-rendering="geometricPrecision" shape-rendering="geometricPrecision" transform="matrix(1,0,0,1,198,-53)" stroke="rgb(153,0,102)">
      <circle r="30" clip-path="url(#clipPath2)" cx="765.3291" cy="245.2965" stroke="none"/>
    </g>
    <g stroke-linecap="butt" transform="matrix(1,0,0,1,198,-53)" fill="white" text-rendering="geometricPrecision" font-family="'Monaco'" shape-rendering="geometricPrecision" stroke="white" stroke-miterlimit="1.45">
      <text x="758.128" xml:space="preserve" y="249.7965" clip-path="url(#clipPath2)" stroke="none">N8</text>
    </g>
    <g stroke-linecap="butt" transform="matrix(1,0,0,1,198,-53)" fill="rgb(153,0,102)" text-rendering="geometricPrecision" shape-rendering="geometricPrecision" stroke="rgb(153,0,102)" stroke-width="5" stroke-miterlimit="1.45">
      <circle fill="none" r="37.9576" clip-path="url(#clipPath2)" cx="665.3291" cy="195.2965"/>
    </g>
    <g text-rendering="geometricPrecision" stroke-miterlimit="1.45" shape-rendering="geometricPrecision" font-family="'Monaco'" transform="matrix(1,0,0,1,198,-53)" stroke-linecap="butt">
      <text x="32.5274" xml:space="preserve" y="411.5097" clip-path="url(#clipPath2)" stroke="none">(a)</text>
      <text x="584.1976" xml:space="preserve" y="411.5097" clip-path="url(#clipPath2)" stroke="none">(b)</text>
      <path fill="none" d="M-49.9514 223.0949 L-83.3904 305.4981" stroke-width="3" clip-path="url(#clipPath2)"/>
      <path fill="none" d="M-67.6252 320.3146 L-34.1125 304.2285" stroke-width="3" clip-path="url(#clipPath2)"/>
      <path d="M-21.7165 298.2784 L-38.4849 298.008 L-31.9939 311.5308 Z" stroke-width="3" clip-path="url(#clipPath2)" stroke="none"/>
      <path fill="none" d="M-7.8472 258.345 L-25.4945 222.248" stroke-width="3" clip-path="url(#clipPath2)"/>
      <path fill="none" d="M62.6968 121.2071 L105.9615 172.386" stroke-width="3" clip-path="url(#clipPath2)"/>
    </g>
    <g stroke-linecap="round" transform="matrix(1,0,0,1,198,-53)" stroke-dashoffset="2" fill="silver" text-rendering="geometricPrecision" shape-rendering="geometricPrecision" stroke-dasharray="0,16" stroke="silver" stroke-width="4" stroke-miterlimit="1.45">
      <path fill="none" d="M29.3291 267.2965 L101.3291 213.2965" clip-path="url(#clipPath2)"/>
    </g>
    <g text-rendering="geometricPrecision" stroke-miterlimit="1.45" stroke-width="3" shape-rendering="geometricPrecision" transform="matrix(1,0,0,1,198,-53)" stroke-linecap="butt">
      <path fill="none" d="M-126.2196 148.4503 L-65.1221 181.1427" clip-path="url(#clipPath2)"/>
      <path fill="none" d="M-144.2764 163.0981 L-106.9128 291.2942" clip-path="url(#clipPath2)"/>
      <path d="M-103.0653 304.4949 L-100.0621 287.9955 L-114.4629 292.1927 Z" clip-path="url(#clipPath2)" stroke="none"/>
      <path fill="none" d="M125.3291 297.2965 L125.3291 225.2965" clip-path="url(#clipPath2)"/>
      <path fill="none" d="M72.9319 103.1627 L232.7264 129.4303" clip-path="url(#clipPath2)"/>
      <path fill="none" d="M152.162 208.7129 L198.4963 231.8801" clip-path="url(#clipPath2)"/>
      <path fill="none" d="M252.8423 162.757 L234.816 216.836" clip-path="url(#clipPath2)"/>
      <path fill="none" d="M148.5272 308.2741 L202.1311 264.3189" clip-path="url(#clipPath2)"/>
      <path fill="none" d="M490.0486 223.0949 L456.6096 305.4981" clip-path="url(#clipPath2)"/>
      <path fill="none" d="M472.3748 320.3146 L505.8875 304.2285" clip-path="url(#clipPath2)"/>
      <path d="M518.2834 298.2784 L501.5151 298.008 L508.0061 311.5308 Z" clip-path="url(#clipPath2)" stroke="none"/>
      <path fill="none" d="M532.1528 258.345 L514.5054 222.248" clip-path="url(#clipPath2)"/>
      <path fill="none" d="M602.6968 121.2071 L645.9615 172.386" clip-path="url(#clipPath2)"/>
      <path fill="none" d="M413.7805 148.4503 L474.8778 181.1427" clip-path="url(#clipPath2)"/>
      <path fill="none" d="M395.7236 163.0981 L433.0872 291.2942" clip-path="url(#clipPath2)"/>
      <path d="M436.9347 304.4949 L439.9379 287.9955 L425.5371 292.1927 Z" clip-path="url(#clipPath2)" stroke="none"/>
      <path fill="none" d="M665.3292 297.2965 L665.3292 225.2965" clip-path="url(#clipPath2)"/>
      <path fill="none" d="M612.9318 103.1627 L772.7264 129.4303" clip-path="url(#clipPath2)"/>
      <path fill="none" d="M692.162 208.7129 L738.4963 231.8801" clip-path="url(#clipPath2)"/>
      <path fill="none" d="M792.8423 162.757 L774.816 216.836" clip-path="url(#clipPath2)"/>
      <path fill="none" d="M688.5272 308.2741 L742.1311 264.3189" clip-path="url(#clipPath2)"/>
    </g>
  </g>
</svg>
