<?xml version="1.0" encoding="UTF-8"?><svg xmlns="http://www.w3.org/2000/svg" xmlns:xlink="http://www.w3.org/1999/xlink" fill-opacity="1" color-rendering="auto" color-interpolation="auto" text-rendering="auto" stroke="black" stroke-linecap="square" width="424" stroke-miterlimit="10" shape-rendering="auto" stroke-opacity="1" fill="black" stroke-dasharray="none" font-weight="normal" stroke-width="1" height="415" font-family="'Dialog'" font-style="normal" stroke-linejoin="miter" font-size="12px" stroke-dashoffset="0" image-rendering="auto">
  <!--Generated by ySVG 2.5-->
  <defs id="genericDefs"/>
  <g>
    <defs id="defs1">
      <clipPath clipPathUnits="userSpaceOnUse" id="clipPath1">
        <path d="M0 0 L424 0 L424 415 L0 415 L0 0 Z"/>
      </clipPath>
      <clipPath clipPathUnits="userSpaceOnUse" id="clipPath2">
        <path d="M108 10 L532 10 L532 425 L108 425 L108 10 Z"/>
      </clipPath>
    </defs>
    <g fill="rgb(51,204,255)" text-rendering="geometricPrecision" shape-rendering="geometricPrecision" transform="matrix(1,0,0,1,-108,-10)" stroke="rgb(51,204,255)">
      <circle r="30" clip-path="url(#clipPath2)" cx="297.2083" cy="212.6818" stroke="none"/>
    </g>
    <g text-rendering="geometricPrecision" stroke-miterlimit="1.45" shape-rendering="geometricPrecision" font-family="'Monaco'" transform="matrix(1,0,0,1,-108,-10)" stroke-linecap="butt">
      <text x="275.6048" xml:space="preserve" y="217.1818" clip-path="url(#clipPath2)" stroke="none">Matteo</text>
    </g>
    <g fill="rgb(0,140,255)" text-rendering="geometricPrecision" shape-rendering="geometricPrecision" transform="matrix(1,0,0,1,-108,-10)" stroke="rgb(0,140,255)">
      <circle r="30" clip-path="url(#clipPath2)" cx="394.6509" cy="152.6818" stroke="none"/>
    </g>
    <g text-rendering="geometricPrecision" stroke-miterlimit="1.45" shape-rendering="geometricPrecision" font-family="'Monaco'" transform="matrix(1,0,0,1,-108,-10)" stroke-linecap="butt">
      <text x="376.6479" xml:space="preserve" y="157.1818" clip-path="url(#clipPath2)" stroke="none">Elena</text>
    </g>
    <g fill="rgb(0,140,255)" text-rendering="geometricPrecision" shape-rendering="geometricPrecision" transform="matrix(1,0,0,1,-108,-10)" stroke="rgb(0,140,255)">
      <circle r="30" clip-path="url(#clipPath2)" cx="189.6509" cy="167.3767" stroke="none"/>
    </g>
    <g text-rendering="geometricPrecision" stroke-miterlimit="1.45" shape-rendering="geometricPrecision" font-family="'Monaco'" transform="matrix(1,0,0,1,-108,-10)" stroke-linecap="butt">
      <text x="164.4468" xml:space="preserve" y="171.8767" clip-path="url(#clipPath2)" stroke="none">Filippo</text>
    </g>
    <g fill="rgb(0,140,255)" text-rendering="geometricPrecision" shape-rendering="geometricPrecision" transform="matrix(1,0,0,1,-108,-10)" stroke="rgb(0,140,255)">
      <circle r="30" clip-path="url(#clipPath2)" cx="357.2083" cy="282.2313" stroke="none"/>
    </g>
    <g text-rendering="geometricPrecision" stroke-miterlimit="1.45" shape-rendering="geometricPrecision" font-family="'Monaco'" transform="matrix(1,0,0,1,-108,-10)" stroke-linecap="butt">
      <text x="339.2054" xml:space="preserve" y="286.7313" clip-path="url(#clipPath2)" stroke="none">Alice</text>
    </g>
    <g fill="rgb(0,140,255)" text-rendering="geometricPrecision" shape-rendering="geometricPrecision" transform="matrix(1,0,0,1,-108,-10)" stroke="rgb(0,140,255)">
      <circle r="30" clip-path="url(#clipPath2)" cx="345.4539" cy="55.1549" stroke="none"/>
    </g>
    <g text-rendering="geometricPrecision" stroke-miterlimit="1.45" shape-rendering="geometricPrecision" font-family="'Monaco'" transform="matrix(1,0,0,1,-108,-10)" stroke-linecap="butt">
      <text x="323.8503" xml:space="preserve" y="59.6549" clip-path="url(#clipPath2)" stroke="none">Andrea</text>
    </g>
    <g fill="rgb(0,140,255)" text-rendering="geometricPrecision" shape-rendering="geometricPrecision" transform="matrix(1,0,0,1,-108,-10)" stroke="rgb(0,140,255)">
      <circle r="30" clip-path="url(#clipPath2)" cx="220.4296" cy="290.6818" stroke="none"/>
    </g>
    <g text-rendering="geometricPrecision" stroke-miterlimit="1.45" shape-rendering="geometricPrecision" font-family="'Monaco'" transform="matrix(1,0,0,1,-108,-10)" stroke-linecap="butt">
      <text x="198.8261" xml:space="preserve" y="295.1818" clip-path="url(#clipPath2)" stroke="none">Davide</text>
    </g>
    <g fill="rgb(0,140,255)" text-rendering="geometricPrecision" shape-rendering="geometricPrecision" transform="matrix(1,0,0,1,-108,-10)" stroke="rgb(0,140,255)">
      <circle r="30" clip-path="url(#clipPath2)" cx="442.3119" cy="55.1549" stroke="none"/>
    </g>
    <g text-rendering="geometricPrecision" stroke-miterlimit="1.45" shape-rendering="geometricPrecision" font-family="'Monaco'" transform="matrix(1,0,0,1,-108,-10)" stroke-linecap="butt">
      <text x="424.309" xml:space="preserve" y="59.6549" clip-path="url(#clipPath2)" stroke="none">Mario</text>
    </g>
    <g fill="rgb(0,140,255)" text-rendering="geometricPrecision" shape-rendering="geometricPrecision" transform="matrix(1,0,0,1,-108,-10)" stroke="rgb(0,140,255)">
      <circle r="30" clip-path="url(#clipPath2)" cx="459.4167" cy="250.2086" stroke="none"/>
    </g>
    <g text-rendering="geometricPrecision" stroke-miterlimit="1.45" shape-rendering="geometricPrecision" font-family="'Monaco'" transform="matrix(1,0,0,1,-108,-10)" stroke-linecap="butt">
      <text x="441.4138" xml:space="preserve" y="254.7086" clip-path="url(#clipPath2)" stroke="none">Marco</text>
    </g>
    <g fill="rgb(0,140,255)" text-rendering="geometricPrecision" shape-rendering="geometricPrecision" transform="matrix(1,0,0,1,-108,-10)" stroke="rgb(0,140,255)">
      <circle r="30" clip-path="url(#clipPath2)" cx="357.2083" cy="379.2313" stroke="none"/>
    </g>
    <g text-rendering="geometricPrecision" stroke-miterlimit="1.45" shape-rendering="geometricPrecision" font-family="'Monaco'" transform="matrix(1,0,0,1,-108,-10)" stroke-linecap="butt">
      <text x="339.2054" xml:space="preserve" y="383.7313" clip-path="url(#clipPath2)" stroke="none">Fabio</text>
    </g>
    <g fill="rgb(0,140,255)" text-rendering="geometricPrecision" shape-rendering="geometricPrecision" transform="matrix(1,0,0,1,-108,-10)" stroke="rgb(0,140,255)">
      <circle r="30" clip-path="url(#clipPath2)" cx="432.8333" cy="333.617" stroke="none"/>
    </g>
    <g text-rendering="geometricPrecision" stroke-miterlimit="1.45" shape-rendering="geometricPrecision" font-family="'Monaco'" transform="matrix(1,0,0,1,-108,-10)" stroke-linecap="butt">
      <text x="407.6292" xml:space="preserve" y="338.117" clip-path="url(#clipPath2)" stroke="none">Arianna</text>
      <path fill="none" d="M322.7539 196.9521 L369.1053 168.4114" stroke-width="3" clip-path="url(#clipPath2)"/>
      <path fill="none" d="M269.5609 201.0362 L217.2983 179.0223" stroke-width="3" clip-path="url(#clipPath2)"/>
      <path fill="none" d="M316.8047 235.397 L337.612 259.516" stroke-width="3" clip-path="url(#clipPath2)"/>
      <path fill="none" stroke-dasharray="6,2" d="M291.5014 183.2296 L285.3578 151.5238" clip-path="url(#clipPath2)"/>
      <path fill="none" d="M381.1393 125.8968 L358.9655 81.9399" stroke-width="2" clip-path="url(#clipPath2)"/>
      <path fill="none" stroke-dasharray="6,2" d="M422.9011 142.5858 L481.4177 121.6734" clip-path="url(#clipPath2)"/>
      <path fill="none" d="M276.1632 234.0617 L241.4748 269.3018" stroke-width="3" clip-path="url(#clipPath2)"/>
      <path fill="none" d="M196.9164 196.4836 L213.1641 261.5749" stroke-width="2" clip-path="url(#clipPath2)"/>
      <path fill="none" d="M407.823 125.7282 L429.1398 82.1085" stroke-width="2" clip-path="url(#clipPath2)"/>
      <path fill="none" d="M385.8362 273.262 L430.7889 259.1779" stroke-width="2" clip-path="url(#clipPath2)"/>
      <path fill="none" d="M357.2083 312.2313 L357.2083 349.2313" stroke-width="2" clip-path="url(#clipPath2)"/>
      <path fill="none" d="M382.0221 299.0918 L408.0196 316.7565" stroke-width="2" clip-path="url(#clipPath2)"/>
      <path fill="none" stroke-dasharray="6,2" d="M338.5269 305.7048 L290.1782 366.4557" clip-path="url(#clipPath2)"/>
      <path fill="none" stroke-dasharray="6,2" d="M194.5098 305.7869 L162.4335 324.4799" clip-path="url(#clipPath2)"/>
      <path fill="none" stroke-dasharray="6,2" d="M171.853 143.2264 L152.0824 116.3995" clip-path="url(#clipPath2)"/>
    </g>
  </g>
</svg>
