<?xml version="1.0" encoding="UTF-8"?><svg xmlns="http://www.w3.org/2000/svg" xmlns:xlink="http://www.w3.org/1999/xlink" fill-opacity="1" color-rendering="auto" color-interpolation="auto" text-rendering="auto" stroke="black" stroke-linecap="square" width="742" stroke-miterlimit="10" shape-rendering="auto" stroke-opacity="1" fill="black" stroke-dasharray="none" font-weight="normal" stroke-width="1" height="425" font-family="'Dialog'" font-style="normal" stroke-linejoin="miter" font-size="12px" stroke-dashoffset="0" image-rendering="auto">
  <!--Generated by ySVG 2.5-->
  <defs id="genericDefs"/>
  <g>
    <defs id="defs1">
      <clipPath clipPathUnits="userSpaceOnUse" id="clipPath1">
        <path d="M0 0 L742 0 L742 425 L0 425 L0 0 Z"/>
      </clipPath>
      <clipPath clipPathUnits="userSpaceOnUse" id="clipPath2">
        <path d="M-12 -242 L730 -242 L730 183 L-12 183 L-12 -242 Z"/>
      </clipPath>
    </defs>
    <g fill="rgb(0,140,255)" text-rendering="geometricPrecision" shape-rendering="geometricPrecision" transform="matrix(1,0,0,1,12,242)" stroke="rgb(0,140,255)">
      <circle r="30" clip-path="url(#clipPath2)" cx="332.9506" cy="-30.7812" stroke="none"/>
    </g>
    <g text-rendering="geometricPrecision" stroke-miterlimit="1.45" shape-rendering="geometricPrecision" font-family="'Monaco'" transform="matrix(1,0,0,1,12,242)" stroke-linecap="butt">
      <text x="325.7495" xml:space="preserve" y="-26.2812" clip-path="url(#clipPath2)" stroke="none">P1</text>
    </g>
    <g fill="rgb(0,140,255)" text-rendering="geometricPrecision" shape-rendering="geometricPrecision" transform="matrix(1,0,0,1,12,242)" stroke="rgb(0,140,255)">
      <circle r="30" clip-path="url(#clipPath2)" cx="342.6229" cy="-148.6918" stroke="none"/>
    </g>
    <g text-rendering="geometricPrecision" stroke-miterlimit="1.45" shape-rendering="geometricPrecision" font-family="'Monaco'" transform="matrix(1,0,0,1,12,242)" stroke-linecap="butt">
      <text x="335.4217" xml:space="preserve" y="-144.1918" clip-path="url(#clipPath2)" stroke="none">P2</text>
    </g>
    <g fill="rgb(0,140,255)" text-rendering="geometricPrecision" shape-rendering="geometricPrecision" transform="matrix(1,0,0,1,12,242)" stroke="rgb(0,140,255)">
      <circle r="30" clip-path="url(#clipPath2)" cx="536.8391" cy="-29.8573" stroke="none"/>
    </g>
    <g text-rendering="geometricPrecision" stroke-miterlimit="1.45" shape-rendering="geometricPrecision" font-family="'Monaco'" transform="matrix(1,0,0,1,12,242)" stroke-linecap="butt">
      <text x="529.6379" xml:space="preserve" y="-25.3573" clip-path="url(#clipPath2)" stroke="none">P3</text>
    </g>
    <g fill="rgb(0,140,255)" text-rendering="geometricPrecision" shape-rendering="geometricPrecision" transform="matrix(1,0,0,1,12,242)" stroke="rgb(0,140,255)">
      <circle r="30" clip-path="url(#clipPath2)" cx="225.3324" cy="-110.6852" stroke="none"/>
    </g>
    <g text-rendering="geometricPrecision" stroke-miterlimit="1.45" shape-rendering="geometricPrecision" font-family="'Monaco'" transform="matrix(1,0,0,1,12,242)" stroke-linecap="butt">
      <text x="218.1312" xml:space="preserve" y="-106.1852" clip-path="url(#clipPath2)" stroke="none">P4</text>
    </g>
    <g fill="rgb(0,140,255)" text-rendering="geometricPrecision" shape-rendering="geometricPrecision" transform="matrix(1,0,0,1,12,242)" stroke="rgb(0,140,255)">
      <circle r="30" clip-path="url(#clipPath2)" cx="422.9506" cy="-77.6837" stroke="none"/>
    </g>
    <g text-rendering="geometricPrecision" stroke-miterlimit="1.45" shape-rendering="geometricPrecision" font-family="'Monaco'" transform="matrix(1,0,0,1,12,242)" stroke-linecap="butt">
      <text x="415.7495" xml:space="preserve" y="-73.1837" clip-path="url(#clipPath2)" stroke="none">P5</text>
    </g>
    <g fill="rgb(0,140,255)" text-rendering="geometricPrecision" shape-rendering="geometricPrecision" transform="matrix(1,0,0,1,12,242)" stroke="rgb(0,140,255)">
      <circle r="30" clip-path="url(#clipPath2)" cx="667.9976" cy="-95.2357" stroke="none"/>
    </g>
    <g text-rendering="geometricPrecision" stroke-miterlimit="1.45" shape-rendering="geometricPrecision" font-family="'Monaco'" transform="matrix(1,0,0,1,12,242)" stroke-linecap="butt">
      <text x="660.7964" xml:space="preserve" y="-90.7357" clip-path="url(#clipPath2)" stroke="none">P6</text>
    </g>
    <g fill="rgb(0,140,255)" text-rendering="geometricPrecision" shape-rendering="geometricPrecision" transform="matrix(1,0,0,1,12,242)" stroke="rgb(0,140,255)">
      <circle r="30" clip-path="url(#clipPath2)" cx="653.1874" cy="-24.479" stroke="none"/>
    </g>
    <g text-rendering="geometricPrecision" stroke-miterlimit="1.45" shape-rendering="geometricPrecision" font-family="'Monaco'" transform="matrix(1,0,0,1,12,242)" stroke-linecap="butt">
      <text x="645.9862" xml:space="preserve" y="-19.979" clip-path="url(#clipPath2)" stroke="none">P7</text>
    </g>
    <g fill="rgb(0,140,255)" text-rendering="geometricPrecision" shape-rendering="geometricPrecision" transform="matrix(1,0,0,1,12,242)" stroke="rgb(0,140,255)">
      <circle r="30" clip-path="url(#clipPath2)" cx="684.68" cy="47.022" stroke="none"/>
    </g>
    <g text-rendering="geometricPrecision" stroke-miterlimit="1.45" shape-rendering="geometricPrecision" font-family="'Monaco'" transform="matrix(1,0,0,1,12,242)" stroke-linecap="butt">
      <text x="677.4788" xml:space="preserve" y="51.522" clip-path="url(#clipPath2)" stroke="none">P8</text>
    </g>
    <g fill="rgb(0,140,255)" text-rendering="geometricPrecision" shape-rendering="geometricPrecision" transform="matrix(1,0,0,1,12,242)" stroke="rgb(0,140,255)">
      <circle r="30" clip-path="url(#clipPath2)" cx="512.9506" cy="88.2584" stroke="none"/>
    </g>
    <g text-rendering="geometricPrecision" stroke-miterlimit="1.45" shape-rendering="geometricPrecision" font-family="'Monaco'" transform="matrix(1,0,0,1,12,242)" stroke-linecap="butt">
      <text x="505.7495" xml:space="preserve" y="92.7584" clip-path="url(#clipPath2)" stroke="none">P9</text>
    </g>
    <g fill="rgb(0,140,255)" text-rendering="geometricPrecision" shape-rendering="geometricPrecision" transform="matrix(1,0,0,1,12,242)" stroke="rgb(0,140,255)">
      <circle r="30" clip-path="url(#clipPath2)" cx="409.656" cy="20.7658" stroke="none"/>
    </g>
    <g text-rendering="geometricPrecision" stroke-miterlimit="1.45" shape-rendering="geometricPrecision" font-family="'Monaco'" transform="matrix(1,0,0,1,12,242)" stroke-linecap="butt">
      <text x="398.8542" xml:space="preserve" y="25.2658" clip-path="url(#clipPath2)" stroke="none">P10</text>
    </g>
    <g fill="rgb(0,140,255)" text-rendering="geometricPrecision" shape-rendering="geometricPrecision" transform="matrix(1,0,0,1,12,242)" stroke="rgb(0,140,255)">
      <circle r="30" clip-path="url(#clipPath2)" cx="165.3324" cy="6.1546" stroke="none"/>
    </g>
    <g text-rendering="geometricPrecision" stroke-miterlimit="1.45" shape-rendering="geometricPrecision" font-family="'Monaco'" transform="matrix(1,0,0,1,12,242)" stroke-linecap="butt">
      <text x="154.5306" xml:space="preserve" y="10.6546" clip-path="url(#clipPath2)" stroke="none">P11</text>
    </g>
    <g fill="rgb(0,140,255)" text-rendering="geometricPrecision" shape-rendering="geometricPrecision" transform="matrix(1,0,0,1,12,242)" stroke="rgb(0,140,255)">
      <circle r="30" clip-path="url(#clipPath2)" cx="106.609" cy="-168.6012" stroke="none"/>
    </g>
    <g text-rendering="geometricPrecision" stroke-miterlimit="1.45" shape-rendering="geometricPrecision" font-family="'Monaco'" transform="matrix(1,0,0,1,12,242)" stroke-linecap="butt">
      <text x="95.8073" xml:space="preserve" y="-164.1012" clip-path="url(#clipPath2)" stroke="none">P12</text>
    </g>
    <g fill="rgb(0,140,255)" text-rendering="geometricPrecision" shape-rendering="geometricPrecision" transform="matrix(1,0,0,1,12,242)" stroke="rgb(0,140,255)">
      <circle r="30" clip-path="url(#clipPath2)" cx="33.4829" cy="-60.4346" stroke="none"/>
    </g>
    <g text-rendering="geometricPrecision" stroke-miterlimit="1.45" shape-rendering="geometricPrecision" font-family="'Monaco'" transform="matrix(1,0,0,1,12,242)" stroke-linecap="butt">
      <text x="22.6811" xml:space="preserve" y="-55.9346" clip-path="url(#clipPath2)" stroke="none">P13</text>
    </g>
    <g fill="rgb(0,140,255)" text-rendering="geometricPrecision" shape-rendering="geometricPrecision" transform="matrix(1,0,0,1,12,242)" stroke="rgb(0,140,255)">
      <circle r="30" clip-path="url(#clipPath2)" cx="476.8391" cy="-130.1862" stroke="none"/>
    </g>
    <g text-rendering="geometricPrecision" stroke-miterlimit="1.45" shape-rendering="geometricPrecision" font-family="'Monaco'" transform="matrix(1,0,0,1,12,242)" stroke-linecap="butt">
      <text x="466.0374" xml:space="preserve" y="-125.6862" clip-path="url(#clipPath2)" stroke="none">P14</text>
    </g>
    <g fill="rgb(0,140,255)" text-rendering="geometricPrecision" shape-rendering="geometricPrecision" transform="matrix(1,0,0,1,12,242)" stroke="rgb(0,140,255)">
      <circle r="30" clip-path="url(#clipPath2)" cx="536.8391" cy="-196.7367" stroke="none"/>
    </g>
    <g text-rendering="geometricPrecision" stroke-miterlimit="1.45" shape-rendering="geometricPrecision" font-family="'Monaco'" transform="matrix(1,0,0,1,12,242)" stroke-linecap="butt">
      <text x="526.0374" xml:space="preserve" y="-192.2366" clip-path="url(#clipPath2)" stroke="none">P15</text>
    </g>
    <g fill="rgb(0,140,255)" text-rendering="geometricPrecision" shape-rendering="geometricPrecision" transform="matrix(1,0,0,1,12,242)" stroke="rgb(0,140,255)">
      <circle r="30" clip-path="url(#clipPath2)" cx="587.4134" cy="-114.479" stroke="none"/>
    </g>
    <g text-rendering="geometricPrecision" stroke-miterlimit="1.45" shape-rendering="geometricPrecision" font-family="'Monaco'" transform="matrix(1,0,0,1,12,242)" stroke-linecap="butt">
      <text x="576.6117" xml:space="preserve" y="-109.979" clip-path="url(#clipPath2)" stroke="none">P16</text>
    </g>
    <g fill="rgb(0,140,255)" text-rendering="geometricPrecision" shape-rendering="geometricPrecision" transform="matrix(1,0,0,1,12,242)" stroke="rgb(0,140,255)">
      <circle r="30" clip-path="url(#clipPath2)" cx="428.5836" cy="105.1575" stroke="none"/>
    </g>
    <g text-rendering="geometricPrecision" stroke-miterlimit="1.45" shape-rendering="geometricPrecision" font-family="'Monaco'" transform="matrix(1,0,0,1,12,242)" stroke-linecap="butt">
      <text x="417.7819" xml:space="preserve" y="109.6575" clip-path="url(#clipPath2)" stroke="none">P17</text>
    </g>
    <g fill="rgb(0,140,255)" text-rendering="geometricPrecision" shape-rendering="geometricPrecision" transform="matrix(1,0,0,1,12,242)" stroke="rgb(0,140,255)">
      <circle r="30" clip-path="url(#clipPath2)" cx="586.2453" cy="137.022" stroke="none"/>
    </g>
    <g text-rendering="geometricPrecision" stroke-miterlimit="1.45" shape-rendering="geometricPrecision" font-family="'Monaco'" transform="matrix(1,0,0,1,12,242)" stroke-linecap="butt">
      <text x="575.4435" xml:space="preserve" y="141.522" clip-path="url(#clipPath2)" stroke="none">P18</text>
    </g>
    <g fill="rgb(0,140,255)" text-rendering="geometricPrecision" shape-rendering="geometricPrecision" transform="matrix(1,0,0,1,12,242)" stroke="rgb(0,140,255)">
      <circle r="30" clip-path="url(#clipPath2)" cx="616.2453" cy="65.521" stroke="none"/>
    </g>
    <g text-rendering="geometricPrecision" stroke-miterlimit="1.45" shape-rendering="geometricPrecision" font-family="'Monaco'" transform="matrix(1,0,0,1,12,242)" stroke-linecap="butt">
      <text x="605.4435" xml:space="preserve" y="70.021" clip-path="url(#clipPath2)" stroke="none">P19</text>
      <path fill="none" d="M335.4033 -60.6808 L340.1702 -118.7922" stroke-width="2" clip-path="url(#clipPath2)"/>
      <path fill="none" d="M362.9503 -30.6453 L506.8394 -29.9933" stroke-width="2" clip-path="url(#clipPath2)"/>
      <path fill="none" d="M314.0838 -139.444 L253.8715 -119.933" stroke-width="2" clip-path="url(#clipPath2)"/>
      <path fill="none" d="M308.8639 -48.665 L249.4191 -92.8014" stroke-width="2" clip-path="url(#clipPath2)"/>
      <path fill="none" d="M509.1791 -41.4729 L450.6107 -66.0681" stroke-width="2" clip-path="url(#clipPath2)"/>
      <path fill="none" d="M563.6884 -43.2408 L641.1484 -81.8522" stroke-width="2" clip-path="url(#clipPath2)"/>
      <path fill="none" d="M566.8071 -28.472 L623.2194 -25.8643" stroke-width="2" clip-path="url(#clipPath2)"/>
      <path fill="none" d="M563.4555 -16.0165 L658.0637 33.1811" stroke-width="2" clip-path="url(#clipPath2)"/>
      <path fill="none" d="M530.8922 -0.4527 L518.8976 58.8538" stroke-width="2" clip-path="url(#clipPath2)"/>
      <path fill="none" d="M508.966 -18.7629 L437.5291 9.6714" stroke-width="2" clip-path="url(#clipPath2)"/>
      <path fill="none" d="M211.6281 -83.9983 L179.0368 -20.5323" stroke-width="2" clip-path="url(#clipPath2)"/>
      <path fill="none" d="M155.7766 -22.2828 L116.1649 -140.1638" stroke-width="2" clip-path="url(#clipPath2)"/>
      <path fill="none" d="M89.8069 -143.7478 L50.285 -85.2879" stroke-width="2" clip-path="url(#clipPath2)"/>
      <path fill="none" d="M521.4415 -55.6044 L492.2368 -104.4391" stroke-width="2" clip-path="url(#clipPath2)"/>
      <path fill="none" d="M536.8391 -59.8573 L536.8391 -166.7366" stroke-width="2" clip-path="url(#clipPath2)"/>
      <path fill="none" d="M552.2296 -55.6088 L572.0231 -88.7276" stroke-width="2" clip-path="url(#clipPath2)"/>
      <path fill="none" d="M518.0725 -6.4519 L447.3503 81.752" stroke-width="2" clip-path="url(#clipPath2)"/>
      <path fill="none" d="M545.3555 -1.0915 L577.7289 108.2562" stroke-width="2" clip-path="url(#clipPath2)"/>
      <path fill="none" d="M556.0339 -6.8017 L597.0505 42.4654" stroke-width="2" clip-path="url(#clipPath2)"/>
    </g>
  </g>
</svg>
