<?xml version="1.0" encoding="UTF-8"?><svg xmlns="http://www.w3.org/2000/svg" xmlns:xlink="http://www.w3.org/1999/xlink" fill-opacity="1" color-rendering="auto" color-interpolation="auto" text-rendering="auto" stroke="black" stroke-linecap="square" width="430" stroke-miterlimit="10" shape-rendering="auto" stroke-opacity="1" fill="black" stroke-dasharray="none" font-weight="normal" stroke-width="1" height="411" font-family="'Dialog'" font-style="normal" stroke-linejoin="miter" font-size="12px" stroke-dashoffset="0" image-rendering="auto">
  <!--Generated by ySVG 2.5-->
  <defs id="genericDefs"/>
  <g>
    <defs id="defs1">
      <clipPath clipPathUnits="userSpaceOnUse" id="clipPath1">
        <path d="M0 0 L430 0 L430 411 L0 411 L0 0 Z"/>
      </clipPath>
      <clipPath clipPathUnits="userSpaceOnUse" id="clipPath2">
        <path d="M174 17 L604 17 L604 428 L174 428 L174 17 Z"/>
      </clipPath>
    </defs>
    <g fill="rgb(179,211,19)" text-rendering="geometricPrecision" shape-rendering="geometricPrecision" transform="matrix(1,0,0,1,-174,-17)" stroke="rgb(179,211,19)">
      <circle r="30" clip-path="url(#clipPath2)" cx="373" cy="62" stroke="none"/>
    </g>
    <g text-rendering="geometricPrecision" stroke-miterlimit="1.45" shape-rendering="geometricPrecision" font-family="'Monaco'" transform="matrix(1,0,0,1,-174,-17)" stroke-linecap="butt">
      <text x="365.7988" xml:space="preserve" y="66.5" clip-path="url(#clipPath2)" stroke="none">N1</text>
    </g>
    <g fill="rgb(179,211,19)" text-rendering="geometricPrecision" shape-rendering="geometricPrecision" transform="matrix(1,0,0,1,-174,-17)" stroke="rgb(179,211,19)">
      <circle r="30" clip-path="url(#clipPath2)" cx="264" cy="147" stroke="none"/>
    </g>
    <g text-rendering="geometricPrecision" stroke-miterlimit="1.45" shape-rendering="geometricPrecision" font-family="'Monaco'" transform="matrix(1,0,0,1,-174,-17)" stroke-linecap="butt">
      <text x="256.7988" xml:space="preserve" y="151.5" clip-path="url(#clipPath2)" stroke="none">N2</text>
    </g>
    <g fill="rgb(179,211,19)" text-rendering="geometricPrecision" shape-rendering="geometricPrecision" transform="matrix(1,0,0,1,-174,-17)" stroke="rgb(179,211,19)">
      <circle r="30" clip-path="url(#clipPath2)" cx="219" cy="229" stroke="none"/>
    </g>
    <g text-rendering="geometricPrecision" stroke-miterlimit="1.45" shape-rendering="geometricPrecision" font-family="'Monaco'" transform="matrix(1,0,0,1,-174,-17)" stroke-linecap="butt">
      <text x="211.7988" xml:space="preserve" y="233.5" clip-path="url(#clipPath2)" stroke="none">N4</text>
    </g>
    <g fill="rgb(179,211,19)" text-rendering="geometricPrecision" shape-rendering="geometricPrecision" transform="matrix(1,0,0,1,-174,-17)" stroke="rgb(179,211,19)">
      <circle r="30" clip-path="url(#clipPath2)" cx="318" cy="224" stroke="none"/>
    </g>
    <g text-rendering="geometricPrecision" stroke-miterlimit="1.45" shape-rendering="geometricPrecision" font-family="'Monaco'" transform="matrix(1,0,0,1,-174,-17)" stroke-linecap="butt">
      <text x="310.7988" xml:space="preserve" y="228.5" clip-path="url(#clipPath2)" stroke="none">N5</text>
    </g>
    <g fill="rgb(179,211,19)" text-rendering="geometricPrecision" shape-rendering="geometricPrecision" transform="matrix(1,0,0,1,-174,-17)" stroke="rgb(179,211,19)">
      <circle r="30" clip-path="url(#clipPath2)" cx="532" cy="147" stroke="none"/>
    </g>
    <g text-rendering="geometricPrecision" stroke-miterlimit="1.45" shape-rendering="geometricPrecision" font-family="'Monaco'" transform="matrix(1,0,0,1,-174,-17)" stroke-linecap="butt">
      <text x="524.7988" xml:space="preserve" y="151.5" clip-path="url(#clipPath2)" stroke="none">N7</text>
    </g>
    <g fill="rgb(179,211,19)" text-rendering="geometricPrecision" shape-rendering="geometricPrecision" transform="matrix(1,0,0,1,-174,-17)" stroke="rgb(179,211,19)">
      <circle r="30" clip-path="url(#clipPath2)" cx="453" cy="307" stroke="none"/>
    </g>
    <g text-rendering="geometricPrecision" stroke-miterlimit="1.45" shape-rendering="geometricPrecision" font-family="'Monaco'" transform="matrix(1,0,0,1,-174,-17)" stroke-linecap="butt">
      <text x="445.7988" xml:space="preserve" y="311.5" clip-path="url(#clipPath2)" stroke="none">N9</text>
    </g>
    <g fill="rgb(179,211,19)" text-rendering="geometricPrecision" shape-rendering="geometricPrecision" transform="matrix(1,0,0,1,-174,-17)" stroke="rgb(179,211,19)">
      <circle r="30" clip-path="url(#clipPath2)" cx="559" cy="307" stroke="none"/>
    </g>
    <g text-rendering="geometricPrecision" stroke-miterlimit="1.45" shape-rendering="geometricPrecision" font-family="'Monaco'" transform="matrix(1,0,0,1,-174,-17)" stroke-linecap="butt">
      <text x="551.7988" xml:space="preserve" y="311.5" clip-path="url(#clipPath2)" stroke="none">N8</text>
    </g>
    <g fill="rgb(179,211,19)" text-rendering="geometricPrecision" shape-rendering="geometricPrecision" transform="matrix(1,0,0,1,-174,-17)" stroke="rgb(179,211,19)">
      <circle r="30" clip-path="url(#clipPath2)" cx="326" cy="383" stroke="none"/>
    </g>
    <g text-rendering="geometricPrecision" stroke-miterlimit="1.45" shape-rendering="geometricPrecision" font-family="'Monaco'" transform="matrix(1,0,0,1,-174,-17)" stroke-linecap="butt">
      <text x="315.1982" xml:space="preserve" y="387.5" clip-path="url(#clipPath2)" stroke="none">N11</text>
    </g>
    <g fill="rgb(179,211,19)" text-rendering="geometricPrecision" shape-rendering="geometricPrecision" transform="matrix(1,0,0,1,-174,-17)" stroke="rgb(179,211,19)">
      <circle r="30" clip-path="url(#clipPath2)" cx="358" cy="307" stroke="none"/>
    </g>
    <g text-rendering="geometricPrecision" stroke-miterlimit="1.45" shape-rendering="geometricPrecision" font-family="'Monaco'" transform="matrix(1,0,0,1,-174,-17)" stroke-linecap="butt">
      <text x="347.1982" xml:space="preserve" y="311.5" clip-path="url(#clipPath2)" stroke="none">N10</text>
    </g>
    <g fill="rgb(179,211,19)" text-rendering="geometricPrecision" shape-rendering="geometricPrecision" transform="matrix(1,0,0,1,-174,-17)" stroke="rgb(179,211,19)">
      <circle r="30" clip-path="url(#clipPath2)" cx="458" cy="224" stroke="none"/>
    </g>
    <g text-rendering="geometricPrecision" stroke-miterlimit="1.45" shape-rendering="geometricPrecision" font-family="'Monaco'" transform="matrix(1,0,0,1,-174,-17)" stroke-linecap="butt">
      <text x="450.7988" xml:space="preserve" y="228.5" clip-path="url(#clipPath2)" stroke="none">N6</text>
    </g>
    <g fill="rgb(179,211,19)" text-rendering="geometricPrecision" shape-rendering="geometricPrecision" transform="matrix(1,0,0,1,-174,-17)" stroke="rgb(179,211,19)">
      <circle r="30" clip-path="url(#clipPath2)" cx="388" cy="147" stroke="none"/>
    </g>
    <g text-rendering="geometricPrecision" stroke-miterlimit="1.45" shape-rendering="geometricPrecision" font-family="'Monaco'" transform="matrix(1,0,0,1,-174,-17)" stroke-linecap="butt">
      <text x="380.7988" xml:space="preserve" y="151.5" clip-path="url(#clipPath2)" stroke="none">N3</text>
      <path fill="none" d="M349.3428 80.4483 L287.6572 128.5517" stroke-width="2" clip-path="url(#clipPath2)"/>
      <path fill="none" d="M249.5671 173.3 L233.4329 202.7" stroke-width="2" clip-path="url(#clipPath2)"/>
      <path fill="none" d="M281.2253 171.562 L300.7747 199.438" stroke-width="2" clip-path="url(#clipPath2)"/>
      <path fill="none" d="M505.5432 132.8564 L399.4568 76.1435" stroke-width="2" clip-path="url(#clipPath2)"/>
      <path fill="none" d="M337.6417 355.351 L346.3583 334.649" stroke-width="2" clip-path="url(#clipPath2)"/>
      <path fill="none" d="M381.0844 287.8399 L434.9156 243.1601" stroke-width="2" clip-path="url(#clipPath2)"/>
      <path fill="none" d="M456.196 253.9457 L454.804 277.0543" stroke-width="2" clip-path="url(#clipPath2)"/>
      <path fill="none" d="M481.1778 243.0471 L535.8222 287.9529" stroke-width="2" clip-path="url(#clipPath2)"/>
      <path fill="none" d="M378.2136 91.5435 L382.7864 117.4565" stroke-width="2" clip-path="url(#clipPath2)"/>
      <path fill="none" d="M408.1802 169.1982 L437.8198 201.8018" stroke-width="2" clip-path="url(#clipPath2)"/>
    </g>
  </g>
</svg>
